<svg xmlns="http://www.w3.org/2000/svg" viewBox="0 0 2000 2000"><circle cx="996.82" cy="1001.64" r="800" fill="#e8ebf7"/><path fill="#a1abd1" d="m1253.72,51.83c1.01-4.59,7.56-4.59,8.57,0,6.13,27.82,27.85,49.54,55.67,55.67,4.59,1.01,4.59,7.56,0,8.57-27.82,6.13-49.54,27.85-55.67,55.67-1.01,4.59-7.56,4.59-8.57,0-6.13-27.82-27.85-49.54-55.67-55.67-4.59-1.01-4.59-7.56,0-8.57,27.82-6.13,49.54-27.85,55.67-55.67Z"/><path fill="#c5cce7" d="m1738.47,1282.87c36.43-91.06,57.12-190.12,58.69-293.82-1.55-100.45-21.6-196.4-56.9-284.61-111.02,43.69-228.87,285.55-246.52,451.53-20.54,193.05-201.26,110.9-369.66-131.44-168.4-242.33-184.83,102.68-283.41,164.29-98.58,61.61-143.76-127.33-221.8-131.44s-123.22,295.73-209.48-61.61c-38.72-160.43-108.91-221.51-174.5-240.12-25,77.5-38.51,160.16-38.51,245.98,0,138.47,35.16,268.72,97.04,382.32l1445.05-101.09Z"/><path fill="#a1abd1" d="m237.44,1253.94c105.58,317.95,405.25,547.34,758.56,547.7,73.14-2.09,144.13-11.76,212.02-28.17,258.22-70.49,464.37-267.1,548.2-519.52H237.44Z"/><path fill="#6d7aa9" d="m1604.22,1317.4c0-21.81-4.84-43.05-14-63.46H492.59c-9.15,20.41-14,41.65-14,63.46,0,157.52,251.98,285.21,562.81,285.21s562.81-127.69,562.81-285.21Z"/><circle cx="1448.86" cy="321.09" r="149.64" fill="#6d7aa7"/><path fill="#fff" d="m1445.18,372.65c-2.33,0-4.13-.76-5.38-2.29-1.26-1.52-1.88-3.63-1.88-6.32,0-6.28.76-12.15,2.29-17.62,1.52-5.47,3.94-11.07,7.27-16.82,3.32-5.74,7.85-11.93,13.59-18.57,4.48-5.38,8.07-10.13,10.76-14.26,2.69-4.12,4.62-8.11,5.78-11.97,1.16-3.86,1.75-7.76,1.75-11.7,0-7.53-2.69-13.5-8.07-17.89-5.38-4.39-12.83-6.59-22.33-6.59-8.25,0-15.83,1.21-22.74,3.63-6.91,2.42-13.59,6.05-20.05,10.9-2.69,1.8-5.16,2.69-7.4,2.69s-4.08-.63-5.52-1.88c-1.44-1.25-2.38-2.87-2.83-4.84-.45-1.97-.18-4.04.81-6.19.98-2.15,2.73-4.12,5.25-5.92,7-5.56,15.24-9.96,24.76-13.18,9.51-3.23,19.1-4.84,28.79-4.84,10.22,0,19.24,1.75,27.04,5.25,7.8,3.5,13.86,8.43,18.16,14.8,4.31,6.37,6.46,13.86,6.46,22.47,0,5.56-.81,10.9-2.42,16.01-1.61,5.11-4.17,10.27-7.67,15.47-3.5,5.21-8.39,11.13-14.67,17.76-5.56,5.74-10.05,11.08-13.45,16.01-3.41,4.94-5.97,9.69-7.67,14.26-1.71,4.57-2.82,9.38-3.36,14.4-.18,2.15-.9,3.9-2.15,5.25-1.26,1.35-2.96,2.02-5.11,2.02Zm-.27,49.51c-4.49,0-8.12-1.39-10.9-4.17-2.78-2.78-4.17-6.32-4.17-10.63s1.39-7.85,4.17-10.63c2.78-2.78,6.41-4.17,10.9-4.17s8.03,1.39,10.63,4.17c2.6,2.78,3.9,6.32,3.9,10.63s-1.3,7.85-3.9,10.63c-2.6,2.78-6.15,4.17-10.63,4.17Z"/><path fill="#fff" d="m732.3,833.09l-136.8,29.15,241.48,99.43c26.43,10.88,42.69,37.72,40.11,66.19h0c-4.28,47.04-55.6,74.07-96.81,50.97,0,0-309.25-169.5-338.4-189.68-29.15-20.18-39.25-72.89,3.36-96.44,42.61-23.55,251.1-60.73,251.1-60.73l35.97,101.1Z"/><path fill="#c5cce7" d="m801.48,1086.35l-31.76-152.36-39.16-16.12v.24s-15.9,81.22,4.04,135.65c27.69,15.24,45.68,25.09,45.68,25.09,6.87,3.85,14.03,6.3,21.2,7.51Z"/><path fill="none" stroke="#3b4573" stroke-linecap="round" stroke-linejoin="round" stroke-width="12" d="m562.16,842.84s10.83,9.31,33.34,19.41"/><path fill="#fff" d="m817.91,1416l210.06-124.33c24.91-14.74,30.58-51.57,11.52-74.84h0c-14.01-17.11-36.95-20.87-54.72-8.97l-203.82,136.44c-15.06,10.08-21.62,30.53-15.71,48.97h0c7.64,23.83,32.61,34.61,52.67,22.73Z"/><path fill="#3b4573" d="m572.82,1031.96s134.31-51.92,172.44,76.53c28.51,96.04-40.88,153.15-40.88,153.15,0,0,41.83,4.75,42.78,51.33,0,0,41.83-41.83,52.28,17.11,10.46,58.94,31.37,116.92-41.83,130.23,0,0-48.48,42.78-95.06,19.01-46.58-23.76-89.73-447.36-89.73-447.36Z"/><path fill="#fff" d="m539.93,1334.83s-68.44-77.95-46.58-220.53c21.86-142.59,148.29-115.02,150.19,8.56,1.9,123.58,0,186.31,4.75,199.62,4.75,13.31,44.68,115.02,44.68,148.29s-67.49,30.42-67.49,30.42l-85.55-166.35Z"/><path fill="none" stroke="#3b4573" stroke-linecap="round" stroke-linejoin="round" stroke-width="12" d="m566.55,1054.41s48.48,41.83,38.97,134.98c-9.51,93.16,0,149.24,0,149.24"/><path fill="#3b4573" d="m513.42,1345.59l97.8-20.26,34.94,128.99c7.59,28.02-11.79,56.15-40.68,59.04h0c-18.83,1.88-34.69-9.15-45.98-24.35-22.08-29.73-40.4-84.68-46.08-143.42Z"/><polygon fill="#fff" points="1107.71 1277.37 1018.05 1397.25 1112.91 1402.34 1168.16 1266.28 1107.71 1277.37"/><circle cx="1178.41" cy="901.77" r="439.48" fill="#c5cce7"/><path fill="#6d7aa9" d="m799.11,679.65c1.08,2.34,2.28,4.64,3.58,6.9,28.16,48.77,98.01,61.16,156.01,27.68,58-33.49,82.2-100.17,54.04-148.95-12.42-21.52-32.96-35.95-57.01-42.49-64.63,38.06-118.66,92.17-156.62,156.86Z"/><path fill="#3b4573" d="m985.32,1009.35c-16.75-88.19-10.84-73.48-107.81-79.95-55.45-3.7-92.72-94.48-114.47-171.55-15.62,45.09-24.11,93.51-24.11,143.91,0,180.97,109.39,336.39,265.65,403.76.67-2.51,1.4-5.04,2.24-7.61,16.81-51.72-9.64-75.69-34.21-88.62-24.57-12.93-105.43-18.7-86.04-31.63,19.4-12.93,24.57,11.64,65.94-36.2,41.38-47.84,94.59,48.16,130.59,0,33.6-63.87-82.47-51.51-97.77-132.11Z"/><path fill="#a1abd1" d="m991.33,999.08c-16.79-81.53-25.18-70.74-115.1-76.74-54.88-3.66-90.56-99.31-110.03-173.31-17.63,47.57-27.27,99.02-27.27,152.73,0,175.09,102.4,326.27,250.57,396.92.68-10.58,2.62-22.28,6.63-34.63,15.59-47.96-15.59-50.36-38.37-62.35-22.78-11.99-91.12-37.17-73.14-49.16,17.98-11.99,22.78,10.79,61.15-33.57,38.37-44.36,95.92,47.96,121.1,0,25.18-47.96-58.75-38.37-75.54-119.9Z"/><path fill="#3b4573" d="m1483.38,797.54c-39.12-65.37,43.03-30.07-2.61-73.21-45.64-43.14-158.74-106.63-88.33-102.71,47.72,2.66,113.3,25.05,141.87,22.25-79.87-110.04-209.53-181.59-355.9-181.59-58.1,0-113.57,11.28-164.33,31.76,3.28,30.81,8.29,73.5,52.06,99.55,125.17,74.52,61.28,130.73,142.12,133.35,80.84,2.61,63.89,69.29,144.73,88.9,80.84,19.61,169.5,47.06,130.39-18.3Z"/><path fill="#a1abd1" d="m1385.8,607.01c57.02,3.17,112.17,30.5,124.52,6.69-80.58-92.76-199.39-151.41-331.91-151.41-59.11,0-115.49,11.67-166.97,32.83,2.81,28.29,19.85,63.79,74.61,96.31,115.1,68.34,56.35,119.9,130.69,122.3,74.34,2.4,58.75,63.55,133.09,81.53,74.34,17.98,155.87,43.16,119.9-16.79-35.97-59.95,39.57-27.58-2.4-67.14-41.96-39.57-146.28-107.91-81.53-104.31Z"/><path fill="#3b4573" d="m1370.52,1249.97s-48.73-95.11-155.76-43.99c-107.04,51.12-123.01,151.77-123.01,151.77l-53.22,17.33c-10.45,3.4-19.65,9.82-26.43,18.46-14.35,18.29-38.02,51.18-40.85,72.44,0,0,348.16-108.97,399.28-216.01Z"/><path fill="#fff" d="m1174.78,1492.52s104.02.59,197.62-109.69c93.61-110.28-10.37-187.9-105.2-108.11-94.83,79.79-141.09,122.47-154.29,127.62s-116.47,41.77-141.66,63.64c-25.2,21.87,5.41,74.29,5.41,74.29l198.12-47.75Z"/><path fill="none" stroke="#3b4573" stroke-linecap="round" stroke-linejoin="round" stroke-width="12" d="m1369.64,1288.04s-63.54-9.22-127.84,59.21c-64.3,68.43-113.02,98.1-113.02,98.1"/><path fill="#3b4573" d="m1185.45,1523.11l-52.96-94.04-129.64,63.99c-28.16,13.9-37.86,49.25-20.36,74.19h0c11.41,16.26,31.73,23.81,51.56,19.13,44.76-10.55,115.79-38.62,151.4-63.28Z"/><path fill="#a1abd1" d="m922.38,571.51l-39.04-250.87c0-1.87-.01-3.74-.07-5.63-2.82-86.09-74.9-153.6-160.99-150.78s-153.6,74.9-150.78,160.99c1.76,53.72,30.48,100.19,72.75,126.87l214.04,157.94c14.43,11,34.43,10.99,48.84-.03h0c11.81-9.03,17.67-23.83,15.25-38.5Z"/><circle cx="738.5" cy="343.43" r="75.49" fill="#fff"/><g><path fill="#6d7aa9" d="m509.42,406.81s96.07,60.49,131.65,111.01l52.66-35.58s-46.25-101.76-112.43-106.74c-66.18-4.98-76.14,27.04-71.87,31.31Z"/><path fill="#6d7aa9" d="m786.24,668.68s29.16-53.01,19.91-97.13l-82.68-62.77s-36.81-25.01-16.93-53.58c9.02-13.8,18.34-25.61,26.48-35.01,12.71-14.67,11.65-36.75-2.3-50.25h0c-10.89-10.53-27.12-13.28-40.86-6.92-27.1,12.55-68.5,37.31-75.11,73.68-9.96,54.79,37,98.2,37,98.2l134.49,133.78Z"/><ellipse cx="726.85" cy="757.72" fill="#6d7aa9" rx="73.61" ry="97.06" transform="rotate(-73.11 726.916 757.726)"/><path fill="#6d7aa9" d="m696.33,731.99s-31.98-132.29-58.15-168.63c-26.17-36.34-1.45-56.69,26.17-69.78,15.39-7.29,38.55-14.34,56.06-19.16,14.24-3.92,29.36,2,37.13,14.56h0c8.56,13.83,5.87,31.83-6.37,42.55-14.78,12.94-16.92,20.3-49.02,30.37,0,0,101.76,39.25,98.85,133.74l-8.72,55.24s-45.06,45.06-95.94-18.9Z"/><path fill="none" stroke="#3b4573" stroke-linecap="round" stroke-linejoin="round" stroke-width="12" d="m632.5,517.47c6.76-10.13,18.99-17.8,31.86-23.89,15.39-7.29,38.55-14.34,56.06-19.16,14.24-3.92,29.36,2,37.13,14.56h0c8.56,13.83.06,34.07-6.37,42.55-6.43,8.47-16.92,20.3-49.02,30.37,0,0,101.76,39.25,98.85,133.74l-8.72,55.24s-45.06,45.06-95.94-18.9"/></g><path fill="none" stroke="#3b4573" stroke-linecap="round" stroke-linejoin="round" stroke-width="12" d="m630.87,506.76s-55.42-57.47,4.11-108.1"/><g><path fill="#a1abd1" d="m1202.02,1096.06s-32.88-158.94,84.03-169.9l432.96-62.11s186.34,117.83,0,593.72c0,0,0,46.58,54.81,57.55,0,0-78.55,67.59-253.93,42.02-175.38-25.58-149.8,9.13-268.55-7.31,0,0,56.29-118.74,47.15-199.13-9.13-80.38,51.5-16.44,51.5-253.93l-1.08-35.35-146.89,34.44Z"/><path fill="#6d7aa9" d="m1292.74,956.83c-36.66-13.03-62.65-1.99-80.7,18.78-24.53,50.3-10.02,120.44-10.02,120.44l146.89-34.44.1,3.24c8.34-43.16-25.14-96.95-56.27-108.02Z"/><line x1="1580.55" x2="1354.03" y1="1117.54" y2="1139.86" fill="none" stroke="#3b4573" stroke-linecap="round" stroke-linejoin="round" stroke-width="12"/><line x1="1556.84" x2="1302.5" y1="1347.67" y2="1350.9" fill="none" stroke="#3b4573" stroke-linecap="round" stroke-linejoin="round" stroke-width="12"/><line x1="1788.35" x2="1541.5" y1="1206.8" y2="1238.88" fill="none" stroke="#3b4573" stroke-linecap="round" stroke-linejoin="round" stroke-width="12"/></g><g><path fill="#6d7aa9" d="m1798.57,1153.84s42.63,73.46-6.35,139.57c0,0,53.87,21.22,4.9,89.78,0,0,23.67,48.97-53.05,83.25,0,0-46.52,25.3-105.29-2.45-58.77-27.75,6.53-57.13,6.53-57.13,0,0-62.03-39.99,14.69-75.91,0,0-53.87-54.69,9.79-80.8,63.66-26.12,89.78-7.35,108.55-30.2,18.77-22.85,20.22-66.11,20.22-66.11Z"/><path fill="none" stroke="#3b4573" stroke-linecap="round" stroke-linejoin="round" stroke-width="12" d="m1660,1330.96c85.58,25.88,134.68-35.24,134.68-35.24,0,0,48.5-49.43,9.72-142.79"/><path fill="none" stroke="#3b4573" stroke-linecap="round" stroke-linejoin="round" stroke-width="12" d="m1645.31,1406.87c82.4,26.62,151.81-23.67,151.81-23.67,0,0,54.87-42.32,2.95-87.66"/></g><ellipse cx="1132.12" cy="993.48" fill="#fff" stroke="#3b4573" stroke-linecap="round" stroke-linejoin="round" stroke-width="12" rx="41.48" ry="56.29" transform="rotate(-67.91 1132.005 993.466)"/><path fill="#3b4573" stroke="#3b4573" stroke-linecap="round" stroke-linejoin="round" stroke-width="12" d="m1140.28,996.27c-20.38,0-38.61,6.49-50.73,16.68,6.68,7.76,15.9,14.47,26.97,18.96,28.8,11.69,59.14,3.97,67.75-17.26.73-1.8,1.27-3.65,1.65-5.52-11.87-7.97-27.93-12.87-45.64-12.87Z"/><g><ellipse cx="1041.05" cy="779.98" fill="#fff" stroke="#fff" stroke-miterlimit="10" stroke-width="12" rx="101.57" ry="61.23" transform="rotate(-73.95 1041.025 779.98)"/><path fill="#3b4573" stroke="#3b4573" stroke-linecap="round" stroke-linejoin="round" stroke-width="12" d="m1061.82,688.27c-9.77-2.81-22.84,10.15-34.81,32.23.45,14.87,2.36,50.39,10.59,62.8l-25.09-29.67c-1.94,5.46-3.77,11.13-5.45,16.99-14.4,50.04-13.22,94.3,2.63,98.86,15.85,4.56,40.36-32.31,54.76-82.35,14.4-50.04,13.22-94.3-2.62-98.86Z"/></g><g><ellipse cx="1226.47" cy="798.87" fill="#fff" stroke="#fff" stroke-miterlimit="10" stroke-width="12" rx="101.57" ry="61.23" transform="rotate(-73.95 1226.444 798.87)"/><path fill="#3b4573" stroke="#3b4573" stroke-linecap="round" stroke-linejoin="round" stroke-width="12" d="m1247.25,707.17c-9.77-2.81-22.84,10.15-34.81,32.23.45,14.87,2.36,50.39,10.59,62.8l-25.09-29.67c-1.94,5.46-3.77,11.13-5.45,16.99-14.4,50.04-13.22,94.3,2.63,98.86,15.85,4.56,40.36-32.31,54.76-82.35,14.4-50.04,13.22-94.3-2.62-98.86Z"/></g><path fill="none" stroke="#3b4573" stroke-linecap="round" stroke-linejoin="round" stroke-width="12" d="m1258.82,608.99c9.66-6.15,61.68,7.8,70.57,45.69"/><path fill="none" stroke="#3b4573" stroke-linecap="round" stroke-linejoin="round" stroke-width="12" d="m1032.44,645.55c22.61-16.57,48.38-14.55,63.73-4.78"/><path fill="none" stroke="#3b4573" stroke-linecap="round" stroke-linejoin="round" stroke-width="12" d="m1130.04,848.96s-11.55-1.22-24.47-2.24c-18.03-1.42-33.51,12.71-33.71,30.8h0c-.16,14.36,9.48,26.98,23.37,30.6,13.13,3.42,30.25,3.75,34.81,3.75"/><path fill="none" stroke="#3b4573" stroke-linecap="round" stroke-linejoin="round" stroke-width="12" d="m1310.94,862.73s-22.33,36.85-52.48,48.02"/><path fill="none" stroke="#3b4573" stroke-linecap="round" stroke-linejoin="round" stroke-width="12" d="m1320.57,880.76s-14.19,26.26-26.97,31.94"/><path fill="none" stroke="#3b4573" stroke-linecap="round" stroke-linejoin="round" stroke-width="12" d="m940.89,819.97s6.71,49.2,19.01,61.5"/><path fill="none" stroke="#3b4573" stroke-linecap="round" stroke-linejoin="round" stroke-width="12" d="m922.71,850.25s2.02,28.97,18.87,44.47"/><path fill="none" stroke="#3b4573" stroke-linecap="round" stroke-linejoin="round" stroke-width="12" d="m1724.08,1468.58s88.08-11.34,75.86-85.08"/><path fill="none" stroke="#3b4573" stroke-linecap="round" stroke-linejoin="round" stroke-width="12" d="m1251.35,1550.03s39.95,12.96,131.11,1.14c91.16-11.82,187.52,9.33,187.52,9.33"/><g><path fill="#c5cce7" d="m909.32,1507.77c-111.55-13.79-202.02,106.69-259.96,215.17,62.17,30,128.81,52.2,198.66,65.33-.12-74.4,9.72-181.2,65.77-195.57,0,0,119.93,43.78,159.5,112.03,2.55,4.39,9.26,2.62,9.31-2.46.48-49.49-14.27-174.84-173.28-194.49Z"/><path fill="#6d7aa9" d="m816.67,1781.72c42.92,9.87,87.17,16.28,132.42,18.94-.43-38.2,5.58-89.26,34.57-126.88,2.48-3.22.3-7.9-3.76-8.05-31.86-1.11-131.63,4.63-163.22,115.98Z"/><path fill="#c5cce7" d="m515.36,1641.14c41.06,30.96,85.19,58.06,131.85,80.75,30.13-254.18,180.99-400.01,227.99-439.8,3.89-3.29.94-9.61-4.09-8.75-192.74,32.83-311.65,264.25-355.76,367.8Z"/><path fill="#6d7aa9" d="m216.95,930.05s-83.73,25.1-103.05,86.26c-13.85,43.86-50.05,206.89-69.42,295.64-1.31,5.98,7.21,8.62,9.52,2.95,38.11-93.85,115.19-276.61,149.11-306.43,0,0,157.63,235.41,157.89,479.48,48.77,63.67,106.88,119.8,172.3,166.34-13.7-198.61-71.67-647.44-316.35-724.24Z"/><path fill="none" stroke="#3b4573" stroke-linecap="round" stroke-linejoin="round" stroke-width="12" d="m879.37,1561.82s22.59,28.05,40.51,32.72"/></g><path fill="#c5cce7" d="m785.45,36.17c.78-3.54,5.82-3.54,6.6,0,4.72,21.43,21.45,38.16,42.88,42.88,3.54.78,3.54,5.82,0,6.6-21.43,4.72-38.16,21.45-42.88,42.88-.78,3.54-5.82,3.54-6.6,0-4.72-21.43-21.45-38.16-42.88-42.88-3.54-.78-3.54-5.82,0-6.6,21.43-4.72,38.16-21.45,42.88-42.88Z"/><path fill="#c5cce7" d="m562.08,600.46c.78-3.54,5.82-3.54,6.6,0,4.72,21.43,21.45,38.16,42.88,42.88,3.54.78,3.54,5.82,0,6.6-21.43,4.72-38.16,21.45-42.88,42.88-.78,3.54-5.82,3.54-6.6,0-4.72-21.43-21.45-38.16-42.88-42.88-3.54-.78-3.54-5.82,0-6.6,21.43-4.72,38.16-21.45,42.88-42.88Z"/><path fill="#a1abd1" d="m251.56,379.89c1.26-5.72,9.41-5.72,10.67,0,7.63,34.66,34.7,61.72,69.36,69.36,5.72,1.26,5.72,9.41,0,10.67-34.66,7.63-61.72,34.7-69.36,69.36-1.26,5.72-9.41,5.72-10.67,0-7.63-34.66-34.7-61.72-69.36-69.36-5.72-1.26-5.72-9.41,0-10.67,34.66-7.63,61.72-34.7,69.36-69.36Z"/></svg>