<svg xmlns="http://www.w3.org/2000/svg" viewBox="0 0 2000 2000"><path fill="#e8ebf7" d="m1004.38,1796.15c441.83,0,800-358.17,800-800S1446.21,196.15,1004.38,196.15,204.38,554.32,204.38,996.15s358.17,800,800,800Z"/><path fill="#a1abd1" d="m1664.73,1447.88c-144.14,210.3-386.13,348.27-660.35,348.27s-516.21-137.97-660.35-348.27h1320.7Z"/><path fill="#a1abd1" d="m1571.94,870.39s-85.74-29.45-147.46-455.87c-61.72-426.41,257.7,193.95,189.36,305.77,0,0,45.72,74.82-41.9,150.1Z"/><path fill="none" stroke="#3b4573" stroke-linecap="round" stroke-linejoin="round" stroke-width="12" d="m1495.56,407.11s53.37,122.78,76.38,463.27c23.01,340.49-15.09,448.18-15.09,448.18"/><path fill="#c5cce7" d="m1696.95,356.85s170.41,160.05-51.81,557.3c-70.49-175.31-87.06-357.04,51.81-557.3Z"/><path fill="#a1abd1" d="m1629.01,482.35s47.48-55.45,128.96-78.3c100.63-28.21,91.23-67.07,77.15-85.21-13.1-16.88-108.62-83.5-206.11,163.5h0Z"/><path fill="none" stroke="#3b4573" stroke-linecap="round" stroke-linejoin="round" stroke-width="12" d="m1792.53,348.32s-61.73-29.95-102.91,27.19"/><path fill="#fff" d="m1701.64,485.73s-25,281.87-52.28,375.07l52.28-375.07Z"/><path fill="none" stroke="#3b4573" stroke-linecap="round" stroke-linejoin="round" stroke-width="12" d="m1701.64,485.73s-25,281.87-52.28,375.07"/><path fill="#c5cce7" d="m1657.99,1006.9c24.06-10.59,174.05-114.12,190.3-429.06,0,0-151.3,7.92-211.57,194.48-60.27,186.56,21.27,234.58,21.27,234.58Z"/><path fill="none" stroke="#3b4573" stroke-linecap="round" stroke-linejoin="round" stroke-width="12" d="m1801.45,647.87c-56,60.5-126.72,162.44-149.11,356.72-22.39,194.28,23.61,360.78,23.61,360.78"/><path fill="#a1abd1" d="m1724.95,632.87s70.69-25.95,127.05,47.97c56.36,73.92,99.78,72.06,104.4,12.93,4.62-59.13-39.53-134.72-113.45-120.4-73.91,14.32-118,59.5-118,59.5Z"/><path fill="none" stroke="#3b4573" stroke-linecap="round" stroke-linejoin="round" stroke-width="12" d="m1813.52,590.98s82.3-17.7,105.94,110.02"/><path fill="#a1abd1" d="m1646.13,1439.68c-18.35,21.54-45.67,35.2-76.18,35.2s-57.83-13.66-76.18-35.2c-14.17,21.22-38.34,35.2-65.78,35.2-43.65,0-79.04-35.38-79.04-79.03s35.39-79.04,79.04-79.04c19.1,0,36.61,6.77,50.28,18.05,15.43-35.31,50.67-59.98,91.68-59.98s76.25,24.67,91.68,59.98c13.67-11.28,31.18-18.05,50.28-18.05,43.65,0,79.04,35.39,79.04,79.04s-35.39,79.03-79.04,79.03c-27.44,0-51.61-13.98-65.78-35.2Z"/><path fill="#6d7aa9" d="m1709.54,1571.63h-282.82c-4.92,0-9.68-1.87-13.25-5.25-52.31-49.44-77.15-109.23-87.43-174.5h483.73c-15.44,67.48-37.12,130.8-87.53,175.01-3.51,3.07-8.03,4.74-12.7,4.74Z"/><path fill="#3b4573" d="m1798.5,1434.85c4.16-14.03,7.79-28.4,11.13-42.97h-483.52c2.32,14.62,5.38,28.96,9.32,42.97h463.07Z"/><path fill="#6d7aa9" d="m1844.75,1358.88h-549.07c-2.76,0-5,2.24-5,5v40.98c0,2.76,2.24,5,5,5h549.07c2.76,0,5-2.24,5-5v-40.98c0-2.76-2.24-5-5-5Z"/><path fill="#fff" d="m1233.76,1219.27l-77.75,107.85-91.41,6.1,48.77-123.98,120.39,10.03Z"/><path fill="#6d7aa9" d="m1091.86,1263.91h109.72l32.18-44.64-68.95-5.75h-53.13l-19.82,50.39Z"/><path fill="#6d7aa9" d="m1185.25,1420.96s41.99-36.28,95.13,0c53.14,36.28,33.47,107.47,33.47,107.47,0,0-59.9,44.04-186.75,1.76-126.85-42.28-125.08-54.61-116.28-77.52,8.81-22.9,28.19-33.47,31.71-51.09,2.57-12.86,6.27-43.37,8.08-58.91.66-5.65,4.93-10.2,10.52-11.2,28.57-5.1,112.56-18.65,119.11-2.76,7.89,19.17,23.52,76.25,4.99,92.25h.02Z"/><path fill="#fff" d="m1151.63,1457.87s7.72-14.29,33.62-36.91l-33.62,36.91Z"/><path fill="none" stroke="#3b4573" stroke-linecap="round" stroke-linejoin="round" stroke-width="12" d="m1151.63,1457.87s7.72-14.29,33.62-36.91"/><path fill="none" stroke="#3b4573" stroke-linecap="round" stroke-linejoin="round" stroke-width="12" d="m1087.43,1394.65s69.87,15.88,104.8-7.94"/><path fill="#fff" d="m1313.86,1528.42l-4.6,39.45c-1.71,14.67-14,25.82-28.77,26.1-52.38.98-167.72,1.96-184.76-7.98-22.16-12.93-29.55-40.63-29.55-40.63l-5.36,41.33-42.02-2.52c-10.4-44.45-15.95-89.16-11.21-120.62,82.25,74.83,185.76,87.28,306.27,64.87Z"/><path fill="none" stroke="#3b4573" stroke-linecap="round" stroke-linejoin="round" stroke-width="12" d="m1220.87,1447.52s-42.64,12.54-57.69,40.13"/><path fill="#fff" d="m721.4,1219.27l77.75,107.85,91.41,6.1-48.77-123.98-120.39,10.03Z"/><path fill="#fff" d="m1537.95,973.33s-41.27-78.82-60.95-181.27c-19.68-102.45-37.34-152.38-82.75-156.41-45.41-4.04-73.87,66.9-52.47,131.19,21.4,64.28,43.75,166.55,135.58,256.36l60.59-49.86h0Z"/><path fill="#6d7aa9" d="m1719.15,1244.56c11.5-10.58,13.15-28.14,3.82-40.68l-75.41-101.3,47.18,3.18c21.24,1.43,39.72-14.41,41.55-35.62,1.88-21.74-14.42-40.81-36.19-42.34l-83.26-5.85c-27.72,0-48.17-26.77-58.25-43.5-4.3-7.13-13.53-9.45-20.64-5.12-24.37,14.83-73.48,47.19-79.87,70.62-8.55,31.34,19.95,33.05,19.95,33.05,0,0-11.97,67.25,13.68,108.85,25.64,41.6,26.03,62.41,26.03,62.41l2.33,39.4c2.31,18.33,18.34,31.79,36.79,30.9,17.51-.84,31.77-14.38,33.51-31.83l3.35-33.64,17.88,25.81c8.77,12.66,25.71,16.59,39.17,9.1,12.91-7.19,18.63-22.73,13.47-36.58l-12.96-34.79,25.08,26.46c11.47,12.1,30.53,12.75,42.8,1.47h-.01Z"/><path fill="none" stroke="#3b4573" stroke-linecap="round" stroke-linejoin="round" stroke-width="12" d="m1616.8,1164.15l34.47,52.48"/><path fill="none" stroke="#3b4573" stroke-linecap="round" stroke-linejoin="round" stroke-width="12" d="m1574.76,1196.54l18.95,56.56"/><path fill="none" stroke="#3b4573" stroke-linecap="round" stroke-linejoin="round" stroke-width="12" d="m1647.56,1102.59s-12.1-19.61-24.32-16.27c-12.22,3.33-36.66,23.33-77.2,1.11"/><path fill="none" stroke="#3b4573" stroke-linecap="round" stroke-linejoin="round" stroke-width="12" d="m1601.72,1127.97s-31.16,42.56-83.97,36.1"/><path fill="none" stroke="#3b4573" stroke-linecap="round" stroke-linejoin="round" stroke-width="12" d="m1530.9,1031.83s-28.43,42.21-54.7,45.22"/><path fill="#6d7aa9" d="m731.48,1233.25l22.1,30.66h109.71l-19.26-48.99-24.31-1.4h-29.37l-50,4.17-8.87,15.56Z"/><path fill="#a1abd1" d="m1329.57,1233.29h-762.41c-13.22,0-24.3-10.01-25.64-23.16l-63.69-625.27c-1.55-15.19,10.37-28.39,25.64-28.39h889.79c15.27,0,27.19,13.2,25.64,28.39l-63.69,625.27c-1.34,13.16-12.42,23.16-25.64,23.16Z"/><path fill="#6d7aa9" d="m477.83,584.86l3.78,37.12h583.78l3.78-37.12c1.55-15.19-10.37-28.39-25.64-28.39H503.47c-15.27,0-27.19,13.2-25.64,28.39Z"/><path fill="#c5cce7" d="m1393.26,556.47h-604.89c-10.52,0-18.73,13.2-17.66,28.39l2.6,37.12h641.8l3.78-37.12c1.55-15.19-10.37-28.39-25.64-28.39h.01Z"/><path fill="#c5cce7" d="m1355.21,1210.13l63.69-625.27c1.55-15.19-10.37-28.39-25.64-28.39h-604.89c-10.52,0-18.73,13.2-17.66,28.39l43.87,625.27c.92,13.16,8.55,23.16,17.66,23.16h497.32c13.22,0,24.3-10.01,25.64-23.16h.01Z"/><path fill="#a1abd1" d="m1393.26,556.47h-604.89c-10.52,0-18.73,13.2-17.66,28.39l2.6,37.12h641.8l3.78-37.12c1.55-15.19-10.37-28.39-25.64-28.39h.01Z"/><path fill="#6d7aa9" d="m719.96,723.88h-15.01c-14.36,0-25.99,11.08-25.99,24.74v324.51c0,13.67,11.64,24.75,25.99,24.75h15.01c14.36,0,26-11.08,26-24.75v-324.51c0-13.67-11.64-24.74-26-24.74Z"/><path fill="#6d7aa9" d="m622.96,727.88h-15.01c-14.36,0-26,11.11-26,24.81v325.38c0,13.7,11.64,24.81,26,24.81h15.01c14.36,0,26-11.11,26-24.81v-325.38c0-13.7-11.64-24.81-26-24.81Z"/><path fill="#fff" d="m538.37,1010.88s40.07-96.97,99.41-182.78c59.34-85.81,72.4-123.1,43.47-158.34-28.92-35.24-89.29-16.14-120.18,44.16-30.89,60.3-100.56,159.48-100.34,287.93l77.64,9.02h0Z"/><path fill="#a1abd1" d="m1436.48,430.08H443.58c-11.05,0-20,8.96-20,20v119.75c0,11.05,8.95,20,20,20h992.9c11.05,0,20-8.95,20-20v-119.75c0-11.04-8.95-20-20-20Z"/><path fill="#6d7aa9" fill-rule="evenodd" d="m532.63,238.88h593.83c4.13,0,7.83,2.53,9.32,6.38l107.62,277.1,74.57-28.96-107.61-277.1c-13.44-34.61-46.76-57.42-83.9-57.42h-608.44c-49.22,0-83.07,49.46-65.25,95.34l104.13,268.14,74.57-28.96-98.84-254.52Z"/><path fill="#6d7aa9" d="m440.55,1284.82c15.31,3.14,30.52-5.78,35.24-20.68l38.12-120.4,24.99,40.14c11.25,18.07,34.91,23.81,53.19,12.9,18.74-11.18,24.68-35.55,13.2-54.11l-43.92-70.98c-16.2-22.49-6.43-54.73,1.25-72.69,3.27-7.66-.24-16.5-7.91-19.74-26.28-11.11-81.24-32.04-103.98-23.53-30.43,11.38-15.16,35.5-15.16,35.5,0,0-61.56,29.6-80.33,74.72-18.77,45.12-35.43,57.6-35.43,57.6l-30.61,24.92c-13.52,12.59-15.08,33.46-3.57,47.91,10.92,13.72,30.24,17.38,45.41,8.59l29.25-16.94-10.49,29.59c-5.15,14.52,1.57,30.56,15.51,37.1,13.38,6.27,29.33,1.83,37.55-10.45l20.65-30.85-6.81,35.82c-3.11,16.38,7.5,32.22,23.82,35.58h0Z"/><path fill="none" stroke="#3b4573" stroke-linecap="round" stroke-linejoin="round" stroke-width="12" d="m445.98,1154.78l-22.43,58.63"/><path fill="none" stroke="#3b4573" stroke-linecap="round" stroke-linejoin="round" stroke-width="12" d="m395.12,1139.59l-34.82,48.43"/><path fill="none" stroke="#3b4573" stroke-linecap="round" stroke-linejoin="round" stroke-width="12" d="m503.14,1007.73s-50.87,1.6-68.66-17.96"/><path fill="#c5cce7" d="m1436.47,430.08h-684.77c-11.05,0-20,8.96-20,20v119.75c0,11.05,8.95,20,20,20h684.77c11.05,0,20-8.95,20-20v-119.75c0-11.04-8.95-20-20-20Z"/><path fill="none" stroke="#3b4573" stroke-linecap="round" stroke-linejoin="round" stroke-width="12" d="m859.02,734.93s98.57,6.73,139.59-48.98"/><path fill="#fff" stroke="#fff" stroke-miterlimit="10" stroke-width="12" d="m972.77,889.38c36.79,0,66.61-38.41,66.61-85.79s-29.82-85.79-66.61-85.79-66.61,38.41-66.61,85.79,29.82,85.79,66.61,85.79Z"/><path fill="#3b4573" stroke="#3b4573" stroke-linecap="round" stroke-linejoin="round" stroke-width="12" d="m972.77,717.79c-9.48,0-18.48,2.56-26.64,7.16-8.54,13.71-13.66,31.11-13.66,50.06,0,.85.03,1.7.05,2.54l34.71,14.14-25.38,25.61c10.98,22.69,30.52,37.81,52.81,37.81,15.01,0,28.78-6.85,39.52-18.25,3.35-10.23,5.2-21.48,5.2-33.28,0-47.38-29.82-85.79-66.61-85.79Z"/><path fill="none" stroke="#3b4573" stroke-linecap="round" stroke-linejoin="round" stroke-width="12" d="m1327.11,729.54s-98.57,6.73-139.59-48.98"/><path fill="#fff" stroke="#fff" stroke-miterlimit="10" stroke-width="12" d="m1232.79,889.38c36.79,0,66.61-38.41,66.61-85.79s-29.82-85.79-66.61-85.79-66.61,38.41-66.61,85.79,29.82,85.79,66.61,85.79Z"/><path fill="#3b4573" stroke="#3b4573" stroke-linecap="round" stroke-linejoin="round" stroke-width="12" d="m1232.79,717.8c-9.48,0-18.48,2.56-26.64,7.16-8.54,13.71-13.66,31.11-13.66,50.06,0,.85.03,1.7.05,2.54l34.71,14.14-25.38,25.61c10.98,22.69,30.52,37.81,52.81,37.81,15.01,0,28.78-6.85,39.52-18.25,3.35-10.23,5.2-21.48,5.2-33.28,0-47.38-29.82-85.79-66.61-85.79Z"/><path fill="none" stroke="#3b4573" stroke-linecap="round" stroke-linejoin="round" stroke-width="12" d="m1089.92,836.43s70.4-7.43,68.42,34.23c-1.97,41.67-75.17,26.43-75.17,26.43"/><path fill="none" stroke="#3b4573" stroke-linecap="round" stroke-linejoin="round" stroke-width="12" d="m942.13,992.61s91.99-110.11,231.38-15.33"/><path fill="none" stroke="#3b4573" stroke-linecap="round" stroke-linejoin="round" stroke-width="12" d="m1193.28,950.85s-33.21,26.57-3.8,54.09"/><path fill="none" stroke="#3b4573" stroke-linecap="round" stroke-linejoin="round" stroke-width="12" d="m919.42,971.93s35.36,13.77,19.41,55.09"/><path fill="none" stroke="#3b4573" stroke-linecap="round" stroke-linejoin="round" stroke-width="12" d="m1007.55,1010.75s43.48-35.98,103.44-3"/><path fill="#6d7aa9" d="m769.9,1420.96s-41.99-36.28-95.13,0c-53.14,36.28-33.47,107.47-33.47,107.47,0,0,59.9,44.04,186.75,1.76,126.85-42.28,125.08-54.61,116.28-77.52-8.81-22.9-28.19-33.47-31.71-51.09-2.57-12.86-6.27-43.37-8.08-58.91-.66-5.65-4.93-10.2-10.52-11.2-28.57-5.1-112.56-18.65-119.11-2.76-7.89,19.17-23.52,76.25-4.99,92.25h-.02Z"/><path fill="#fff" d="m803.53,1457.87s-7.72-14.29-33.62-36.91l33.62,36.91Z"/><path fill="none" stroke="#3b4573" stroke-linecap="round" stroke-linejoin="round" stroke-width="12" d="m803.53,1457.87s-7.72-14.29-33.62-36.91"/><path fill="none" stroke="#3b4573" stroke-linecap="round" stroke-linejoin="round" stroke-width="12" d="m867.73,1394.65s-69.87,15.88-104.8-7.94"/><path fill="#fff" d="m641.3,1528.42l4.6,39.45c1.71,14.67,14,25.82,28.77,26.1,52.38.98,167.72,1.96,184.76-7.98,22.16-12.93,29.55-40.63,29.55-40.63l5.36,41.33,44.83-.93c11.61-36.83,13.03-85.14,8.15-122.48-82.25,74.83-185.52,87.56-306.02,65.14Z"/><path fill="none" stroke="#3b4573" stroke-linecap="round" stroke-linejoin="round" stroke-width="12" d="m734.28,1447.52s42.64,12.54,57.69,40.13"/><path fill="#fff" d="m585.95,567.88c32.59,0,59-26.41,59-59s-26.41-59-59-59-59,26.41-59,59,26.41,59,59,59Z"/><path fill="none" stroke="#3b4573" stroke-linecap="round" stroke-width="12" d="m1050.95,337.88c27.9-104.73,146.56-311.68,398-301.65"/><path fill="none" stroke="#3b4573" stroke-linecap="round" stroke-width="12" d="m1159.95,360.38c29-86.5,158-162.5,289-106.5"/><path fill="#a1abd1" d="m364.07,89.32c1.01-4.59,7.56-4.59,8.57,0,6.13,27.82,27.85,49.54,55.67,55.67,4.59,1.01,4.59,7.56,0,8.57-27.82,6.13-49.54,27.85-55.67,55.67-1.01,4.59-7.56,4.59-8.57,0-6.13-27.82-27.85-49.54-55.67-55.67-4.59-1.01-4.59-7.56,0-8.57,27.82-6.13,49.54-27.85,55.67-55.67Z"/><path fill="#c5cce7" d="m1124.88-.3c.51-2.32,3.81-2.32,4.32,0,3.1,14.05,14.07,25.02,28.12,28.11,2.32.51,2.32,3.82,0,4.33-14.05,3.1-25.02,14.07-28.12,28.12-.51,2.32-3.81,2.32-4.32,0-3.1-14.05-14.07-25.02-28.12-28.12-2.32-.51-2.32-3.82,0-4.33,14.05-3.09,25.02-14.07,28.12-28.11Z"/><path fill="#a1abd1" d="m1328.63,112.36c.64-2.93,4.82-2.93,5.47,0,3.91,17.77,17.79,31.65,35.56,35.57,2.94.65,2.94,4.83,0,5.47-17.77,3.91-31.65,17.79-35.56,35.56-.65,2.93-4.83,2.93-5.47,0-3.92-17.77-17.8-31.65-35.57-35.56-2.93-.65-2.93-4.83,0-5.47,17.77-3.92,31.65-17.79,35.57-35.57Z"/><path fill="none" stroke="#3b4573" stroke-linecap="round" stroke-width="12" d="m794.95,337.88c-27.9-104.73-146.56-311.68-398-301.65"/><path fill="none" stroke="#3b4573" stroke-linecap="round" stroke-width="12" d="m685.95,360.38c-29-86.5-158-162.5-289-106.5"/><path fill="#c5cce7" d="m540.17,1469.95s-45.47-36.83-120.87,19.63c-75.39,56.46-145.07-6.27-145.07-6.27,0,0-11.93,129.69,127.32,143.28,139.25,13.59,185.07-114.85,138.63-156.66v.02Z"/><path fill="none" stroke="#3b4573" stroke-linecap="round" stroke-linejoin="round" stroke-width="12" d="m409.86,1542.07s118.52-4.15,165.77-140.3"/><path fill="#a1abd1" d="m939.7,268.22l-70.54,28.03c-7.92,3.15-16.5.99-20.05-5.02l-118.84-201.53c-4.25-7.2.38-16.9,9.85-20.66l137.5-54.63c9.47-3.76,19.49.12,21.34,8.28l51.88,228.14c1.55,6.81-3.22,14.27-11.13,17.42h0Z"/><path fill="#c5cce7" d="m949.76,264.23l-56.13,22.3c-6.29,2.5-13.52-.19-16.86-6.29l-111.99-204.25c-4-7.3-.87-16.4,6.65-19.4l109.39-43.46c7.54-3,16.06,1.48,18.16,9.54l58.72,225.41c1.75,6.73-1.65,13.65-7.95,16.15h0Z"/><path fill="#a1abd1" d="m963.39,296.28l-76.03,37.64c-6.54,3.24-9.22,11.17-5.98,17.72l17.17,34.68c3.24,6.54,11.17,9.22,17.72,5.98l76.03-37.64c6.55-3.24,9.23-11.17,5.99-17.72l-17.17-34.68c-3.23-6.54-11.17-9.22-17.72-5.98Z"/><path fill="#c5cce7" d="m963.4,296.29l-55.6,27.53c-6.54,3.24-9.22,11.17-5.98,17.72l17.17,34.68c3.24,6.54,11.17,9.22,17.72,5.98l55.6-27.53c6.54-3.24,9.22-11.17,5.99-17.72l-17.17-34.68c-3.24-6.54-11.17-9.22-17.72-5.98Z"/><path fill="#c5cce7" d="m341.8,848s1.34-51.05-78.02-73.34c-79.36-22.29-72.92-103.84-72.92-103.84,0,0-96.41,60.53-31.67,164.22,64.75,103.7,178.32,67.32,182.61,12.95Z"/><path fill="none" stroke="#3b4573" stroke-linecap="round" stroke-linejoin="round" stroke-width="12" d="m222.24,795.4s65.86,80.36,185.52,40.46"/></svg>