<svg xmlns="http://www.w3.org/2000/svg" viewBox="0 0 1080 1080"><g data-name="Connection lost"><path fill="#e65c39" d="M378.21 1014.72s-55.27 42 24 43.25 27.63-38.45 27.63-38.45M565.64 999.1c0 2.4-33.64 38.45 13.22 40.85s100.93 1.2 97.33-9.61-63.69-38.45-63.69-38.45"/><path fill="#5e1776" d="m614.91 977.49-.45.58c-7 9.19-18.68 14-33.72 14-9 0-16.61-1.61-24.73-3.83C546.88 963 524.6 792.9 521.2 766c-25.05-50.1-40.38-88.28-42-92.47l-1.23-.63.1-1.34c-4.61 42.85-31.55 294-38.53 336l-1 .42c-19.18 8.08-51.53 8-68.68-5.21 12.75-267.53-8.73-348.26-9.38-442.22l2.7 1c40.92 14.82 159.37 12.4 200.93-2.75 9.83 43.87 27.84 125.59 35.24 170 4.5 27 5.26 43.32 7.8 97.42 2.13 51.51 7.75 151.17 7.76 151.27Z"/><path fill="#ffc804" d="M451.93 571.43c-23.89 0-80.92-1.31-100.09-15.81 1.32-30.54 1.58-106.28 1.58-136.74 27.77-22.33 46.39-44 83.78-74 5.91.8 11.48.73 16 4.15 7.46 5.63 14.79 12 18.58 8.76 2.91-2.49 2.37-5.95.57-9.33L470 344l4.37 2.65c2.75 1.67 7.71 4.17 10 1.9 2.95-3 1.16-7.61-1-11.22l2-1.9c3.13 2 8.37 4.78 10.81 2 2.58-2.95 1.33-6.66-.77-9.94l-2.6-4c3.83 1.76 7.16 3.63 10.12 3.38a4.73 4.73 0 0 0 4.2-6.13c-1.88-7.85-18.5-19.15-33.14-26.33-19-9.34-60.33 9.86-79.52 19.22-28.56 13.93-59.52 32.34-86.7 48.91-9.08-4.45-22.19-16.37-29.51-23.28 10.5-20.35 29-48.9 51.48-76.41 19.86-24.27 60.16-32.47 91.23-31.44 10.45 13.08 30.34 31.73 46.89 28.26 11-2.3 8.38-23.1 7.75-27.25l-.27-1.72c29.48 1.88 67.54 9.57 91.94 26.21 27.3 18.61 38.46 32.3 42 37.33.26.37.2.22.25.65 2.26 20.68 4.61 43.1 9.62 62.43-4.15 9.75-14.61 19.4-24.15 24.68l-.45-.07-.16.4c-2.5 1.24-7.25 3.41-9.74 2-5.14-3-20.5-15.68-25.09-19.51-.49-.41-.41-.31-.43-.45-.24 1.76 13.75 89.43 8.1 192.85-22.84 11.72-88.13 14.21-115.3 14.21Z"/><path fill="#5e1776" d="M351.84 557.6h-.09a2 2 0 0 1-1.91-2.09c1.56-34.78 1.58-118.49 1.58-119.33a2 2 0 0 1 4 0c0 .84 0 84.64-1.58 119.51a2 2 0 0 1-2 1.91ZM567.21 559.19h-.11a2 2 0 0 1-1.88-2.1C572.64 423.9 547.3 303 547 301.78a2 2 0 0 1 4-.78c.25 1.21 25.7 122.62 18.25 256.35a2 2 0 0 1-2.04 1.84ZM596.91 283a2 2 0 0 1-1.75-1s-4.74-7.7-29-23.45c-18-11.67-41.72-18-58.46-21.28a263.34 263.34 0 0 0-32.47-4.35 2 2 0 0 1 .21-4c2.33.12 57.48 3.29 92.9 26.26 25.46 16.51 30.16 24.51 30.35 24.85a2 2 0 0 1-.76 2.72 2 2 0 0 1-1.02.25Z"/><path fill="#e65c39" d="M886.28 250a49.52 49.52 0 0 0-70.08 0l-27.62-27.63a88.57 88.57 0 0 1 125.33 0Z"/><path fill="#e65c39" d="M943.54 192.74a130.46 130.46 0 0 0-184.6 0l-27.62-27.62a169.49 169.49 0 0 1 239.84 0Z"/><path fill="#e65c39" d="M999.18 137.1a209.11 209.11 0 0 0-295.88 0l-27.62-27.63c97-97 254.08-97 351.12 0Z"/><path fill="#e65c39" d="M810.8 298.17h80.89v26.04H810.8z" transform="rotate(-45 851.262 311.196)"/><path fill="#e65c39" d="M838.22 270.75h26.04v80.89h-26.04z" transform="rotate(-45 851.237 311.186)"/><path fill="#e65c39" d="M259.93 84.65a37.56 37.56 0 0 0-61.87 42.55l11.77-7.56a23.56 23.56 0 0 1 8.4-33.36 23.84 23.84 0 0 1 30.42 6.64 23.56 23.56 0 0 1 1.17 26.24 31.63 31.63 0 0 0 .78 33.28l4.45 6.94 11.76-7.55-4.45-6.94a17.57 17.57 0 0 1-.59-18.47 37.51 37.51 0 0 0-1.84-41.77ZM269 168.19a10.26 10.26 0 1 0 14.18 3.09 10.26 10.26 0 0 0-14.18-3.09Z"/><path fill="#ffc804" d="M225.91 741.05a2 2 0 0 1-1.41-3.41l41.36-41.36a2 2 0 0 1 2.83 2.82l-41.37 41.37a2 2 0 0 1-1.41.58Z"/><path fill="#ffc804" d="M267.27 741.05a2 2 0 0 1-1.41-.58L224.5 699.1a2 2 0 0 1 2.82-2.82l41.37 41.36a2 2 0 0 1-1.42 3.41ZM128.43 333.5a25.89 25.89 0 1 1 25.89-25.89 25.93 25.93 0 0 1-25.89 25.89Zm0-47.78a21.89 21.89 0 1 0 21.89 21.89 21.92 21.92 0 0 0-21.89-21.89ZM759.71 884.33h-56.9a2 2 0 0 1-1.73-3l28.45-49.28a2 2 0 0 1 1.73-1 2 2 0 0 1 1.73 1l28.46 49.28a2 2 0 0 1 0 2 2 2 0 0 1-1.74 1Zm-53.44-4h50l-25-43.28Z"/><path fill="#5e1776" d="M408.31 1015.49c-15.67 0-31-3.89-39.8-11.25a2 2 0 0 1-.71-1.64c9.18-171.14 1.14-278-4.73-356.08-2.59-34.51-4.64-61.76-4.64-86.53a2 2 0 0 1 4 0c0 24.62 2 51.81 4.63 86.23 5.87 78 13.9 184.78 4.79 355.56 14.09 10.87 45.35 12.93 65.85 4.32 7.57-44.07 45.07-397.72 45.45-401.32a2 2 0 0 1 4 .43c-.38 3.62-38.54 363.39-45.68 402.66a2 2 0 0 1-1.15 1.47c-9.38 4.15-20.79 6.15-32.01 6.15Z"/><path fill="#5e1776" d="M575.25 132.92h5.62v34.51h-5.62z" transform="rotate(-14.02 578.123 150.175)"/><path fill="#5e1776" d="M579.57 145.25h31.29v5.62h-31.29z" transform="rotate(-76.46 595.192 148.079)"/><path fill="#5e1776" d="M583.28 132.16h5.62v33.35h-5.62z" transform="rotate(-1.55 586.173 148.783)"/><path fill="#5e1776" d="M479.09 266.06h34.51v5.62h-34.51z" transform="rotate(-69.12 496.364 268.871)"/><path fill="#5e1776" d="M495.98 274.14h31.29v5.62h-31.29z" transform="rotate(-41.56 511.618 276.956)"/><path fill="#5e1776" d="M487.03 269.56h33.35v5.62h-33.35z" transform="rotate(-56.65 503.705 272.363)"/><path fill="#5e1776" d="M586.69 386.78a6 6 0 0 1-3.06-.74 2 2 0 0 1 2-3.46c.55.32 2 .34 4.49-.54 8.25-3 23-14.51 27.22-25.88a2 2 0 1 1 3.74 1.4c-4.73 12.62-20.44 24.95-29.61 28.24a14.47 14.47 0 0 1-4.78.98Z"/><path fill="#59c5d0" d="M681.65 683.26c-2.54-.46-62.6-12.08-89.18-88.32-15.11-43.35-19.88-196.69-21.47-247.07-3.09-99.46-3.43-192.2-3.43-193.12l40-.13c.33 101.69 5 376.65 22.64 427.15 18.59 53.33 57.1 61.83 58.73 62.17l-.24-.05Z"/><path fill="#fff" d="m421.34 154.33-.43 77s25.34 32.76 46.88 28.25c12.46-2.62 7.51-28.7 7.51-28.7l-3.47-35.63Z"/><path fill="#5e1776" d="M463.59 262c-21.22 0-43.27-28.16-44.27-29.45a2 2 0 0 1-.41-1.23l.1-18.58a2 2 0 0 1 2-2 2 2 0 0 1 2 2l-.1 17.86c3.35 4.14 25.86 30.9 44.47 27 8.63-1.81 7.22-19.65 5.95-26.37v-.18l-3.46-35.63a2 2 0 1 1 4-.39l3.46 35.55c.38 2.06 4.87 28-9.08 30.93a22.4 22.4 0 0 1-4.66.49Z"/><path fill="#fff" d="M447.26 198.94c16.16 7.17 34.35 9.76 49.6 6.41 33.7-7.4 25.85-52.51 23.32-81.06-4.14-46.77-38.42-57-71.35-48s-51.83 44.8-42.25 80.07c2.66 9.76 8.2 18.42 15.53 25.7"/><path fill="#5e1776" d="M482.86 208.8a91.08 91.08 0 0 1-36.41-8 2 2 0 0 1 1.62-3.66c16.19 7.19 33.82 9.48 48.37 6.29 29-6.36 25.39-42.19 22.51-71-.27-2.76-.54-5.42-.76-8-1.69-19.09-8.5-32.92-20.24-41.09-12.26-8.54-29.52-10.38-48.6-5.19-31.82 8.66-50.14 43.5-40.84 77.66 2.46 9 7.5 17.35 15 24.8a2 2 0 0 1-2.82 2.84c-8-7.95-13.41-16.9-16.05-26.59-9.87-36.29 9.71-73.33 43.65-82.57 20.24-5.51 38.68-3.46 51.93 5.77 12.76 8.88 20.14 23.69 21.94 44 .22 2.52.49 5.17.76 7.91 2.88 28.77 6.82 68.16-25.64 75.28a67 67 0 0 1-14.42 1.55Z"/><path fill="#5e1776" d="M500.25 168.27h-1a2 2 0 1 1 .37-4c1.1.09 3.71-.1 4.24-1.27.08-.94-2.57-4.16-5.47-6.56a2 2 0 0 1 2.55-3.08c2.56 2.11 8.32 7.45 6.56 11.3-1.43 3.21-5.38 3.61-7.25 3.61ZM483.28 155.37a2 2 0 0 1-2-1.65l-.83-4.71a2 2 0 0 1 3.94-.69l.83 4.71a2 2 0 0 1-1.63 2.31 2 2 0 0 1-.31.03ZM511.18 150.48a2 2 0 0 1-2-1.65l-.82-4.71a2 2 0 1 1 3.94-.69l.82 4.7a2 2 0 0 1-1.62 2.32ZM478.29 147.51a2 2 0 0 1-.8-.16 2 2 0 0 1-1-2.64 7 7 0 0 1 8-4 2 2 0 0 1-.84 3.91 3 3 0 0 0-3.47 1.71 2 2 0 0 1-1.89 1.18ZM504.41 130.56A2 2 0 0 1 503 130a2 2 0 0 1 0-2.83 7 7 0 0 1 8.92-.66 2 2 0 0 1-2.27 3.29 3.05 3.05 0 0 0-3.87.25 2 2 0 0 1-1.37.51ZM491 185.58a2 2 0 0 1-1.52-3.3c.23-.26 5.57-6.41 11.8-5.21a2 2 0 0 1-.76 3.93c-3.25-.63-6.88 2.59-8 3.89a2 2 0 0 1-1.52.69Z"/><path fill="#5e1776" d="M433.79 140.43c-10.59 5-2.46 17.7-4.2 21.81-.82 1.92-8.13-6.68-11.44-8.85-11.57 3 2.85 26.39 2.85 47.65-7.22.53-66.79-55.46-43-80.8-19.8-14.78-6.67-45.73 13.46-40.78-12.27-25.34 18.08-43.55 35.23-25.34-4.48-26.65 33.46-32.66 40.59-12.86-2.78-18.61 31.64-31.47 40.38-1 7.32 25.53 7.52 43.35 9.7 67.17-7.33-6.2-17.12 6.41-27.91 9.24-30 7.86-38.73-6.85-48.9 5.54-3.95 4.79 4.22 13.07-6.76 18.22Z"/><path fill="#5e1776" d="M421 203c-7.26 0-34.93-26.87-45.43-48.83-6.64-13.91-6.77-25.5-.41-33.7-10.26-8.86-10.7-21.69-6.37-30.86 4-8.43 11.36-13.13 19.47-12.69-4.69-13 1.3-23.08 8.35-27.93a23.91 23.91 0 0 1 27.73.33c.2-12 9-18.73 17.3-20.9a26.54 26.54 0 0 1 16.17.75 20 20 0 0 1 7.95 5.51c2.06-7.22 9-12.6 16.34-14.19 9.55-2.07 22.49 1.71 27.5 19.19 6 20.94 7.25 36.59 8.7 54.72.32 4.11.66 8.37 1.07 12.82A2 2 0 0 1 516 109c-3.29-2.79-7.42-.46-13.89 3.58-3.87 2.42-7.87 4.92-12.23 6.06-15 3.94-24.93 2.36-32.16 1.21-7.46-1.2-11.21-1.8-15.69 3.67-.92 1.12-.79 2.69-.5 5.17.48 4.13 1.14 9.79-6.93 13.58-5.35 2.51-4.83 7.19-3.52 13.51.6 2.89 1.11 5.38.31 7.27a2.43 2.43 0 0 1-1.75 1.44c-1.92.4-3.84-1.35-8-5.34-1.37-1.3-2.77-2.65-3.84-3.5a3.09 3.09 0 0 0-1.44 1.27c-1.8 3.05.13 10.42 2.18 18.22 2.08 8 4.45 17 4.45 25.93a2 2 0 0 1-1.85 2ZM387.15 80.93c-7.2 0-12.37 5.29-14.79 10.43-3.86 8.17-3.25 19.77 6.8 27.28a2 2 0 0 1 .8 1.42 2 2 0 0 1-.53 1.55c-5.87 6.26-6.6 15.2-2.16 26.58 8.61 22.1 33.63 45.36 41.65 50-.43-7.55-2.44-15.22-4.24-22.09-2.46-9.37-4.4-16.77-1.76-21.26a7.4 7.4 0 0 1 4.73-3.41 2 2 0 0 1 1.6.27 44.07 44.07 0 0 1 5.16 4.51c1 .93 2.25 2.14 3.3 3.05-.12-.86-.33-1.84-.51-2.72-1.15-5.53-2.88-13.89 5.74-17.94 5.46-2.56 5.11-5.62 4.65-9.5-.31-2.66-.66-5.68 1.39-8.17 5.93-7.24 11.88-6.29 19.41-5.08 6.88 1.09 16.3 2.6 30.52-1.13 3.76-1 7.51-3.32 11.12-5.58 5-3.15 10.22-6.38 15-5.16-.27-3.18-.51-6.25-.75-9.25-1.43-17.91-2.66-33.37-8.55-53.93-4.27-14.8-14.59-18.15-22.83-16.36-7.69 1.66-14.9 8.3-13.68 16.56a2 2 0 0 1-3.86 1c-3.32-9.23-14.2-11.84-22.75-9.6-8.14 2.13-16.09 8.89-14 21.46a2 2 0 0 1-1.09 2.12 2 2 0 0 1-2.34-.42 20.06 20.06 0 0 0-26.38-3.17c-10.14 7-9.36 18.52-5.6 26.27a2 2 0 0 1-2.2 2.74 16.11 16.11 0 0 0-3.85-.47Z"/><path fill="#fff" d="M423.84 182.36c-11.59 14.69-29.64 5.32-34.34-12-2.73-10 4.53-21.51 15-21.26a29.11 29.11 0 0 1 13.67 4.25"/><path fill="#5e1776" d="M410.38 191.64a17.72 17.72 0 0 1-3.59-.37c-8.8-1.79-16.34-9.78-19.22-20.34a20 20 0 0 1 3.6-17.2 16.49 16.49 0 0 1 13.36-6.59 31.24 31.24 0 0 1 14.65 4.53 2 2 0 0 1-2.05 3.44 27.11 27.11 0 0 0-12.7-4 12.33 12.33 0 0 0-10.11 5.05 15.87 15.87 0 0 0-2.89 13.69c2.44 9 8.94 16 16.16 17.47 5.42 1.11 10.63-1.1 14.68-6.23a2 2 0 1 1 3.14 2.48c-4.16 5.3-9.41 8.07-15.03 8.07Z"/><path fill="#5e1776" d="M413.8 179.82a2 2 0 0 1-.89-.21c-5.33-2.66-6.23-6.38-5.29-9 .87-2.41 3.26-3.93 6.16-4.14a6.25 6.25 0 0 0-5.47-4.39c-4.06-.42-8.27 2.16-8.72 3.34a2 2 0 1 1-3.74-1.43c1.34-3.5 7.71-6.42 12.87-5.89 3 .31 8.33 2.06 9.66 10.25a2 2 0 0 1-2.43 2.27c-2.44-.57-4.18.27-4.57 1.34s.52 2.66 3.31 4.05a2 2 0 0 1-.89 3.79Z"/><path fill="#59c5d0" d="M65.06 1038.24c-7.63 0-12.23-.23-13-.27L54.28 998l-1.08 20 1.06-20c.68 0 68.7 3.3 139.44-19.53 91.17-29.39 144.3-86.81 157.75-170.65 10.11-62.81 6.09-114.88 2.19-165.25-3.32-42.93-6.46-83.49-1.32-128.82 10.53-92.83 94.85-200.75 122.56-236.23 3.13-4 6.09-7.79 7-9.09l32.91 22.73c-1.57 2.27-4.13 5.55-8.38 11-26 33.27-105.08 134.51-114.33 216.11-4.71 41.55-1.72 80.26 1.45 121.24 4.08 52.7 8.29 107.19-2.58 174.69-15.95 98.8-80.27 168.94-186.1 202.73-59.22 18.91-115.22 21.31-139.79 21.31Z"/><path fill="#fff" d="M506.3 324.93c-3.64 4.85-12.28-.73-17.23-4.6-1.87-1.73-3.37-2.88-3.62-3.06.22.2 1.61 1.49 3.62 3.06 4.63 4.24 11.51 12 7 17.07s-18.68-8-20.07-9.33c1.34 1.34 14.2 14.49 8.28 20.44-4 4.06-16.17-6.23-19-8.75 2.64 2.45 12.84 12.61 6.5 18.05-3.76 3.22-10.73-2.83-18.58-8.76-3.88-2.92-8-3.27-16-4.13-41.41 33.09-60.8 57.21-93.15 81.2-30.21 22.41-62.67 23.52-76.92.95-18.29-29 13.72-70.87 13.72-70.87l6.07-8.75c4 2.88 13.3 11.26 20.43 15.23 56.46-34.45 138.07-82.34 166.59-68.35 17.93 8.8 37.91 23.2 32.36 30.6Z"/><path fill="#fff" d="M489.07 320.33c-2-1.57-3.4-2.86-3.62-3.06.25.18 1.75 1.33 3.62 3.06Z"/><path fill="#5e1776" d="M307.89 364.54a2.05 2.05 0 0 1-.8-.17c-10.21-4.45-29.46-23-30.28-23.75a2 2 0 0 1-.4-2.33c.17-.34 17.33-34.77 51.71-76.79 20.24-24.73 57.2-30.6 77.43-31.9a2 2 0 1 1 .25 4c-19.58 1.26-55.31 6.88-74.59 30.44-30.33 37.08-47.1 68.1-50.55 74.73 4.21 4 19.78 18.35 28 21.94a2 2 0 0 1-.8 3.84Z"/><path fill="#5e1776" d="M298.63 445.47a45.88 45.88 0 0 1-8.53-.77 36.3 36.3 0 0 1-24.68-16.56c-7.83-12.41-7.89-29.05-.16-48.12a119.27 119.27 0 0 1 14-25 2 2 0 1 1 3.18 2.43c-.31.4-31 41.14-13.63 68.58a32.43 32.43 0 0 0 22 14.77c15.28 2.85 34.23-3.07 52-16.25 16.51-12.25 29.92-24.8 44.12-38.09 13.48-12.61 28.75-26.91 49-43.08a2 2 0 0 1 1.47-.42l.72.07c7.81.83 12.11 1.29 16.31 4.46l2.47 1.88c5.38 4.12 11.47 8.78 13.6 7a3.56 3.56 0 0 0 1.35-2.84c0-3.94-4.82-9.32-7.54-11.9-.37-.33-.69-.62-1-.88a2 2 0 0 1-.14-2.8 2 2 0 0 1 2.8-.18l1 .88c6.31 5.59 14.17 10.29 15.91 8.52a3.34 3.34 0 0 0 1-2.56c0-5-6.75-12.62-9.33-15.14a2 2 0 0 1 2.78-2.88c4.16 4 12.23 10.22 16.12 10.05a1.47 1.47 0 0 0 1.17-.49 3.71 3.71 0 0 0 .93-3c-.37-3.52-4.19-7.88-7.5-11-2.09-1.63-3.59-3-4-3.39a2 2 0 0 1 2.57-3.06 52.9 52.9 0 0 1 4.07 3.43c3.72 2.86 8.73 6 12 5.74a2.61 2.61 0 0 0 2-1.07 2.85 2.85 0 0 0 .42-2.6c-1.46-6.09-14.94-16.61-32.07-25-29.56-14.5-121.46 41.79-176.36 75.42l-9 5.5a2 2 0 1 1-2.09-3.41l9-5.5c59.2-36.26 148.67-91.07 180.21-75.6 11.61 5.69 31.87 17.92 34.2 27.66a6.9 6.9 0 0 1-1.11 5.94 6.64 6.64 0 0 1-4.86 2.66A12.35 12.35 0 0 1 498 328a13.18 13.18 0 0 1 1.56 4.69 7.77 7.77 0 0 1-1.9 6.08 5.5 5.5 0 0 1-4 1.84c-2.23.1-4.88-.91-7.49-2.36a15 15 0 0 1 1.74 6.31 7.29 7.29 0 0 1-2.13 5.41c-2.54 2.56-6.67 1.55-10.77-.62a11.36 11.36 0 0 1 .89 4.17 7.57 7.57 0 0 1-2.75 5.86c-4.58 3.94-11.09-1.05-18.63-6.81-.81-.62-1.62-1.25-2.45-1.87-3.3-2.49-7-2.89-14.23-3.66-19.84 15.81-34.84 29.88-48.15 42.31-14.28 13.37-27.77 26-44.46 38.38-15.53 11.52-32.06 17.74-46.6 17.74Z"/><path fill="#ffc804" d="m740.05 650.51 40 8.09a6 6 0 0 1-2.4 11.85l-40-8.09ZM732.42 688.25l40 8.09a6 6 0 1 1-2.39 11.84l-40-8.09Z"/><path fill="#e65c39" d="M693.16 635.34h50.44v69.37h-50.44a18.93 18.93 0 0 1-18.93-18.93v-31.5a18.93 18.93 0 0 1 18.93-18.94Z" transform="rotate(11.42 709.086 670.212)"/><path fill="#fff" d="M610.44 181.47c-15.31-6.46-46.59-5.41-47.12 3.83-.35 6 9.79 7.35 16.08 7.6 2.81-.13 4.84 0 4.84 0s-2 .11-4.84 0c-6.29.26-16.46 1.75-16.34 8.5s18.72 5.95 21.23 5.83c-2.44.22-20 2.06-19.38 10.27.45 5.54 15.51 5.65 19.83 5.58-4.08.23-17.57 1.59-16.27 9.6.79 4.88 7.56 5.29 12.6 5.29 4.86 0 13.56 7.87 22.17 7.18C610 289 611.12 327 619.15 357.56l-7.25 10.86s-.57 29 1 30.24c17.94 13.32 35.08 16.81 51.67 8.22 53.88-27.88-21.41-211.57-54.13-225.41Zm-25.13 41.59Z"/><path fill="#fff" d="M584.24 192.89s-2 .11-4.84 0c2.81-.12 4.84 0 4.84 0ZM585.71 223.05Z"/><path fill="#e65c39" d="M727.01 633.73h16.06v83.14h-16.06z" transform="rotate(11.42 735.22 675.478)"/><path fill="#5e1776" d="M646.05 413.59c-10.9 0-22.25-4.43-34.31-13.33a2 2 0 0 1 2.37-3.22c18.07 13.33 34.29 16 49.58 8.06 12.72-6.59 18.66-22.91 17.66-48.5-1.12-28.86-11.69-68.93-28.28-107.19-15.15-35-32.6-61.53-43.41-66.1-12.42-5.24-36.58-5.22-43.09 0-1.33 1.07-1.36 1.94-1.24 2.58a1 1 0 0 1 0 .24 3.16 3.16 0 0 0 .26.68.26.26 0 0 1 0 .09c1.27 2.27 6.91 3.62 12.87 4a8.72 8.72 0 0 1 .89 0c1.09-.07 3.65-.07 4.93 0a2 2 0 0 1 0 4c-.24 0-2.24.11-5 0H579c-2.33 0-11.09.94-13.3 4.35a5 5 0 0 0-.3.56 2.84 2.84 0 0 0-.17 2.1 4.38 4.38 0 0 0 2.43 1.73A24.88 24.88 0 0 0 574 205a71.65 71.65 0 0 0 10.15.26h.19a2 2 0 0 1 0 4 75.88 75.88 0 0 1-10.75-.27 29.76 29.76 0 0 1-7.39-1.62 7.62 7.62 0 0 1-4.62-3.81 6.63 6.63 0 0 1 .1-5.22 6.07 6.07 0 0 1 .7-1.31 11.27 11.27 0 0 1 5.43-4c-2.45-.9-4.5-2.2-5.56-4.07a6.62 6.62 0 0 1 1.86-8.69c8.28-6.67 34.41-6 47.15-.59 25.37 10.73 71.66 113 74.14 176.81 1.06 27.28-5.61 44.85-19.82 52.22a42 42 0 0 1-19.53 4.88Z"/><path fill="#5e1776" d="M583 225.08c-1.6 0-3.4 0-4.83-.16-9.9-.63-14.9-3-15.26-7.25-.72-8.89 13.13-11.62 21.46-12.45a2 2 0 1 1 .39 4c-8.47.85-18.24 3.49-17.86 8.14.09 1.06 2.63 3 11.56 3.59 2.31.2 5.73.15 7.1.12h.15a2 2 0 0 1 0 4c-.71 0-1.71.01-2.71.01Z"/><path fill="#5e1776" d="M622.05 369.29a2 2 0 0 1-1.9-1.36c-7-20.92-9.65-45.07-12.7-73-1.65-15.14-3.36-30.78-5.93-47.71-5-.19-9.75-2.6-13.69-4.58-2.69-1.35-5.24-2.63-6.76-2.63-4 0-14.69 0-14.69-8.35 0-3.12 1.91-5.87 5.25-7.54 3.6-2 10-3 14.26-3a2 2 0 0 1 0 4c-3.69 0-9.48 1-12.41 2.59-1.2.6-3.1 1.87-3.1 4 0 3.09 3.09 4.35 10.69 4.35 2.47 0 5.29 1.42 8.56 3.06 4.19 2.1 8.93 4.49 13.45 4.13a2 2 0 0 1 2.13 1.68c2.73 17.69 4.5 33.92 6.22 49.61 3 27.74 5.64 51.7 12.51 72.2a2 2 0 0 1-1.26 2.54 2 2 0 0 1-.63.01Z"/><path fill="#e65c39" d="M576.71 125a2 2 0 0 1-1.44-.62l-16.37-17.14a2 2 0 0 1 .71-3.24l14.29-5.7-10.74-16.42a2 2 0 1 1 3.35-2.19l12.08 18.47a2 2 0 0 1 .23 1.7 2 2 0 0 1-1.17 1.25l-13.81 5.51 14.32 15a2 2 0 0 1-.07 2.83 2 2 0 0 1-1.38.55ZM596.34 124.9h-.06a2 2 0 0 1-1.94-2.06l.67-23.7a2 2 0 0 1 .93-1.63 2 2 0 0 1 1.87-.15l14.1 6.15L616 84.32a2 2 0 1 1 3.91.83l-4.62 21.59a2 2 0 0 1-2.76 1.41l-13.63-5.94-.56 20.79a2 2 0 0 1-2 1.9Z"/><path fill="#5e1776" d="M580.7 994.1a90.67 90.67 0 0 1-25.23-3.9 2 2 0 0 1-1.28-1.13c-6.52-15.22-24.69-141.62-34.94-222.48-26.08-52.19-41.82-92-42-92.37a2 2 0 1 1 3.73-1.47c.15.4 15.89 40.18 42 92.36a2.05 2.05 0 0 1 .19.64c10.44 82.32 28 203.12 34.36 220.88 24.74 7 45.3 3.35 55.34-9.77-4-71.21-6.21-117.07-7.78-150.59-2.54-54-3.3-70.37-7.77-97.19-9-54-34.57-167-34.83-168.1a2 2 0 0 1 3.9-.88c.26 1.13 25.84 114.17 34.87 168.32 4.51 27.06 5.28 43.43 7.82 97.66 1.58 33.62 3.75 79.68 7.82 151.28a2 2 0 0 1-.37 1.29c-7.4 10.16-20.08 15.45-35.83 15.45ZM405.75 1060h-3.54c-26.53-.4-41-5.27-44.13-14.89-4.56-13.89 17.95-31.22 18.91-31.95a2 2 0 1 1 2.43 3.18c-5.92 4.5-20.59 18.23-17.53 27.52 1.74 5.29 10.15 11.69 40.38 12.14 31.31.48 40-5.43 41.74-10.48 2.83-8.14-10.12-20.36-15.36-24.38a2 2 0 0 1 2.44-3.17c.86.66 21.06 16.34 16.7 28.86-3.09 8.84-16.85 13.17-42.04 13.17Z"/><path fill="#5e1776" d="M617.91 1043c-16 0-31.12-.64-39.15-1-13.62-.7-22.15-4.35-25.37-10.85-5-10 4.19-23.4 8.59-29.82.7-1 1.49-2.17 1.71-2.6a2 2 0 0 1 4 .42c0 1-.6 1.86-2.37 4.44-4 5.79-12.23 17.85-8.3 25.78 2.52 5.11 9.92 8 22 8.63 51.34 2.64 90.46.18 95.14-6a1 1 0 0 0 .19-1c-2.43-7.28-39.7-26.72-62.62-37.26a2 2 0 0 1 1.67-3.64c6.23 2.87 61 28.33 64.74 39.64a4.87 4.87 0 0 1-.8 4.69c-5.34 6.91-33.62 8.57-59.43 8.57Zm-54.26-43.91Z"/><path fill="#fff" d="M479.2 680h-.29a2 2 0 0 1-1.69-2.26c3.51-24.6 4.72-30 7.66-43.06.42-1.85.87-3.86 1.36-6.09a2 2 0 0 1 3.91.86c-.5 2.24-.95 4.25-1.37 6.1-2.91 13-4.11 18.31-7.6 42.75a2 2 0 0 1-1.98 1.7Z"/><path fill="#5e1776" d="M611.89 370.42a2 2 0 0 1-1.07-.31 2 2 0 0 1-.61-2.77l7.18-11.18a2 2 0 0 1 3.36 2.16l-7.17 11.18a2 2 0 0 1-1.69.92Z"/></g></svg>