<svg xmlns="http://www.w3.org/2000/svg" viewBox="0 0 2000 2000"><circle cx="1000.72" cy="997.46" r="800" fill="#e6e9f6"/><path fill="#6d7aa7" d="m463.3,1590.07c142.02,128.87,330.55,207.39,537.42,207.39s395.41-78.53,537.42-207.39H463.3Z"/><path fill="#6d7aa7" d="m1610.32,1221.37c-125.4,0-227.06,95.35-227.06,212.98,0,80.66,47.8,150.84,118.28,186.99,113.48-91.22,201.54-212.76,251.9-352.32-39.06-29.78-88.86-47.64-143.12-47.64Z"/><path fill="none" stroke="#3b4573" stroke-linecap="round" stroke-linejoin="round" stroke-width="12" d="m1592.69,1294.36s6.84,147.54,6.08,168.84l56.28-49.43"/><path fill="none" stroke="#3b4573" stroke-linecap="round" stroke-linejoin="round" stroke-width="12" d="m1532.61,1371.17s49.43,28.14,65.4,54"/><path fill="none" stroke="#3b4573" stroke-linecap="round" stroke-linejoin="round" stroke-width="12" d="m771.22,363.31c-26.24-39.36-3.53-133.67,55.39-117.73,58.92,15.95,22.6,85.55,5.67,97.16-16.93,11.61-40.56-7.58-18.24-55.55,22.32-47.98,64.38-38.4,76.21-29.57,11.83,8.83,16.7,44.78-.5,49.31-17.2,4.52-27.49-49.14,15.57-50.72,43.06-1.58,33.57,35.73,33.57,35.73"/><path fill="none" stroke="#3b4573" stroke-linecap="round" stroke-linejoin="round" stroke-width="12" d="m405.98,209.39c47.27-1.58,107.1-80.27,40.85-109.05-52.6-22.86-82.25,32.62-81.54,53.14.71,20.52,30.18,28.14,55.53-18.31,25.35-46.45-7.34-74.6-21.46-78.88-14.13-4.27-45.95,13.16-39.38,29.68,6.58,16.53,55.86-7.06,31.56-42.65s-48.68-5.79-48.68-5.79"/><rect width="38.11" height="518.72" x="654.3" y="1107.95" fill="#6d7aa7"/><rect width="38.11" height="518.72" x="1213.58" y="1107.95" fill="#6d7aa7"/><polygon fill="#c3cae5" points="782.15 1172.54 758.1 1232.97 738.17 1172.54 588.84 1172.54 588.84 1347.42 1319.81 1347.42 1319.81 1172.54 782.15 1172.54"/><rect width="730.97" height="88.06" x="588.84" y="1259.36" fill="#c3cae5"/><line x1="1320.21" x2="589.24" y1="1263.74" y2="1263.74" fill="none" stroke="#3b4573" stroke-linecap="round" stroke-linejoin="round" stroke-width="12"/><line x1="699.96" x2="778.72" y1="1293.95" y2="1293.95" fill="none" stroke="#3b4573" stroke-linecap="round" stroke-linejoin="round" stroke-width="12"/><line x1="700.64" x2="739.34" y1="1316.35" y2="1316.35" fill="none" stroke="#3b4573" stroke-linecap="round" stroke-linejoin="round" stroke-width="12"/><line x1="790.26" x2="879.88" y1="1224.7" y2="1224.7" fill="none" stroke="#3b4573" stroke-linecap="round" stroke-linejoin="round" stroke-width="12"/><circle cx="639.53" cy="1218.64" r="11.2" fill="#fff" stroke="#fff" stroke-miterlimit="10" stroke-width="12"/><circle cx="639.53" cy="1301.47" r="11.2" fill="#fff" stroke="#fff" stroke-miterlimit="10" stroke-width="12"/><circle cx="1240.48" cy="1221.77" r="11.2" fill="#fff" stroke="#fff" stroke-miterlimit="10" stroke-width="12"/><circle cx="1240.48" cy="1304.6" r="11.2" fill="#fff" stroke="#fff" stroke-miterlimit="10" stroke-width="12"/><line x1="954.54" x2="1027.67" y1="1295.64" y2="1295.64" fill="none" stroke="#3b4573" stroke-linecap="round" stroke-linejoin="round" stroke-width="12"/><line x1="1111.79" x2="1029.61" y1="1317.65" y2="1317.65" fill="none" stroke="#3b4573" stroke-linecap="round" stroke-linejoin="round" stroke-width="12"/><rect width="79.13" height="26.38" x="636.72" y="1485.96" fill="#3b4573"/><rect width="79.13" height="26.38" x="1206.71" y="1485.96" fill="#3b4573"/><rect width="724.84" height="50.88" x="594" y="1441.81" fill="#c3cae5"/><g><path fill="#3b4573" d="m435.05,1563.16l-18.36-612.83-41.24-1.47-16.08,526.88c23.11,30.95,48.41,60.16,75.67,87.42Z"/><rect width="81.68" height="25.69" x="354.37" y="927.47" fill="#6d7aa7" rx="12.85" ry="12.85"/><ellipse cx="393.2" cy="802.84" fill="#fff" rx="57.24" ry="40.55"/><path fill="#c3cae5" d="m337.84,826.44l29.38,101.03h55.99l28.86-98.7s-44.29-19.43-114.23-2.33Z"/><path fill="#fff" d="m386.29,927.47h21.49l11.52-106.52c-12.26-1.55-27.68-2.25-45.73-.56l12.72,107.08Z"/><path fill="#6d7aa7" d="m318.11,833.85l-4.36-17.51s77.12-38.66,153.28-2.92l-3.18,19.07c-17.25-8.17-76.27-24.52-142.1,2.72"/></g><g><path fill="#9fa9cf" d="m1328.93,1521.7c-47.95,17.54-16.37,50.29-15.2,71.34,1.17,21.05-40.93,91.22-79.53,100.58-30.61,7.42-46.5,61.17-51.77,83.11,188.81-43.85,351.98-154.56,463.21-305.82-38.95-1.52-91.88-12.79-116.72-14.7-30.41-2.34-152.04,47.95-199.99,65.49Z"/><path fill="none" stroke="#3b4573" stroke-linecap="round" stroke-linejoin="round" stroke-width="12" d="m1496.31,1569s-128.75,43.75-181.26,36.25"/><path fill="none" stroke="#3b4573" stroke-linecap="round" stroke-linejoin="round" stroke-width="12" d="m1318.81,1690.25s-15.47,8-84.61,3.37"/></g><g><polygon fill="#9fa9cf" points="1629.41 805.31 1593.66 1094.1 1164.91 947.52 1175.45 653.14 1629.41 805.31"/><path fill="#c3cae5" d="m1590.31,576.37c43.33,47.01,79.94,127.99,75.9,205.42-111.05-28.21-292.14-99.21-493.29-163.79,0,0,30.46-132.11-93.52-227.66l395.36,114.53c44.32,12.84,84.27,37.57,115.54,71.5Z"/><path fill="#3b4573" d="m786.63,950.37l28.66-417.23c6.46-94.04,93.7-165.59,195.25-160.15h0c100.7,5.4,178.15,84.55,174.1,177.92l-17.66,406.57-380.35-7.12Z"/><path fill="#c3cae5" d="m829.04,877.17l21.03-330.39c4.74-74.47,68.73-131.13,143.23-126.82h0c73.87,4.28,130.69,66.96,127.71,140.89l-12.96,321.96-279-5.64Z"/><path fill="#fff" stroke="#fff" stroke-miterlimit="10" stroke-width="12" d="m1040.7,573.42c5.45,1.76,10.36,4.24,14.58,7.21,8.02-8.79,13.23-22.98,13.23-38.98,0-26.69-14.47-48.33-32.32-48.33s-32.32,21.64-32.32,48.33c0,11.74,2.8,22.5,7.46,30.88,8.46-2.58,18.9-2.48,29.38.9Z"/><path fill="none" stroke="#3b4573" stroke-linecap="round" stroke-linejoin="round" stroke-width="12" d="m1022.91,472.22s24.47,36.34,65.26,36.34"/><path fill="#3b4573" d="m1040.7,573.42c1.67.54,3.28,1.15,4.84,1.82,1.06-5.46,1.65-11.47,1.65-17.79s-.62-12.6-1.73-18.15l-19.53-.25,14.79-14.5c-3.65-7.55-8.56-12.18-13.95-12.18-11.28,0-20.42,20.19-20.42,45.09,0,5.78.5,11.29,1.39,16.37,8.98-3.84,20.95-4.28,32.95-.4Z"/><path fill="#fff" stroke="#fff" stroke-miterlimit="10" stroke-width="12" d="m947.52,560.96c5.45,1.76,10.36,4.24,14.58,7.21,8.02-8.79,13.23-22.98,13.23-38.98,0-26.69-14.47-48.33-32.32-48.33s-32.32,21.64-32.32,48.33c0,11.74,2.8,22.5,7.46,30.88,8.46-2.58,18.9-2.48,29.38.9Z"/><path fill="#3b4573" d="m947.52,560.96c1.67.54,3.28,1.15,4.84,1.82,1.06-5.46,1.65-11.47,1.65-17.79s-.62-12.6-1.73-18.15l-19.53-.25,14.79-14.5c-3.65-7.55-8.56-12.18-13.95-12.18-11.28,0-20.42,20.19-20.42,45.09,0,5.78.5,11.29,1.39,16.37,8.98-3.84,20.95-4.28,32.95-.4Z"/><path fill="none" stroke="#3b4573" stroke-linecap="round" stroke-linejoin="round" stroke-width="12" d="m960.85,456.51s-24.47,36.34-65.26,36.34"/><circle cx="980.3" cy="645.4" r="70.72" fill="#3b4573"/><path fill="#9fa9cf" d="m895.53,1723.18c-44.62-31.5-98.43,11.81-98.43,11.81,0,0,1.31-40.69-42-49.87-43.31-9.19-65.62,11.81-65.62,11.81,0,0,47.25-89.24-18.37-139.12s-127.31,7.87-127.31,7.87c0,0,1.31-52.5-56.43-61.68-34-5.41-59.04,17.21-73.89,36.72,129.88,140.33,309.44,234.01,510.73,253.11,2.09-19.65-.14-50.52-28.68-70.66Z"/><path fill="none" stroke="#fff" stroke-linecap="round" stroke-linejoin="round" stroke-width="12" d="m593.41,284.09s100.08-53.47,95.97,32.9c-4.11,86.37-47.98,157.66-104.19,124.76-56.21-32.9,72.66-137.1,143.95-64.44s6.74,140.16-42.62,147.01c-49.36,6.85-73.98-70.46-10.92-82.8,63.06-12.34,122.24,1.59,141.28,57.8,13.4,39.55-2.98,105.07-52.11,103.25s-62.78-62.78,5.5-88.17c89.77-33.37,111.53,31.65,120.98,58.14,18.54,52-14.56,112.83-62.78,87.35s11.27-113.46,92.61-96.14c71.17,15.15,81.55,85.18,58.91,106.71-22.64,21.54-45.97,9.99-45.97-10.58s23.97-55.32,69.32-41.3,38,61.2,19.72,81.69"/><path fill="#3b4573" d="m1079.14,1245.13c-7.19,33.52-14.95,68.46-13.9,81.86l60.41,17.86,15.47,40.78,37.97-7.73,11.95,11.95-66.1,33.05-36.56-14.77-41.49,48.52s64.69,36.56,115.32,33.05c50.63-3.52,41.49-41.49,41.49-41.49l21.07-146.61-145.63-56.47Z"/><polygon fill="#6d7aa7" points="1593.66 1094.1 1164.91 947.52 783.81 930.71 789.75 1015.55 1187.96 1085.46 1593.66 1094.1"/><polygon fill="#9fa9cf" points="1109.69 1271.11 1120.37 1331.3 1148.53 1293.44 1155.32 1365.28 1164.21 1360.63 1216.54 1022.66 1116.53 1015.7 1069.25 1291.33 1109.69 1271.11"/><path fill="#3b4573" d="m1152.61,1336.57l2.72,28.71,40.78-21.36s2.91,57.28,1.94,73.79c-.97,16.5-49.6,44.73-49.6,44.73l-10.59-30.17-.68.49-13.58,355.32c26.93-4.15,53.42-9.65,79.4-16.42l5.52-327.94,64.46-362.04-56.43-59.02-63.93,313.91Z"/><path fill="#9fa9cf" d="m1093.19,1464.31l-14.56-27.18-27.67,19.98-13.58,339.52c33.02-1.49,65.52-4.98,97.38-10.35l13.68-323.83-10.59-30.17-44.66,32.04Z"/><path fill="#c3cae5" d="m783.81,930.71l381.09,16.81,46.7,9.34s14.94,28.02-14.94,44.83l-344.99,69.68-299.51-27.44s-33.32-25.75,4.54-48.46l227.11-64.77Z"/><path fill="#6d7aa7" d="m843.31,1015.69l-272.95-24.11-13.66,3.9c-37.86,22.72-4.54,48.46-4.54,48.46l299.51,27.44c-31.1-19.86-8.36-55.68-8.36-55.68Z"/><path fill="#3b4573" d="m1196.67,1001.7c29.89-16.81,14.94-44.83,14.94-44.83l-46.7-9.34-5.11-.23-316.49,68.4s-22.36,29.45-2.32,54.71l10.67.98,345-69.68Z"/><rect width="55.95" height="129.63" x="1172.67" y="870.63" fill="#c3cae5" rx="27.98" ry="27.98" transform="rotate(2.31 1199.805 934.72)"/><polyline fill="#6d7aa7" points="1666.21 781.8 1629.41 805.31 1122.13 636.21 1184.13 620.71"/><circle cx="1321.83" cy="809.77" r="43.81" fill="#c3cae5"/><path fill="#3b4573" d="m1470.58,322.17l109.73-46.68-243.4-36.89,1.83,124.51.43.07v391.61c-.67,19.22-10.86,22.63-24.65,26.27-8.39,2.22-17.01,13.89-13.6,27.61,1.85,7.42,12.33,17.73,23.77,16.45,0,0,4.88,1.52,30.16-9.45s37.92-27.2,37.92-50.49v-393.66l171.98,26.79-94.17-76.15Z"/><polygon fill="#3b4573" points="1010.03 1354.62 1041.14 1326.63 1060.84 1375.36 1087.79 1377.43 1046.32 1395.06 1010.03 1354.62"/><polygon fill="#3b4573" points="974.78 1458.3 1032.84 1415.79 1034.92 1454.15 1022.48 1502.88 974.78 1458.3"/></g><g><path fill="#c3cae5" d="m426.56,351.28l17.03-59.62s-96.62,37.84-181.42,34.06c-11.16-.5-20.24,8.87-19.36,20h0c.67,8.49,7.03,15.45,15.43,16.85,29.57,4.93,100.33,12.57,168.33-11.3Z"/><path fill="#3b4573" d="m684.93,692.71c-24,57.62-161.13,55.31-306.3-5.15-145.17-60.46-242.39-156.18-218.39-213.8,24-57.62,160.13-55.31,305.3,5.15,145.17,60.46,243.39,156.18,219.39,213.8Z"/><ellipse cx="494.29" cy="640.25" fill="#fff" rx="103.61" ry="101.23"/><ellipse cx="650.02" cy="189.81" fill="#3b4573" rx="60.11" ry="53.12" transform="rotate(-65.61 650.023 189.808)"/><path fill="#9fa9cf" d="m156.87,496.1c-1.19-20.76,7.06-46.1,45.64-63.1,75.69-33.35,69.27-10.26,125.72-62.86,56.45-52.6,61.58-155.23,201.41-189.86,139.83-34.64,205.76,92.18,193.71,189.86-8.58,69.55-59.01,171.9-59.01,216.8s35.92,110.33-11.55,142.4c0,0-57.73-174.47-433.61-224.5l-62.32-8.74Z"/><path fill="#6d7aa7" d="m156.87,496.1l62.32,8.74c375.88,50.03,433.61,224.5,433.61,224.5,41.77-28.22,18.97-82.27,12.9-125.44-157.53-155.31-331.14-185.63-406.48-191.18-12.75,3.55-29.37,8.23-56.71,20.27-38.59,17.01-46.83,42.35-45.64,63.1Z"/><path fill="none" stroke="#3b4573" stroke-linecap="round" stroke-linejoin="round" stroke-width="12" d="m609.67,238.12s16.98-1.5,23.97,12.49"/><path fill="none" stroke="#3b4573" stroke-linecap="round" stroke-linejoin="round" stroke-width="12" d="m540.25,215.65s-3-7.99-22.97-8.99"/><ellipse cx="480.3" cy="273.13" fill="#fff" stroke="#fff" stroke-miterlimit="10" stroke-width="12" rx="58.18" ry="40.6" transform="rotate(-55.38 480.307 273.13)"/><path fill="none" stroke="#3b4573" stroke-linecap="round" stroke-linejoin="round" stroke-width="12" d="m494.18,239.26c-13.88-9.58-35.66-2.45-50.5,15.82-13.96,23.63-13.82,50.18.32,63.32,12.76,10.95,36.74-1.99,50.46-21.87,14.74-21.35,14.61-46.99-.29-57.27Z"/><path fill="none" stroke="#3b4573" stroke-linecap="round" stroke-linejoin="round" stroke-width="12" d="m477.05,289.32c8.22-11.9,8.15-26.2-.16-31.94-8.31-5.74-21.7-.73-29.92,11.17-8.22,11.9-8.15,26.2.16,31.94,8.31,5.73,21.7.73,29.92-11.17Z"/><path fill="#c3cae5" d="m634.55,404.36h0c14.04-.74,26.35,9.32,28.42,23.22l30.82,206.8c1.74,11.68-6.2,22.6-17.85,24.54h0c-11.49,1.91-22.43-5.6-24.76-17.01l-41.92-204.84c-3.34-16.34,8.63-31.84,25.29-32.71Z"/><path fill="#6d7aa7" d="m635.05,682.68c-13.37-8.34-13.23-27.88.21-36.11,20.1-12.31,59.16-31.18,88.92-14.51,41.86,23.44,14.25,40.5,14.25,40.5l101.23,36.03c9.11,3.24,15.3,11.75,15.56,21.42h0c.32,11.63-7.94,21.71-19.39,23.73-17.7,3.13-43.54,5.98-61.91.65,0,0-3.24,142.59-55.38,169.66s-40.92-42.9-40.92-42.9c0,0-33,34.98-64.68,23.1-31.68-11.88-13.86-46.2-13.86-46.2,0,0-51.48-3.96-51.48-20.46s37.62-27.72,58.08-50.16c20.46-22.44,43.88-71.42,42.4-89.5-.67-8.13-6.83-11.37-13.04-15.25Z"/><path fill="none" stroke="#3b4573" stroke-linecap="round" stroke-linejoin="round" stroke-width="12" d="m643.34,721.31c3.36-9.57,5.2-17.89,4.75-23.38-.67-8.13-6.83-11.37-13.04-15.25-13.37-8.34-13.23-27.88.21-36.11,20.1-12.31,59.16-31.18,88.92-14.51,41.86,23.44,14.25,40.5,14.25,40.5"/><path fill="none" stroke="#3b4573" stroke-linecap="round" stroke-linejoin="round" stroke-width="12" d="m665.99,790.21s-39.33,62.68-69.55,67.56"/><path fill="none" stroke="#3b4573" stroke-linecap="round" stroke-linejoin="round" stroke-width="12" d="m718.06,809.44s-24.56,63.19-40.43,71.71"/><path fill="none" stroke="#3b4573" stroke-linecap="round" stroke-linejoin="round" stroke-width="12" d="m665.99,790.21s46.45,9.85,69.44-1.88"/><path fill="none" stroke="#3b4573" stroke-linecap="round" stroke-linejoin="round" stroke-width="12" d="m689.96,667.34s35.89-1.87,48.47,5.22"/><g><path fill="#6d7aa7" d="m230.7,317.82c-6.57-5.76-15.89-10.51-29.09-12.37-41.39-5.82-38.52,1.09-101.1-14.51-7.88-1.96-16.07,1.75-19.76,8.98l-.02.03c-4.95,9.69.08,21.49,10.49,24.63l23.46,7.08s-82.79,33.12-73.13,82.1c0,0,5.84,17.71,26.31,1.19,0,0-3.23,31.96,34.12,12.57,0,0-1.38,29.04,22.21,22.06,28.18-8.34,62.91-53.3,62.91-53.3,0,0,41.3,14.37,61.77-18.68,0,0,10.42,15.08,19.39,4.67,8.98-10.42-4.67-47.77-4.67-47.77,0,0,7.18-25.86-14.73-24.06-21.91,1.8-18.17,7.37-18.17,7.37Z"/><path fill="none" stroke="#3b4573" stroke-linecap="round" stroke-linejoin="round" stroke-width="12" d="m246.45,350.3s-3.47-16.56-12.75-28.87"/><path fill="none" stroke="#3b4573" stroke-linecap="round" stroke-linejoin="round" stroke-width="12" d="m67.86,414.96s13.4-30.88,64.5-56.17"/><path fill="none" stroke="#3b4573" stroke-linecap="round" stroke-linejoin="round" stroke-width="12" d="m101.98,427.53s17.21-33.97,60.41-51.88"/><path fill="none" stroke="#3b4573" stroke-linecap="round" stroke-linejoin="round" stroke-width="12" d="m120.24,345.62s46.89,25.81,56.37,33.19"/><line x1="135.99" x2="108.9" y1="336.44" y2="330.15" fill="none" stroke="#3b4573" stroke-linecap="round" stroke-linejoin="round" stroke-width="12"/></g><path fill="#fff" stroke="#3b4573" stroke-linecap="round" stroke-linejoin="round" stroke-width="12" d="m400.11,414.79l22.89-36.04c12.42-19.56,37.13-27.32,58.51-18.38h0c24.96,10.44,36.2,39.56,24.73,64.06l-14.51,30.98-91.62-40.62Z"/><path fill="#3b4573" d="m456.72,405.51c-20.38-5.42-40.3.03-49.72,12.33l84.74,37.56.25-.54c.44-1.07.82-2.18,1.12-3.32,4.99-18.75-11.31-39.36-36.39-46.03Z"/><ellipse cx="580.81" cy="311.23" fill="#fff" stroke="#fff" stroke-miterlimit="10" stroke-width="12" rx="62.03" ry="43.29" transform="rotate(-55.38 580.818 311.235)"/><path fill="none" stroke="#3b4573" stroke-linecap="round" stroke-linejoin="round" stroke-width="12" d="m596.97,274.79c-15.55-10.74-40.63-1.37-56.02,20.91-2.19,3.17-4.05,6.43-5.61,9.72-5.76,15.41-6.13,30.83-1.16,42.55,1.83,2.97,4.18,5.53,7.08,7.52,15.55,10.74,40.63,1.37,56.02-20.91,15.39-22.29,15.25-49.06-.3-59.8Z"/><ellipse cx="562.85" cy="314.41" fill="none" stroke="#3b4573" stroke-linecap="round" stroke-linejoin="round" stroke-width="12" rx="30.33" ry="21.17" transform="rotate(-55.38 562.856 314.41)"/></g></svg>