<svg xmlns="http://www.w3.org/2000/svg" viewBox="0 0 2000 2000"><circle cx="1004.57" cy="998.95" r="800" fill="#e6e9f6"/><path fill="#6d7aa7" d="m360.03,1472.9c145.65,197.74,380.11,326.04,644.54,326.04s498.89-128.3,644.54-326.04H360.03Z"/><path fill="#3b4573" d="m1325.47,1508.83c-5.14.07-10.24-2.11-13.65-6.34-5.77-7.18-4.46-17.54,2.94-23.15.78-.59,50.51-38.83,113.23-116.48,36.91-45.7,71.04-95.93,101.44-149.27,37.99-66.66,70.22-138.43,95.81-213.3,2.95-8.65,12.58-13.34,21.49-10.48,8.91,2.86,13.74,12.19,10.79,20.84-26.35,77.1-59.59,151.02-98.8,219.69-31.39,55-66.67,106.78-104.84,153.91-65.31,80.64-116.07,119.46-118.2,121.07-3.04,2.3-6.64,3.45-10.22,3.5Z"/><rect width="354.06" height="38.21" x="1166.84" y="1380.68" fill="#9fa9cf" rx="17.62" ry="17.62" transform="rotate(48.44 1343.922 1399.913)"/><path fill="#9fa9cf" d="m1513.28,1501.63l-209.52-236.35c-7-7.9,26.69-24.84,33.68-16.95l204.43,227.95c7,7.9,6.27,19.97-1.62,26.97h0c-7.9,7-19.97,6.27-26.97-1.62Z"/><polygon fill="#c3cae5" points="1596.02 960.5 1674.48 968.77 1642.23 1053.19 1563.77 1051.54 1596.02 960.5"/><rect width="354.06" height="38.21" x="1205.51" y="1241.31" fill="#c3cae5" rx="17.62" ry="17.62"/><path fill="#3b4573" d="m1234.21,1526.95c-5.71,0-11.35-2.5-15.07-7.25-6.31-8.07-4.68-19.56,3.63-25.68.87-.65,56.74-42.39,127.65-127.73,41.73-50.23,80.44-105.53,115.05-164.36,43.25-73.51,80.18-152.79,109.78-235.62,3.42-9.57,14.19-14.64,24.05-11.32,9.86,3.32,15.09,13.76,11.67,23.33-30.48,85.3-68.56,166.95-113.19,242.68-35.74,60.65-75.75,117.66-118.9,169.47-73.83,88.63-130.86,131-133.25,132.76-3.42,2.51-7.43,3.73-11.41,3.73Z"/><rect width="43.84" height="343.79" x="544.57" y="621.9" fill="#c3cae5"/><rect width="43.84" height="346.02" x="825.37" y="638.5" fill="#c3cae5"/><polygon fill="#3b4573" points="1129.93 609.63 1237.13 579.48 894.04 579.33 890.43 613.94 1129.93 609.63"/><polygon fill="#c3cae5" points="1129.93 609.63 786.14 609.63 786.14 638.6 1085.74 638.6 1085.74 979.78 1129.58 979.78 1129.58 638.6 1129.93 638.6 1129.93 609.63"/><rect width="728.93" height="73.15" x="508.19" y="506.33" fill="#6d7aa7"/><rect width="728.93" height="73.15" x="492.52" y="949.87" fill="#3b4573"/><rect width="390.42" height="59.48" x="508.19" y="579.48" fill="#c3cae5"/><path fill="#9fa9cf" d="m1220.9,115.66l42.32-94.6,30.98,98.96c8.05,25.73-11.25,51.85-38.04,51.46h0c-28.28-.41-46.88-29.86-35.26-55.82Z"/><path fill="#6d7aa7" d="m1105.39,289.7h311.9c6.07,0,11,4.93,11,11v21.72c0,84.98-69,153.98-153.98,153.98h-25.94c-84.98,0-153.98-69-153.98-153.98v-21.72c0-6.07,4.93-11,11-11Z"/><path fill="#6d7aa7" d="m608.15,330.38c2.73,41.78,278.32,219.96,635.85,3.82l-635.85-3.82Z"/><path fill="#6d7aa7" d="m1901.91,371.23c4.34,43.4-290.69,185.26-648.23-30.88l648.23,30.88Z"/><path fill="#6d7aa7" d="m608.15,330.38s362.52-26.43,652.54-240.31c0,0,371.59,281.16,641.21,281.16,0,0-431.13,28.4-657.91-37.03,0,0-462.98,77.25-635.85-3.82Z"/><rect width="41.19" height="823.3" x="1232.67" y="279.23" fill="#3b4573"/><path fill="#9fa9cf" d="m1388.13,176.32c-70.17,51.13-138.12,7.39-138.12,7.39-41.47,17.97-86.61,2.64-116.74-13.02-258.75,140.26-525.12,159.69-525.12,159.69,172.87,81.07,645.53,9.97,645.53,9.97,226.77,65.44,648.23,30.88,648.23,30.88-170.37,0-381.45-112.26-513.77-194.91Z"/><path fill="none" stroke="#3b4573" stroke-linecap="round" stroke-linejoin="round" stroke-width="12" d="m1260.54,97.52s-36.35,139.11-1.78,248.25"/><path fill="#9fa9cf" d="m416.83,1541.49h51.09v-195.86h-184.4c34.64,71.92,79.74,137.86,133.31,195.86Z"/><path fill="#3b4573" d="m467.92,1345.64h-184.4c11.85,24.6,24.93,48.5,39.14,71.62,48.73,4.22,97.15,3.34,145.25-2.77v-68.85Z"/><path fill="#3b4573" d="m901.36,1571.47s-321.97,6.31-284.09,65.66,154.04-1.26,175.5,16.41c21.46,17.68,80.81,44.19,148.99,30.3,68.18-13.89,175.5,11.36,248.74,0,73.23-11.36,78.28-21.46,136.36-22.73,58.08-1.26,234.85-78.28,95.96-89.65-138.89-11.36-131.36,30.49-217.17,30.3-85.81-.18-175.5-65.66-304.29-30.3Z"/><g><path fill="#6d7aa7" d="m38.26,1113.76s-11.64-193.81,138.34-206.14c149.98-12.33,123.27,94.51,123.27,94.51,0,0-10.96,36.98-128.06,50.68-117.11,13.7-133.54,60.95-133.54,60.95Z"/><path fill="none" stroke="#3b4573" stroke-linecap="round" stroke-linejoin="round" stroke-width="12" d="m163.58,984.33s67.11-36.98,136.28,17.81"/></g><path fill="#9fa9cf" d="m502.6,1293.56s63.82-177.95-79.69-223.22c-143.51-45.27-141.16,64.82-141.16,64.82,0,0,2.49,38.49,113.64,77.81,111.16,39.32,107.21,80.59,107.21,80.59Z"/><path fill="#3b4573" d="m359.79,1314.1c-34.16,0-65.26,1.8-88.57,4.75,4.11,9.41,8.4,18.72,12.85,27.93,21.37,2.09,47.5,3.32,75.71,3.32,72.28,0,130.87-8.06,130.87-18s-58.59-18-130.87-18Z"/><path fill="#3b4573" d="m293.33,1117.38c10.15,39.58,52.2,204.19,53.02,232.28l34.75.27s-52.04-179.19-65.07-237.97c-1.72-7.76-10.52-11.57-17.36-7.5h0c-4.45,2.65-6.63,7.91-5.34,12.92Z"/><g><path fill="#9fa9cf" d="m296.58,1049.61s15.06-150.56,120.45-116.68c105.39,33.88,97.11,143.79,97.11,143.79,0,0-42.91-30.87-91.09,2.26-48.18,33.12-107.65,24.09-126.47-29.36Z"/><path fill="none" stroke="#3b4573" stroke-linecap="round" stroke-linejoin="round" stroke-width="12" d="m441.12,1021.76s-88.83-64.74-134.75,26.35"/></g><g><path fill="#9fa9cf" d="m215.94,1134.97s-58.91-65.02-96.17,3.79c-37.26,68.81,50.22,177.05,50.22,177.05,0,0,14.43-107.36,96.11-139.58,67.28-26.54-50.16-41.26-50.16-41.26Z"/><path fill="none" stroke="#3b4573" stroke-linecap="round" stroke-linejoin="round" stroke-width="12" d="m182.47,1186.25s12.76-35.1,33.47-51.27"/></g><g><path fill="#c3cae5" d="m300.55,1015.14s-75.33-56.84-102.04,34.93c-26.71,91.77,22.6,194.49,22.6,194.49,0,0,139.02-105.46,149.98-193.12,10.96-87.66-70.54-36.3-70.54-36.3Z"/><path fill="none" stroke="#3b4573" stroke-linecap="round" stroke-linejoin="round" stroke-width="12" d="m273.84,1085s6.16-45.2,26.71-69.85"/></g><path fill="#9fa9cf" d="m359.79,1350.1c-28.21,0-54.34-1.23-75.71-3.32,8.22,17,17.02,33.66,26.39,49.97,15.9.95,33.43,1.47,51.86,1.47,72.28,0,130.87-8.06,130.87-18l-2.53-48.12c0,9.94-58.59,18-130.87,18Z"/><g><path fill="#9fa9cf" d="m892.31,1427.76s-9.15,54.6,31.87,46.84c0,0-96.45,23.28-85.92,94.24l2.22,42.13s184.04-40.47,210.65-68.18c0,0-31.04-119.74-63.75-134.7,0,0-52.66-82.6-95.07,19.68Z"/><path fill="#fff" d="m709.67,1443.38s156.44-165.29,182.02-230.23l-126.92,61s-63.95,123.97-91.5,139.71l36.4,29.52Z"/><path fill="#3b4573" d="m541.76,868.75l163.9,335.16c5.26,10.76,18.38,15.04,28.98,9.45l281.98-148.87c10.96-5.79,14.65-19.69,8.01-30.15l-207.94-327.55c-3.07-4.84-9.43-6.36-14.36-3.45l-256.43,151.61c-4.77,2.82-6.57,8.83-4.13,13.8Z"/><line x1="544.08" x2="587.91" y1="859.54" y2="855.32" fill="none" stroke="#3b4573" stroke-linecap="round" stroke-linejoin="round" stroke-width="12"/><path fill="#fff" d="m850.76,844.2l100.4-178.83s16.34-22.06,35.56,9.41c19.22,31.47,101.44,181.97,101.44,181.97l-40.79,24.05-79.48-135.96-73.21,179.88-43.92-80.53Z"/><path fill="#fff" d="m807.28,1279.81l99.37,160.32s39.81,1,35.83-44.78l-69.18-150.94c-9.64-21.03-35.83-28.42-55.04-15.52h0c-16.76,11.26-21.61,33.76-10.97,50.92Z"/><polygon fill="#6d7aa7" points="518.69 928.74 593.13 854.46 607.75 882.6 518.69 928.74"/><path fill="#fff" d="m576.11,1048.17l-64.69,112.73-48.52-73.25-38.53,60.89s44.24,70.87,59.46,88.47c15.22,17.6,32.83,17.09,53.27-5.23l97.51-107.02-58.51-76.58Z"/><path fill="#6d7aa7" d="m381.02,1082.51s81.85-47,96.15,24.17c14.31,71.17-40,61.31-48.59,59.52-8.58-1.79-47.56-83.68-47.56-83.68Z"/><path fill="#6d7aa7" d="m401.47,1094.6s-20.21-18.59-46.89-17.79c-16.07.49-38.6-9.88-53.97-18.21-9.5-5.14-21.37-1.34-26.04,8.4h0c-5.27,10.98,1.09,24.03,12.99,26.6,17.14,3.71,37.91,8.94,41.15,13.11,5.66,7.28-66.08,91.01-46.95,124.27,19.13,33.26,35.08,34.62,35.08,34.62,0,0,22.78,33.26,49.2,7.29,0,0,29.16,25.51,36.45-19.13,0,0-6.83-58.31,20.5-83.82,27.33-25.51,46.92-43.28,30.07-66.06-16.86-22.78-51.59-9.29-51.59-9.29Z"/><path fill="none" stroke="#3b4573" stroke-linecap="round" stroke-linejoin="round" stroke-width="12" d="m368.78,1143.98s1.61-37.26,32.69-49.38"/><path fill="none" stroke="#3b4573" stroke-linecap="round" stroke-linejoin="round" stroke-width="12" d="m336.89,1161.29s-42.37,45.1-20.05,104.33"/><path fill="none" stroke="#3b4573" stroke-linecap="round" stroke-linejoin="round" stroke-width="12" d="m369.69,1179.97s-35.99,50.57-3.64,92.94"/><path fill="none" stroke="#3b4573" stroke-linecap="round" stroke-linejoin="round" stroke-width="12" d="m330.05,1153.09s17.31,22.32,57.86,26.88"/><path fill="#9fa9cf" d="m513.66,943.82l179.29,366.65c5.76,11.77,20.11,16.45,31.7,10.33l308.47-162.86c11.99-6.33,16.03-21.54,8.76-32.98l-227.47-358.32c-3.36-5.29-10.31-6.96-15.71-3.77l-280.53,165.86c-5.21,3.08-7.18,9.65-4.52,15.1Z"/><line x1="806.19" x2="729.56" y1="705.56" y2="764.8" fill="none" stroke="#3b4573" stroke-linecap="round" stroke-linejoin="round" stroke-width="12"/><path fill="#fff" stroke="#fff" stroke-miterlimit="10" stroke-width="12" d="m703.65,879.22c-3.71,11.81.06,29.41,10.87,45.48,14.92,22.17,37.57,33.03,50.61,24.26,13.03-8.77,11.51-33.85-3.41-56.02-6.67-9.92-14.89-17.56-23.11-22.2-12.08,6.79-25.13,8.46-34.96,8.48Z"/><path fill="#3b4573" d="m742.53,868.35c-23.65,15.91-53.1,9.76-54.49,9.46-2.64-.58-4.37-3.19-3.85-5.84.51-2.65,3.06-4.33,5.7-3.76.48.1,33.6,6.87,54.22-13.94,1.88-1.89,4.96-1.86,6.88.08,1.92,1.94,1.96,5.05.08,6.95-2.71,2.73-5.58,5.07-8.53,7.06Z"/><path fill="#3b4573" stroke="#3b4573" stroke-linecap="round" stroke-linejoin="round" stroke-width="12" d="m717.95,874.88c-3.93,2.64-3.35,11,.75,21.58,5.32,4.12,18.3,13.68,25.11,14.34l-17.93.32c1.32,2.26,2.75,4.54,4.29,6.82,13.12,19.5,28.92,31.83,35.29,27.54,6.37-4.29.9-23.57-12.22-43.07-13.12-19.5-28.92-31.83-35.29-27.54Z"/><path fill="#fff" stroke="#fff" stroke-miterlimit="10" stroke-width="12" d="m640.7,916.51c11.51,1.32,24.94,11.19,34.24,26.44,12.82,21.04,12.94,44.36.27,52.09-12.68,7.73-33.35-3.06-46.18-24.1-5.74-9.41-8.92-19.27-9.57-28,10.61-7.67,17.27-18.1,21.24-26.43Z"/><path fill="#3b4573" d="m615.86,945.34c23-14.02,29.61-41.32,29.91-42.61.57-2.46-.96-4.91-3.41-5.48-2.45-.57-4.91.95-5.48,3.41-.11.45-7.67,31.09-33.61,40.68-2.36.88-3.57,3.5-2.7,5.87.87,2.36,3.5,3.57,5.87,2.7,3.41-1.26,6.54-2.81,9.42-4.56Z"/><path fill="#3b4573" stroke="#3b4573" stroke-linecap="round" stroke-linejoin="round" stroke-width="12" d="m633.93,923.58c-3.82,2.33-3.72,10.1-.43,20.05,4.77,3.99,16.44,13.27,22.79,14.1l-16.82-.27c1.12,2.13,2.34,4.3,3.66,6.46,11.28,18.51,25.45,30.45,31.65,26.67,6.2-3.78,2.08-21.84-9.2-40.35-11.28-18.51-25.45-30.45-31.65-26.67Z"/><path fill="none" stroke="#3b4573" stroke-linecap="round" stroke-linejoin="round" stroke-width="12" d="m707.44,966.82s14.4-14.09,21.29,2.5c6.89,16.59-14.72,19.41-14.72,19.41"/><path fill="none" stroke="#3b4573" stroke-linecap="round" stroke-linejoin="round" stroke-width="12" d="m629.55,1023.18l11.48,18.81c29.71,48.69,94.05,65.08,144.4,36.77h0c49.22-27.67,67.39-88.2,41.23-137.37l-16.38-28.6"/><path fill="#fff" d="m818.84,1005.39c-20.38-14.34-49.99-15.21-74.2-.13-25.27,15.75-36.82,44.01-30.28,68.87l104.47-68.74Z"/><path fill="none" stroke="#3b4573" stroke-linecap="round" stroke-linejoin="round" stroke-width="12" d="m721.46,1090.03c-18.08-27.56-7.7-65.52,23.19-84.77,30.89-19.25,70.59-12.51,88.67,15.05"/><polygon fill="#6d7aa7" points="748.87 792.69 729.56 764.8 804.06 761.29 748.87 792.69"/><path fill="none" stroke="#3b4573" stroke-linecap="round" stroke-linejoin="round" stroke-width="12" d="m589.73,826.2l-12.54-20.72c-27.61-45.61-13.08-104.96,32.48-132.64h0c44.79-27.22,103.11-13.78,131.47,30.3l13.65,21.22"/><g><path fill="#9fa9cf" d="m477.5,1333.15s58.45-38.78,94.91,6.94c36.46,45.72,31.25,83.92,31.25,83.92,0,0,15.63-7.52,32.99.58,0,0,7.79-44.72,43.51-27.01,35.71,17.71,47.72,39.92,38.11,61.82-9.6,21.91-19.81,18.61-19.81,18.61,0,0-9.9,47.12-40.52,58.52-30.61,11.4-130.77-203.14-179.86-199.22"/><path fill="#fff" d="m442.67,1367.41s9.05-52.78,64.2-33.2c0,0,38.94,12.1,64.89,63.57,25.95,51.48,49.78,87.07,49.78,87.07l39.19,56.41s-24.89,41.07-36.01,48.74c-11.12,7.67-182.04-222.6-182.04-222.6Z"/><polygon fill="#3b4573" points="542.89 1539.73 549.9 1507.45 597.85 1489.63 614.43 1512.05 542.89 1539.73"/><path fill="#c3cae5" d="m524.65,1518.47l73.19-28.83s-71.53-143.06-126.43-143.61c-54.9-.55-28.83,82.07,7.76,121.43,36.6,39.37,45.47,51.01,45.47,51.01Z"/><path fill="#c3cae5" d="m542.89,1539.73l71.54-27.68,20.47,26.9c13.75,18.07,7.41,43.99-13.16,53.83h0c-15.38,7.35-33.89,3.14-44.5-10.11l-34.35-42.93Z"/><path fill="none" stroke="#3b4573" stroke-linecap="round" stroke-linejoin="round" stroke-width="12" d="m651.6,1442.08s0-13.79-12.48-16.09"/><path fill="none" stroke="#3b4573" stroke-linecap="round" stroke-linejoin="round" stroke-width="12" d="m683.45,1459.48s15.1,9.85,14.78,22.33"/></g><path fill="none" stroke="#3b4573" stroke-linecap="round" stroke-linejoin="round" stroke-width="12" d="m987.38,1408.09s-2.22,24.95-19.4,33.26"/><path fill="none" stroke="#3b4573" stroke-linecap="round" stroke-linejoin="round" stroke-width="12" d="m920.26,1475.15s25.55.56,34.42-17.18"/><path fill="none" stroke="#3b4573" stroke-linecap="round" stroke-linejoin="round" stroke-width="12" d="m622.86,995.54s13.88,18.84,33.92,18.84"/><path fill="none" stroke="#3b4573" stroke-linecap="round" stroke-linejoin="round" stroke-width="12" d="m786.87,895.44s11.38,20.45,3.07,38.68"/></g><g><path fill="#3b4573" d="m1378.9,918.77s17.2-83.86,121.59-124.87l-255.95-36.68s-66.69,13.6-78.74,95l213.1,66.54Z"/><path fill="#3b4573" d="m1380.41,899.07s12.91-84.63,115.08-130.89l-257.49-23.61s-65.91,16.98-73.81,98.88l216.21,55.62Z"/><path fill="#3b4573" d="m1377.85,877.45s8.23-85.21,107.7-137.03l-258.4-9.39s-64.88,20.58-68.25,102.8l218.95,43.63Z"/><path fill="#c3cae5" d="m1371.62,858.63s3.27-85.55,99.57-143.04l-258.51,5.61s-63.57,24.31-62.17,106.58l221.11,30.85Z"/><polygon fill="#3b4573" points="1405.8 1202.22 1033.42 1265.42 922.23 1062.61 1265.55 1026.56 1405.8 1202.22"/><path fill="#fff" d="m1287.25,1112.44s-59.7,159.13-46,220.01c9.06,40.28,31.45,111.2,45.56,154.58,6.76,20.79-4.14,43.2-24.66,50.73h0c-20.13,7.38-42.53-2.13-51.19-21.73l-63.18-142.97c-9.41-21.29-10.85-45.25-4.07-67.51l59.83-196.49,83.72,3.38Z"/><path fill="#3b4573" d="m1183.14,1176.03c22.35-6.46,66.13-20.27,94.68-36.85,5.55-16.41,9.43-26.75,9.43-26.75l-83.72-3.38-20.4,66.98Z"/><path fill="#fff" d="m1096.41,1149.8s-49.64,132.33-38.25,182.96c7.54,33.49,26.15,92.47,37.89,128.55,5.62,17.29-3.44,35.93-20.51,42.19h0c-16.74,6.14-35.37-1.77-42.57-18.08l-52.54-118.9c-7.82-17.7-9.03-37.63-3.39-56.14l49.76-163.4,69.62,2.81Z"/><path fill="#fff" d="m819.31,1136.05c-12.25-2.33-20.3-14.15-17.97-26.4,6.36-33.46,20.14-95,38.68-115.44,16.47-18.15,65.09-54,98.42-77.76,15.97-11.39,38.38-3.16,43.19,15.86h0c2.84,11.23-1.57,23.05-11.07,29.68l-98.61,68.8-26.75,89.54c-3.32,11.1-14.5,17.9-25.88,15.73h0Z"/><polygon fill="#6d7aa7" points="1291.29 755.43 1435.4 934.6 1405.8 1202.22 1265.55 1026.56 1291.29 755.43"/><path fill="#fff" d="m1324.02,983.41l8.47,65.19-92.15,43.28c-11.49,5.4-16.8,18.81-12.11,30.61h0c4.61,11.6,17.33,17.74,29.28,14.12,0,0,114.28-32.6,119.91-36.26,5.63-3.67,16.53-10.96,10.24-43.22s-18.06-81.7-18.06-81.7c-2.64-11.94-14.1-19.77-26.18-17.88h0c-12.41,1.93-21.01,13.41-19.4,25.86Z"/><polygon fill="#9fa9cf" points="1291.29 755.43 1265.55 1026.56 914.54 1075.01 958.02 802.49 1291.29 755.43"/><rect width="232.26" height="45.32" x="989.36" y="910.83" fill="#fff" stroke="#3b4573" stroke-linecap="round" stroke-linejoin="round" stroke-width="12" transform="rotate(-5.84 1106.346 934.165)"/><line x1="970.86" x2="1240.83" y1="924.39" y2="895.24" fill="none" stroke="#3b4573" stroke-linecap="round" stroke-linejoin="round" stroke-width="12"/><path fill="#fff" d="m770.44,1272.76s.08-119.01,119.68-222.67l119.61-103.66,205.04-20.5s-76.32,78.6-69.48,210.73l6.83,132.14-381.68,3.96Z"/><line x1="1060.1" x2="1111.01" y1="1030.59" y2="942.6" fill="none" stroke="#3b4573" stroke-linecap="round" stroke-linejoin="round" stroke-width="12"/><line x1="973.98" x2="1045.12" y1="1038.14" y2="948.27" fill="none" stroke="#3b4573" stroke-linecap="round" stroke-linejoin="round" stroke-width="12"/><line x1="896.31" x2="866.86" y1="1184.54" y2="1264.88" fill="none" stroke="#3b4573" stroke-linecap="round" stroke-linejoin="round" stroke-width="12"/><path fill="none" stroke="#3b4573" stroke-linecap="round" stroke-linejoin="round" stroke-width="12" d="m1028.43,1197.93s-3.57,60.38-2.68,67.52"/><line x1="1136.45" x2="1098.06" y1="979.22" y2="1070.28" fill="none" stroke="#3b4573" stroke-linecap="round" stroke-linejoin="round" stroke-width="12"/><path fill="none" stroke="#3b4573" stroke-linecap="round" stroke-linejoin="round" stroke-width="12" d="m831.54,1266.42h320.58s-18.47-159.82,12.78-251"/><path fill="#6d7aa7" d="m1226.37,1081.88s37.59,61.76,34.01,73.85c-3.58,12.08-10.74,16.11-21.48,12.53,0,0-28.25,100.7-81.96,95.78l-8.45-91.75s-10.29-21.04-36.7-39.39c-26.41-18.35-27.75-58.63-7.16-61.32,20.59-2.69,50.57,28.64,62.66,30.43,12.08,1.79,30.43,4.03,36.25-6.71,5.82-10.74,6.71-27.3,22.83-13.43Z"/><path fill="none" stroke="#3b4573" stroke-linecap="round" stroke-linejoin="round" stroke-width="12" d="m1209.9,1112.49s24.26,18,28.3,51.07"/><ellipse cx="1037.38" cy="1094.98" fill="none" stroke="#3b4573" stroke-linecap="round" stroke-linejoin="round" stroke-width="12" rx="36.02" ry="30.02" transform="rotate(-68.72 1037.387 1094.98)"/><path fill="none" stroke="#3b4573" stroke-linecap="round" stroke-linejoin="round" stroke-width="12" d="m1090.62,1095.11s-49.11,15.44-81.18,1.19"/><ellipse cx="943.06" cy="1087.63" fill="none" stroke="#3b4573" stroke-linecap="round" stroke-linejoin="round" stroke-width="12" rx="33.35" ry="27.12" transform="rotate(-85.15 943.072 1087.632)"/><path fill="none" stroke="#3b4573" stroke-linecap="round" stroke-linejoin="round" stroke-width="12" d="m898.56,1078.87s37.73,19.14,68.99,13.77"/><ellipse cx="979.16" cy="1136.85" fill="#3b4573" stroke="#3b4573" stroke-linecap="round" stroke-linejoin="round" stroke-width="12" rx="18.02" ry="3.92"/><path fill="#fff" stroke="#3b4573" stroke-linecap="round" stroke-linejoin="round" stroke-width="12" d="m950.17,1159.25s73.5-3.78,52.96,37.29c-14.42,28.83-57.35-28.83-9.09-30.09"/><path fill="none" stroke="#3b4573" stroke-linecap="round" stroke-linejoin="round" stroke-width="12" d="m948.92,1183.7s-2.82,27.26,20.06,28.21"/><g><path fill="#fff" d="m831.27,1566.81l7.4,46.76s116.99,38.8,181.41-2.98l28.92-19.88,4.4,25.85,67.25-3.23-14.68-64.43-274.71,17.91Z"/><path fill="#c3cae5" d="m834.97,1579.26s-30.36-68.86,34.8-94.04c65.16-25.18,108.85,35.54,108.85,35.54,0,0-2.22-16.29,7.4-22.95,0,0-23.69-34.8-5.92-40.73,17.77-5.92,98.48-5.92,123.66,14.07,0,0,.4,74.3,7.4,99.96-81.01-24.71-122.48,44.1-276.19,8.14Z"/><path fill="none" stroke="#3b4573" stroke-linecap="round" stroke-linejoin="round" stroke-width="12" d="m1008.98,1508.18s-17.77-.74-22.95-10.37"/></g><g><ellipse cx="1043.38" cy="790.88" fill="#fff" stroke="#fff" stroke-miterlimit="10" stroke-width="12" rx="54.52" ry="52.72"/><ellipse cx="1140.82" cy="784.39" fill="#fff" stroke="#fff" stroke-miterlimit="10" stroke-width="12" rx="63" ry="60.92"/><path fill="#3b4573" stroke="#3b4573" stroke-linecap="round" stroke-linejoin="round" stroke-width="12" d="m1137.36,770.5c-7.92,0-14.89,5.21-18.98,13.12l14.38,24.29-17.77-2.41c2.03,13.56,11.27,23.81,22.38,23.81,12.59,0,22.79-13.17,22.79-29.41s-10.2-29.41-22.79-29.41Z"/><path fill="#3b4573" stroke="#3b4573" stroke-linecap="round" stroke-linejoin="round" stroke-width="12" d="m1044.1,778.95c-7.15,0-13.45,4.71-17.14,11.85l12.98,21.94-16.05-2.17c1.83,12.25,10.18,21.5,20.21,21.5,11.37,0,20.58-11.89,20.58-26.56s-9.22-26.56-20.58-26.56Z"/><path fill="none" stroke="#3b4573" stroke-linecap="round" stroke-linejoin="round" stroke-width="12" d="m1139.63,699.39s23.7-15.8,40.18,1.03"/><path fill="none" stroke="#3b4573" stroke-linecap="round" stroke-linejoin="round" stroke-width="12" d="m1003.97,726.18s10.65-25.07,42.59-16.83"/></g><g><path fill="#fff" d="m1030.42,1592.38l7.4,46.76s116.99,38.8,181.41-2.98l28.92-19.88,4.4,25.85,67.25-3.23-14.68-64.43-274.71,17.91Z"/><path fill="#c3cae5" d="m1034.12,1604.83s-30.36-68.86,34.8-94.04c65.16-25.18,108.85,35.54,108.85,35.54,0,0-2.22-16.29,7.4-22.95,0,0-23.69-34.8-5.92-40.73,17.77-5.92,98.48-5.92,123.66,14.07,0,0,.4,74.3,7.4,99.96-81.01-24.71-122.48,44.1-276.19,8.14Z"/><path fill="none" stroke="#3b4573" stroke-linecap="round" stroke-linejoin="round" stroke-width="12" d="m1208.13,1533.74s-17.77-.74-22.95-10.37"/></g><g><path fill="#6d7aa7" d="m777.03,1139.78s-.98-55.56,26.55-43.76c27.53,11.8,27.53,19.17,27.53,19.17,6.11,6.49-17.83,22.37-17.21,27.53,1.06,8.76,23.16,26.11,35.84,38.23,7.06,6.75,8.68,17.42,3.92,25.95h0c-5.91,10.58-19.41,14.17-29.79,7.9l-35.53-21.44s-19.58,53.09-17.9,79.39l163.43-.72s-18.19,48.16-73.75,52.59h-12.05s-35.58,12.86-58.63-5.44c0,0-28.81,2.71-45.07-20.33-16.27-23.04-16.94-54.9-7.46-78.62,9.49-23.72,30.75-36.22,40.11-80.47Z"/><path fill="none" stroke="#3b4573" stroke-linecap="round" stroke-linejoin="round" stroke-width="12" d="m847.03,1277.59s-17.78,28.83-68.75,42.69"/><path fill="none" stroke="#3b4573" stroke-linecap="round" stroke-linejoin="round" stroke-width="12" d="m896.77,1277.25s-18.9,36.56-57.25,51"/></g><line x1="1372.29" x2="1431.46" y1="892.66" y2="961.6" fill="none" stroke="#3b4573" stroke-linecap="round" stroke-linejoin="round" stroke-width="12"/><line x1="1343.31" x2="1426.93" y1="905.9" y2="1001.07" fill="none" stroke="#3b4573" stroke-linecap="round" stroke-linejoin="round" stroke-width="12"/><path fill="none" stroke="#3b4573" stroke-linecap="round" stroke-linejoin="round" stroke-width="12" d="m1213.67,1346.45s18.26-3.07,21.76-20.01"/><path fill="none" stroke="#3b4573" stroke-linecap="round" stroke-linejoin="round" stroke-width="12" d="m1032.96,1342.75s17.37-6.89,19.82-19.53"/><path fill="none" stroke="#3b4573" stroke-linecap="round" stroke-linejoin="round" stroke-width="12" d="m1034.75,1600.22s-16.57-100.01,85.94-89.03c0,0,26.59,1.75,57.08,35.14"/></g></svg>