<svg xmlns="http://www.w3.org/2000/svg" fill="none" viewBox="0 0 2000 2000"><g clip-path="url(#a)"><path fill="#E8EBF7" d="M1802.66 994.051C1802.66 1141.78 1762.62 1280.15 1692.8 1398.91C1678.44 1423.34 1662.81 1446.95 1646.01 1469.63C1645.57 1470.23 1645.13 1470.82 1644.68 1471.41C1498.87 1667.23 1265.57 1794.05 1002.66 1794.05C739.75 1794.05 506.45 1667.22 360.63 1471.41C343.33 1448.18 327.26 1423.98 312.52 1398.91C242.7 1280.15 202.66 1141.78 202.66 994.051C202.66 745.631 315.89 523.651 493.55 376.921C631.87 262.681 809.25 194.051 1002.66 194.051C1444.49 194.051 1802.66 552.221 1802.66 994.051Z"/><path fill="#C5CCE7" d="M1802.66 994.051C1802.66 1141.78 1762.62 1280.15 1692.8 1398.91C1678.44 1423.34 1662.81 1446.95 1646.01 1469.63H493.551V376.921C631.871 262.681 809.251 194.051 1002.66 194.051C1444.49 194.051 1802.66 552.221 1802.66 994.051Z"/><path fill="#A1ABD1" d="M1644.68 1471.41C1498.87 1667.23 1265.57 1794.05 1002.66 1794.05C739.753 1794.05 506.453 1667.22 360.633 1471.41H1644.68Z"/><path fill="#9FA9CF" d="M1513.02 1531.89C1187.28 1625.62 855.032 1627.18 515.932 1531.89L428.832 1085.37H1600.13L1513.03 1531.89H1513.02Z"/><path fill="#E8EBF7" d="M1423.72 1156.27L1359.72 1607.47L1088.53 1640.95L1140.75 1165.08L1423.72 1156.27Z"/><path fill="#E8EBF7" d="M878.83 1161.56L882.35 1632.14L651.46 1595.13L609.16 1126.31L878.83 1161.56Z"/><path fill="#6D7AA9" d="M1513.02 1531.89C1187.28 1625.62 855.03 1627.18 515.93 1531.89L531.06 1608.11C782.08 1689.63 1228.5 1723.96 1505.9 1597.55L1513.02 1531.89Z"/><path fill="#6D7AA9" d="M1645.92 1090.48V1003.63H1337.77C1244.76 994.101 1136.4 988.641 1020.72 988.641C905.042 988.641 796.682 994.101 703.672 1003.63H395.882V1089.56C394.702 1092.29 394.102 1095.05 394.102 1097.84C394.102 1158.15 674.652 1207.04 1020.72 1207.04C1366.79 1207.04 1647.34 1158.15 1647.34 1097.84C1647.34 1095.37 1646.86 1092.91 1645.93 1090.48H1645.92Z"/><path fill="#A1ABD1" d="M1020.72 1121.3C1366.79 1121.3 1647.34 1072.41 1647.34 1012.1C1647.34 951.791 1366.79 902.9 1020.72 902.9C674.649 902.9 394.102 951.791 394.102 1012.1C394.102 1072.41 674.649 1121.3 1020.72 1121.3Z"/><path fill="#6D7AA7" d="M1592.23 457.21L1505.23 942.28H765.633L853.903 450.12C855.623 440.54 863.953 433.57 873.683 433.57H1572.44C1584.96 433.57 1594.43 444.89 1592.22 457.21H1592.23Z"/><path fill="#3B4573" d="M1373.86 433.57V442.96C1373.86 469.07 1352.69 490.24 1326.57 490.24H1126.3C1100.19 490.24 1079.02 469.07 1079.02 442.96V433.57H1373.86Z"/><path fill="#E8EBF7" d="M1360.11 884.579H890.232C877.762 884.579 868.332 873.289 870.552 861.019L926.302 552.479C928.022 542.959 936.312 536.039 945.982 536.039H1415.86C1428.33 536.039 1437.76 547.329 1435.54 559.599L1379.79 868.139C1378.07 877.659 1369.78 884.579 1360.11 884.579Z"/><path fill="#fff" d="M583.09 389.17C583.09 389.17 657.18 626.52 810.39 688.06L824.61 691.97C844.03 697.31 863.88 684.97 867.68 665.19C870.72 649.36 862.43 633.49 847.66 627.05C798.18 605.47 689.47 542.19 637.09 387.91L583.09 389.17Z"/><path fill="#9FA9CF" d="M560.081 310.74C560.081 310.74 508.211 382.66 560.081 392.85C611.951 403.04 657.371 386.2 657.371 386.2C657.371 386.2 670.341 371.38 654.591 337.11C654.591 337.11 745.431 229.56 788.711 168.93C797.081 157.21 795.601 141.14 785.291 131.1C775.081 121.16 759.171 120.04 747.671 128.47L674.041 182.42"/><path stroke="#3B4573" stroke-linecap="round" stroke-linejoin="round" stroke-width="12" d="M748.461 129.92C748.461 129.92 772.691 150.79 786.131 168.55"/><path fill="#9FA9CF" d="M574.002 326.91C574.002 326.91 531.462 289.45 532.592 222.93C533.062 195.57 546.802 170.15 569.202 154.42C595.442 136 636.672 112.44 682.382 106.45C742.542 98.5698 809.352 195.35 836.562 239.66C844.062 251.87 841.702 267.7 830.962 277.19C818.922 287.83 800.592 286.87 789.722 275.04L736.112 216.68C736.112 216.68 759.272 245.4 731.482 261.14C703.692 276.89 683.312 245.39 683.312 245.39C683.312 245.39 673.122 290.78 634.222 289.85C595.322 288.92 566.602 276.88 571.232 255.58C575.862 234.28 602.722 224.09 602.722 224.09"/><path stroke="#3B4573" stroke-linecap="round" stroke-linejoin="round" stroke-width="12" d="M736.112 216.68C736.112 216.68 759.272 245.4 731.482 261.14C703.692 276.89 683.312 245.39 683.312 245.39C683.312 245.39 673.122 290.78 634.222 289.85C595.322 288.92 566.602 276.88 571.232 255.58C575.862 234.28 602.722 224.09 602.722 224.09"/><path stroke="#3B4573" stroke-linecap="round" stroke-linejoin="round" stroke-width="12" d="M590.684 205.57C590.684 205.57 620.324 228.73 624.954 242.62"/><path stroke="#3B4573" stroke-linecap="round" stroke-linejoin="round" stroke-width="12" d="M661.074 191.67C661.074 191.67 678.674 226.87 683.304 245.4"/><path stroke="#3B4573" stroke-linecap="round" stroke-linejoin="round" stroke-width="12" d="M702.762 166.66L736.112 216.68"/><path stroke="#3B4573" stroke-linecap="round" stroke-linejoin="round" stroke-width="12" d="M623.281 342.71C623.281 342.71 640.751 346.82 654.601 337.1"/><path fill="#fff" d="M1553.73 771.759L1635.17 850.429L1528.92 854.489C1512.66 855.109 1499.83 867.129 1499.83 881.749C1499.83 897.189 1514.09 909.559 1531.28 909.019C1581.45 907.429 1677.56 903.629 1712.92 896.979C1761.69 887.809 1728.76 855.609 1728.76 855.609L1591.04 738.569C1578.91 728.269 1559.3 730.599 1550.58 743.379C1544.42 752.409 1545.71 764.019 1553.74 771.769L1553.73 771.759Z"/><path stroke="#3B4573" stroke-linecap="round" stroke-linejoin="round" stroke-width="12" d="M1672.17 855.31C1672.17 855.31 1663.09 850.26 1645.84 850.43"/><path fill="#9FA9CF" d="M1354.71 615.511L1407.52 577.471C1407.52 577.471 1422.53 564.481 1436.08 576.761C1449.63 589.041 1480.35 631.741 1480.35 631.741C1480.35 631.741 1490.9 590.171 1472.08 535.951C1469.51 528.531 1471.6 520.291 1477.48 515.081C1485.67 507.821 1498.25 508.821 1505.2 517.281L1525.32 541.781C1525.32 541.781 1562.45 508.941 1573.87 561.061C1585.29 613.181 1568.87 696.711 1568.87 696.711C1568.87 696.711 1584.27 678.171 1603.04 695.801C1621.81 713.431 1577.45 780.531 1563.8 790.771C1550.15 801.011 1532.52 772.001 1532.52 772.001C1532.52 772.001 1478.83 820.241 1399.21 759.961L1410.82 700.351L1442.67 705.471C1442.67 705.471 1453.47 666.231 1432.43 650.311C1411.39 634.391 1406.27 632.681 1406.27 632.681L1377.22 649.911C1366.64 656.181 1352.96 651.841 1347.95 640.611C1343.97 631.701 1346.79 621.231 1354.71 615.531V615.511Z"/><path stroke="#3B4573" stroke-linecap="round" stroke-linejoin="round" stroke-width="12" d="M1515.95 718.671C1515.95 718.671 1494.75 695.601 1442.67 705.461"/><path stroke="#3B4573" stroke-linecap="round" stroke-linejoin="round" stroke-width="12" d="M1519.89 639.712C1519.89 639.712 1534.53 581.671 1525.33 541.771"/><path fill="#fff" d="M1334.84 414.68C1334.84 460.52 1309.03 497.69 1277.18 497.69C1270.47 497.69 1264.04 496.04 1258.05 493.01C1235.61 481.65 1219.52 450.87 1219.52 414.68C1219.52 406.32 1220.38 398.24 1221.98 390.63C1229.14 356.51 1251.15 331.67 1277.18 331.67C1309.03 331.67 1334.84 368.83 1334.84 414.68Z"/><path fill="#3B4573" d="M1291.26 434.599C1291.26 463.469 1276.99 487.549 1258.05 493.009C1235.61 481.649 1219.52 450.869 1219.52 414.679C1219.52 406.319 1220.38 398.239 1221.98 390.629C1229.33 380.939 1239.13 375.029 1249.88 375.029C1255.25 375.029 1260.38 376.499 1265.09 379.189L1255.12 404.679L1283.81 400.489C1288.51 410.149 1291.26 421.909 1291.26 434.599Z"/><path fill="#fff" d="M1159.2 423.38C1159.2 465.33 1135.58 499.34 1106.44 499.34C1100.3 499.34 1094.42 497.83 1088.93 495.06C1068.4 484.66 1053.67 456.5 1053.67 423.38C1053.67 415.73 1054.46 408.34 1055.92 401.37C1062.47 370.15 1082.61 347.42 1106.43 347.42C1135.58 347.42 1159.19 381.42 1159.19 423.38H1159.2Z"/><path fill="#3B4573" d="M1119.32 441.61C1119.32 468.03 1106.26 490.06 1088.93 495.06C1068.4 484.66 1053.67 456.5 1053.67 423.38C1053.67 415.73 1054.46 408.34 1055.92 401.37C1062.65 392.5 1071.61 387.09 1081.45 387.09C1086.36 387.09 1091.06 388.44 1095.37 390.9L1086.25 414.23L1112.5 410.4C1116.8 419.24 1119.32 430 1119.32 441.61Z"/><path stroke="#3B4573" stroke-linecap="round" stroke-linejoin="round" stroke-width="12" d="M1258.09 302.32C1258.09 302.32 1292.42 342.03 1348.34 354.76"/><path stroke="#3B4573" stroke-linecap="round" stroke-linejoin="round" stroke-width="12" d="M1109.25 329.061C1109.25 329.061 1081.81 363.281 1043.45 379.151"/><path fill="#3B4573" d="M1500.1 941.98H488.521C473.99 941.98 462.211 953.76 462.211 968.29V1013.87C462.211 1028.4 473.99 1040.18 488.521 1040.18H1500.1C1514.63 1040.18 1526.41 1028.4 1526.41 1013.87V968.29C1526.41 953.76 1514.63 941.98 1500.1 941.98Z"/><path fill="#C5CCE7" d="M1500.1 941.98H1107.41C1092.88 941.98 1081.1 953.76 1081.1 968.29V1013.87C1081.1 1028.4 1092.88 1040.18 1107.41 1040.18H1500.1C1514.63 1040.18 1526.41 1028.4 1526.41 1013.87V968.29C1526.41 953.76 1514.63 941.98 1500.1 941.98Z"/><path fill="#fff" d="M596.632 992.069C567.042 1023.19 510.822 1093.22 507.602 1178.87L567.192 1223.57C557.252 1223.01 580.432 1081.71 636.652 1026.16C646.432 1016.49 643.372 999.679 632.982 990.669L632.592 990.329C622.062 981.199 606.222 981.969 596.622 992.069H596.632Z"/><path fill="#fff" d="M881.28 1004.19C851.69 1035.31 795.47 1105.34 792.25 1190.99L851.84 1235.69C841.9 1235.13 865.08 1093.83 921.3 1038.28C931.08 1028.61 928.02 1011.8 917.63 1002.79L917.24 1002.45C906.71 993.32 890.87 994.09 881.27 1004.19H881.28Z"/><path fill="#3B4573" d="M231.34 1027.44C231.34 1027.44 314.21 972.47 365.9 1037.29C417.59 1102.11 410.21 1156.26 410.21 1156.26C410.21 1156.26 432.36 1145.59 456.98 1157.08C456.98 1157.08 468.03 1093.68 518.66 1118.78C569.29 1143.88 586.31 1175.37 572.7 1206.43C559.08 1237.49 544.62 1232.81 544.62 1232.81C544.62 1232.81 530.52 1305.82 487.12 1321.99C443.72 1338.16 301.79 1027.78 232.18 1033.35"/><path fill="#fff" d="M181.973 1076.01C181.973 1076.01 194.813 1001.19 272.993 1028.95C272.993 1028.95 328.203 1046.1 364.993 1119.08C401.783 1192.06 435.563 1242.53 435.563 1242.53L491.113 1322.5C491.113 1322.5 455.833 1380.73 440.063 1391.6C424.293 1402.46 181.973 1076.01 181.973 1076.01Z"/><path fill="#3B4573" d="M324.051 1320.31L335.871 1273.93L401.961 1249.29L425.471 1281.06L324.051 1320.31Z"/><path fill="#6D7AA9" d="M298.201 1290.16L401.971 1249.28C401.971 1249.28 300.561 1046.46 222.731 1045.67C144.901 1044.88 181.851 1162.02 233.741 1217.83C285.621 1273.64 298.201 1290.15 298.201 1290.15V1290.16Z"/><path fill="#6D7AA9" d="M324.051 1320.31L425.471 1281.07L454.491 1319.21C473.981 1344.83 465.001 1381.57 435.831 1395.52C414.031 1405.94 387.781 1399.98 372.741 1381.18L324.051 1320.31Z"/><path fill="#fff" d="M478.17 1181.87C478.17 1181.87 478.17 1162.32 460.48 1159.06Z"/><path fill="#fff" d="M478.171 1187.87C474.871 1187.87 472.191 1185.2 472.171 1181.9C472.151 1180.38 471.631 1167.22 459.391 1164.96C456.131 1164.36 453.981 1161.23 454.581 1157.97C455.181 1154.71 458.311 1152.55 461.571 1153.16C479.451 1156.45 484.171 1173.38 484.171 1181.87C484.171 1185.18 481.481 1187.87 478.171 1187.87Z"/><path fill="#3B4573" d="M557.801 1066.64C557.801 1066.64 642.681 1014.82 691.891 1081.54C741.111 1148.26 731.691 1202.09 731.691 1202.09C731.691 1202.09 735.231 1181.32 759.401 1193.72C759.401 1193.72 757.371 1132.97 807.021 1159.96C856.671 1186.95 890.591 1222.65 875.821 1253.17C861.051 1283.7 851.411 1287.57 851.411 1287.57C851.411 1287.57 845.421 1357.76 801.451 1372.29C757.471 1386.82 628.181 1069.63 558.421 1072.58"/><path fill="#fff" d="M506.641 1113.32C506.641 1113.32 522.281 1039.03 599.361 1069.71C599.361 1069.71 653.891 1088.92 687.901 1163.24C721.921 1237.55 753.781 1289.25 753.781 1289.25L806.291 1371.25C806.291 1371.25 768.841 1428.11 752.681 1438.38C736.521 1448.65 506.641 1113.32 506.641 1113.32Z"/><path fill="#3B4573" d="M639.434 1362.78L651.814 1318.59L719.964 1294.74L742.264 1327.38L639.434 1362.78Z"/><path fill="#6D7AA9" d="M614.732 1331.69L719.962 1294.74C719.962 1294.74 626.252 1088.25 548.512 1084.54C470.772 1080.83 503.292 1199.27 553.042 1256.99C602.792 1314.72 614.742 1331.69 614.742 1331.69H614.732Z"/><path fill="#6D7AA9" d="M639.434 1362.78L742.254 1327.38L769.824 1366.58C788.344 1392.91 777.984 1429.29 748.314 1442.13C726.134 1451.73 700.124 1444.78 685.814 1425.43L639.444 1362.78H639.434Z"/><path fill="#fff" d="M828.961 1256.59C828.961 1256.59 849.831 1271.35 848.701 1289.01Z"/><path fill="#fff" d="M848.712 1295.01C848.582 1295.01 848.452 1295.01 848.322 1295C845.012 1294.79 842.502 1291.94 842.722 1288.63C843.472 1276.96 830.542 1265.08 825.492 1261.48C822.792 1259.56 822.162 1255.82 824.072 1253.12C825.992 1250.42 829.722 1249.78 832.422 1251.69C833.382 1252.37 856.022 1268.63 854.692 1289.39C854.492 1292.57 851.852 1295.01 848.712 1295.01Z"/><path fill="#C5CCE7" d="M854.019 726.641C854.019 726.641 880.439 798.181 948.679 801.481L933.269 834.501C933.269 834.501 805.589 799.281 802.289 727.741L854.019 726.641Z"/><path fill="#fff" d="M900.043 730.011C900.043 730.011 844.913 801.221 825.383 817.301L847.203 843.721C847.203 843.721 926.453 771.361 943.683 726.561L900.033 730.011H900.043Z"/><path fill="#3B4573" d="M652.461 752.759C652.461 752.759 702.031 719.879 732.941 758.649C763.861 797.419 759.441 829.809 759.441 829.809C759.441 829.809 772.691 823.429 787.411 830.299C787.411 830.299 794.021 792.379 824.301 807.399C854.581 822.409 864.761 841.249 856.621 859.819C848.481 878.399 839.821 875.599 839.821 875.599C839.821 875.599 831.391 919.269 805.431 928.939C779.471 938.609 694.581 752.969 652.951 756.299"/><path fill="#fff" d="M622.934 781.809C622.934 781.809 630.614 737.059 677.374 753.659C677.374 753.659 710.394 763.919 732.394 807.569C754.394 851.219 774.604 881.409 774.604 881.409L807.834 929.239C807.834 929.239 786.734 964.069 777.304 970.569C767.874 977.069 622.944 781.819 622.944 781.819L622.934 781.809Z"/><path fill="#3B4573" d="M707.922 927.929L713.112 901.129L754.522 885.449L768.582 904.459L707.922 927.929Z"/><path fill="#6D7AA9" d="M692.452 909.898L754.512 885.448C754.512 885.448 693.862 764.138 647.312 763.668C600.762 763.198 622.862 833.258 653.892 866.638C684.922 900.018 692.452 909.898 692.452 909.898Z"/><path fill="#6D7AA9" d="M707.922 927.929L768.582 904.459L785.942 927.269C797.602 942.589 792.232 964.569 774.782 972.909C761.742 979.139 746.042 975.579 737.052 964.339L707.922 927.929Z"/><path stroke="#3B4573" stroke-linecap="round" stroke-linejoin="round" stroke-width="12" d="M800.092 845.128C800.092 845.128 800.092 833.438 789.512 831.488"/><path stroke="#3B4573" stroke-linecap="round" stroke-linejoin="round" stroke-width="12" d="M827.102 859.889C827.102 859.889 839.912 868.239 839.632 878.819"/><path fill="#9FA9CF" d="M1152.27 737.14C1193.59 737.14 1227.08 703.646 1227.08 662.33C1227.08 621.013 1193.59 587.52 1152.27 587.52C1110.95 587.52 1077.46 621.013 1077.46 662.33C1077.46 703.646 1110.95 737.14 1152.27 737.14Z"/><path fill="#3B4573" d="M946.209 424.42H783.109C747.211 424.42 718.109 453.521 718.109 489.42V673.79C718.109 709.688 747.211 738.79 783.109 738.79H946.209C982.108 738.79 1011.21 709.688 1011.21 673.79V489.42C1011.21 453.521 982.108 424.42 946.209 424.42Z"/><path fill="#6D7AA9" d="M603.763 595.52C603.763 595.52 590.163 624.29 612.653 630.04C612.653 630.04 605.333 661.42 629.393 660.38L620.563 673.74C614.533 682.86 616.173 695.04 624.403 702.24C631.303 708.28 641.253 709.41 649.283 704.97C656.063 701.23 663.653 696.12 668.093 690.19C668.093 690.19 686.403 703.79 704.703 669.27C704.703 669.27 730.333 684.44 730.853 656.19C731.373 627.94 719.343 607.55 704.703 600.22C690.063 592.89 658.153 603.36 658.153 603.36C658.153 603.36 660.973 593.64 659.723 587.67C656.693 573.19 603.893 584.58 603.753 595.52H603.763Z"/><path fill="#fff" d="M982.009 495.96C981.789 505.17 988.879 512.91 998.079 513.5C1030.84 515.6 1100.14 524.44 1089.3 561.61C1075.18 610.02 1047.95 621.11 1047.95 621.11L1067.11 644.31C1067.11 644.31 1156.87 602.96 1149.81 553.55C1143.23 507.5 1073.6 478.09 998.849 479.19C989.659 479.33 982.239 486.76 982.019 495.96H982.009Z"/><path fill="#6D7AA9" d="M957.979 607.361C957.979 607.361 931.739 609.481 932.419 629.271C933.099 649.051 954.329 651.181 954.329 651.181C954.329 651.181 934.519 670.281 944.419 683.731C954.329 697.171 970.599 690.101 970.599 690.101C970.599 690.101 959.989 704.961 973.429 718.401C986.869 731.841 1003.85 724.061 1003.85 724.061C1003.85 724.061 1057.46 714.501 1063.56 660.131C1063.56 660.131 1073.32 661.811 1090.64 655.321C1097.43 652.771 1099.87 644.401 1095.48 638.631L1065.27 598.791C1061.2 593.421 1053.26 593.031 1048.68 597.991L1039.16 608.301C1039.16 608.301 1016.29 561.041 975.639 573.241C975.639 573.241 945.879 583.071 957.959 607.371L957.979 607.361Z"/><path stroke="#3B4573" stroke-linecap="round" stroke-linejoin="round" stroke-width="12" d="M975.201 617.369C975.201 617.369 960.93 615.539 957.98 607.359"/><path fill="#E8EBF7" d="M718.112 503.689V547.349C693.392 549.199 656.942 557.619 643.872 590.059C642.372 593.779 638.972 596.399 634.992 596.899C634.522 596.959 634.052 596.989 633.592 596.989C627.732 596.989 622.782 592.329 622.562 586.289C621.822 566.599 628.532 527.849 688.262 510.899C699.442 507.719 709.352 505.379 718.112 503.689Z"/><path fill="#9FA9CF" d="M947.169 480.02C939.549 480.02 933.37 472.94 933.37 464.21C933.37 407 901.52 360.45 862.37 360.45C823.22 360.45 791.37 407 791.37 464.21C791.37 472.94 785.19 480.02 777.57 480.02C769.95 480.02 763.77 472.94 763.77 464.21C763.77 428.65 773.69 395.08 791.7 369.69C810.39 343.34 835.49 328.83 862.37 328.83C889.25 328.83 914.349 343.34 933.039 369.69C951.049 395.08 960.969 428.65 960.969 464.21C960.969 472.94 954.789 480.02 947.169 480.02Z"/><path fill="#3B4573" d="M1277.55 976.49H1205.52C1196.77 976.49 1189.67 983.584 1189.67 992.335C1189.67 1001.09 1196.77 1008.18 1205.52 1008.18H1277.55C1286.31 1008.18 1293.4 1001.09 1293.4 992.335C1293.4 983.584 1286.31 976.49 1277.55 976.49Z"/><path fill="#3B4573" d="M1419.82 977.24H1347.79C1339.04 977.24 1331.94 984.334 1331.94 993.085C1331.94 1001.84 1339.04 1008.93 1347.79 1008.93H1419.82C1428.58 1008.93 1435.67 1001.84 1435.67 993.085C1435.67 984.334 1428.58 977.24 1419.82 977.24Z"/><path fill="#3B4573" d="M958.09 867.49C938.12 873.82 925.63 867.19 920.09 848.49L958.09 787.17C975.17 780.26 988.07 788.28 998.68 804.44L958.09 867.48V867.49Z"/><path fill="#3B4573" d="M1028.04 883.899L1039.18 861.619C1046.51 846.959 1041.18 829.129 1027.01 820.899L998.68 804.449L948.59 883.039L1028.04 883.899Z"/><path fill="#3B4573" d="M1217.8 769.359H1071.58C1052.73 769.359 1037.44 784.644 1037.44 803.499C1037.44 822.354 1052.73 837.639 1071.58 837.639H1217.8C1236.66 837.639 1251.94 822.354 1251.94 803.499C1251.94 784.644 1236.66 769.359 1217.8 769.359Z"/><path fill="#fff" d="M917.309 562.03C917.309 529.21 890.699 502.6 857.879 502.6C825.059 502.6 798.449 529.21 798.449 562.03C798.449 581.07 807.409 598 821.329 608.87L806.899 664.25H912.119L897.109 606.64C909.489 595.75 917.309 579.8 917.309 562.02V562.03Z"/><path stroke="#3B4573" stroke-linecap="round" stroke-linejoin="round" stroke-width="12" d="M700.039 629.35C700.039 629.35 708.859 645.82 704.709 669.27"/><path stroke="#3B4573" stroke-linecap="round" stroke-linejoin="round" stroke-width="12" d="M668.35 636.619C668.35 636.619 679.26 664.289 668.09 690.189"/><path stroke="#3B4573" stroke-linecap="round" stroke-linejoin="round" stroke-width="12" d="M636.672 629.35C636.672 629.35 623.442 634.37 612.652 630.04"/><path stroke="#3B4573" stroke-linecap="round" stroke-linejoin="round" stroke-width="12" d="M978.34 649.49C978.34 649.49 968.47 654.9 954.32 651.17"/><path stroke="#3B4573" stroke-linecap="round" stroke-linejoin="round" stroke-width="12" d="M992.712 676.99C992.712 676.99 985.022 688.82 970.602 690.09"/></g><defs><clipPath id="a"><rect width="1624.66" height="1688.05" fill="#fff" transform="translate(178 106)"/></clipPath></defs></svg>