<svg xmlns="http://www.w3.org/2000/svg" xmlns:xlink="http://www.w3.org/1999/xlink" enable-background="new 0 0 800 600" viewBox="0 0 800 600"><path fill="none" stroke="#feb856" stroke-miterlimit="10" d="M616.3,263.1c0,0.6,0,1.2,0,1.8c-0.8,100-66.8,184.5-157.7,213c-3.1,1-6.2,1.9-9.3,2.7
			c-61.2,16.3-126.5,6-179.8-28.2c-3-1.9-5.9-3.9-8.7-5.9c-19.6-14-36.9-31.1-51.1-50.5c-2.1-2.9-4.1-5.8-6.1-8.7
			c-0.3-0.5-0.7-1-1-1.5c-1.3-2-2.6-4.1-3.9-6.1c-8.1-13.3-14.8-27.5-19.9-42.2c0-0.1-0.1-0.3-0.1-0.4
			c-40.6-117.6,21.6-245.8,139-286.4s245.6,21.6,286.2,139.1C612.1,213.3,616.3,238.1,616.3,263.1z"/><path fill="#f7d6ab" fill-rule="evenodd" d="M609.2,262c0,0.6,0,1.1,0,1.7c-0.4,55.6-22.4,109-61.3,148.7l-0.1,0.1c-0.6,0.6-1.1,1.1-1.7,1.7
			c-7.5,7.5-15.5,14.4-24,20.7l-0.6,0.4c-0.1,0.1-0.2,0.1-0.2,0.2c-18.6,13.6-39.3,24.2-61.2,31.2l-1.4,0.5
			c-1.8,0.6-3.5,1.1-5.3,1.6c-1.2,0.3-2.4,0.7-3.5,1c-28.9,7.6-59,9.2-88.5,4.7c-1-0.2-2.1-0.3-3.1-0.5c-2-0.3-4-0.7-6-1.1l-0.9-0.2
			c-26.1-5.3-50.9-15.4-73.3-29.9c-2.8-1.8-5.6-3.7-8.3-5.6c-18.8-13.4-35.2-29.7-48.9-48.3c-2-2.7-3.9-5.5-5.8-8.3
			c-0.3-0.5-0.6-1-1-1.5c-1.3-1.9-2.5-3.9-3.7-5.9c-7.7-12.7-14.1-26.3-19-40.3l-0.1-0.4c-34.5-99.8,8.4-209.9,101.4-259.9
			c1.6-0.9,3.2-1.7,4.9-2.5c30-15.2,63.2-23.1,96.9-23c9.5,0,18.9,0.6,28.3,1.8c26.7,3.5,52.5,12,76,25.1c2.8,1.5,5.5,3.2,8.3,4.8
			l0.7,0.4c3.8,2.4,7.6,4.9,11.3,7.5c37.4,26.6,65.3,64.5,79.7,108.1c2.5,7.5,4.5,15.2,6.2,23C607.7,232.4,609.2,247.2,609.2,262z" clip-rule="evenodd"/><line x1="210.8" x2="580.1" y1="416.6" y2="416.6" fill="none" stroke="#fff" stroke-miterlimit="10" stroke-width=".5"/><line x1="210.8" x2="580.1" y1="423.6" y2="423.6" fill="none" stroke="#fff" stroke-miterlimit="10" stroke-width=".5"/><linearGradient id="a" x1="486.719" x2="548.108" y1="972.879" y2="972.879" gradientTransform="translate(0 -598)" gradientUnits="userSpaceOnUse"><stop offset="0" stop-color="#f35927"/><stop offset="1" stop-color="#f35927"/></linearGradient><path fill="none" stroke="url(#a)" stroke-miterlimit="10" stroke-width=".5" d="M521.4,435.3c-8.2-5-28.1-19-34.4-42.9c0,0,8.3-7.3,25.3-12.4c0,0-17.6-29.2-6.3-39.8
			c11.3-10.6,16.5,3,22.2,2.5s4-8.4,1.6-12.1s-7.5-12.9,0-15.9s23.8,17.2,15.8,40.6c-1.7,4.8-3,9.7-4.1,14.7
			c-3.4,16.6-0.7,28.5,6.3,42.5l-13,12L521.4,435.3z"/><path fill="#ff8d6b" fill-rule="evenodd" d="M547.8,412.5c-0.6,0.6-1.1,1.1-1.7,1.7c-7.7,7.6-16,14.5-24.8,20.9c-1.7-0.8-8.3-4.8-16-12.1
			c-8.8-8.3-15.1-18.9-18.3-30.5c0,0,8.3-7.4,25.3-12.4c0,0-17.6-29.2-6.3-39.8c11.3-10.6,16.5,3,22.2,2.5s4-8.4,1.6-12.1
			s-7.5-12.9,0-15.9s23.8,17.2,15.8,40.6c-0.5,1.5-1,3-1.5,4.4C537.6,379.8,539.1,397.1,547.8,412.5z" clip-rule="evenodd"/><linearGradient id="b" x1="566.34" x2="538.38" y1="1016.329" y2="998.939" gradientTransform="translate(0 -598)" gradientUnits="userSpaceOnUse"><stop offset="0" stop-color="#f35927"/><stop offset="1" stop-color="#f35927" stop-opacity=".4"/></linearGradient><path fill="url(#b)" fill-rule="evenodd" d="M547.9,412.4c-0.6,0.6-1.2,1.2-1.8,1.8c-7.7,7.7-15.9,14.7-24.6,21.1c-5.8-3.6-11.2-7.7-16.1-12.4
			c0.8-2.3,2.3-4.4,4.2-6c7.8-6.9,17.4-11.3,21.6-31.1c3.8-17.9,6.6-23.7,13-26.1c-1.1,3.4-2,6.9-2.6,10.4
			C538.8,384.5,541,399.4,547.9,412.4z" clip-rule="evenodd"/><path fill="none" stroke="#fff" stroke-miterlimit="10" stroke-width=".5" d="M484.7,394.9c15.3,0.2,26,7.5,39.9,11.5"/><path fill="#fff" d="M529.9,315.1c2.8,4.1,4.9,8.5,6.3,13.2c0.7,2.3,1.1,4.8,1.1,7.2c0,2.5-0.4,4.9-1.1,7.3
			c-1.5,4.7-3.4,9.2-5.6,13.5c-1,2.2-2.1,4.4-3,6.7s-1.9,4.5-2.7,6.8c-1.7,4.6-2.9,9.3-3.5,14.1c-0.3,2.4-0.3,4.8-0.2,7.3
			c0.2,2.4,0.6,4.8,1.1,7.2c0.5,2.4,1.2,4.7,2.1,7c0.8,2.3,1.8,4.5,2.8,6.7c2.1,4.4,4.7,8.6,7.7,12.4l-0.1,0.1
			c-3.1-3.8-5.7-8-7.9-12.4c-1.1-2.2-2.1-4.4-2.9-6.7c-0.9-2.3-1.6-4.6-2.2-7c-0.6-2.4-1-4.8-1.1-7.3c-0.2-2.5-0.1-4.9,0.2-7.4
			c0.6-4.9,1.8-9.6,3.5-14.2c0.8-2.3,1.8-4.6,2.7-6.8s2-4.5,3-6.7c2.3-4.3,4.2-8.8,5.7-13.5c0.7-2.3,1.1-4.7,1.1-7.2
			c0-2.4-0.4-4.8-1.1-7.2c-1.4-4.7-3.5-9.1-6.2-13.2L529.9,315.1z"/><path fill="#fff" d="M505.2,341c2.3,1,4.6,2.2,6.7,3.5c2.2,1.3,4.3,2.7,6.3,4.2s3.9,3.1,5.8,4.9c1.8,1.7,3.5,3.6,5.1,5.5l-0.3,0.2
			c-1.6-1.9-3.3-3.8-5.1-5.5s-3.7-3.3-5.8-4.8c-2-1.5-4.1-2.9-6.2-4.1c-2.1-1.3-4.4-2.4-6.7-3.4L505.2,341z"/><path fill="none" stroke="#fff" stroke-linecap="round" stroke-linejoin="round" stroke-width=".5" d="M574.2,356.9c-42.6-6.7-49.7,49.5-49.7,49.5"/><path fill="#fff" d="M534.5,424.6c0.2-0.1,0.1-0.2,0.1-0.2v-0.1c0-0.1-0.1-0.2-0.1-0.3c0-0.2,0-0.4,0-0.5c0-0.3,0-0.7,0-1
			c0-0.7,0.1-1.4,0.2-2.1c0.1-1.4,0.3-2.7,0.6-4.1c0.6-2.7,1.4-5.4,2.4-7.9c2.1-5.1,5.2-9.8,9.1-13.7c4-3.8,8.6-6.9,13.7-9.1
			c5.1-2.2,10.4-3.8,15.8-4.7c0.1,0,0.3,0.1,0.3,0.2l0,0c0,0.1-0.1,0.3-0.2,0.3l0,0c-5.4,0.8-10.7,2.3-15.8,4.5s-9.7,5.2-13.7,9
			c-3.9,3.9-7,8.5-9.2,13.6c-1,2.5-1.8,5.2-2.4,7.9c-0.3,1.4-0.5,2.7-0.6,4.1c-0.1,0.7-0.1,1.4-0.2,2.1c0,0.3,0,0.7,0,1
			c0,0.2,0,0.3,0,0.5c0,0.1,0,0.2,0.1,0.2v0.1c0,0,0,0.1,0.2,0c0.1,0.1,0,0.3-0.1,0.3C534.7,424.7,534.6,424.7,534.5,424.6
			L534.5,424.6z"/><path fill="#f1c388" d="M274.9,349.9c-6.1,11.3-24.4,3.5-23.3,16.2c0.7,7.8,6.2,7.7,12,8.5c3.5,0.5,7.2,1.3,9.9,4.5H214
			c-1.3-1.9-2.5-3.9-3.7-5.9c-7.7-12.7-14.1-26.3-19-40.3l-0.1-0.4c3.9-3.9,10-6.6,16.8-3.4c5.3,2.5,7.1,1.3,7.2-1.9
			c0.1-4.2-2.8-12-4.7-19.3c-0.3-1.1-0.5-2.2-0.5-3.3c-0.2-9.4,12.4-9,22.6-4c6.4,3.1,7.9-1.1,7.9-7.6c0-3.7-0.4-8.1-0.8-12.4
			c4.2-2.5,8.2-6.2,12-9.6c1.3-1.2,2.6-2.3,3.9-3.3c1.6-1.3,3.3-2.4,5.2-3.3c0.4-0.1,0.7-0.3,1.1-0.4l0.6-0.2
			c1.6-0.4,3.2-0.6,4.8-0.5c0.4,0,0.8,0,1.2,0.1c5.2,0.5,7.8,3.9,8.9,8c0.1,0.3,0.1,0.5,0.2,0.8c1.2,5.8-17.7,19.7-17.8,29.4
			c-0.1,9.3,8.5-1.5,11.7,6.1c0.2,0.4,0.3,0.8,0.4,1.3c2.7,10.1-13,15-17.6,23.2c-3.6,6.5,5,7.1,11.1,6.8c1.6-0.1,3-0.2,4-0.3
			C274.1,338.3,281,338.6,274.9,349.9z"/><path fill="none" stroke="#fff" stroke-linecap="round" stroke-linejoin="round" stroke-width=".5" d="M260.3,378.6c8.6-12,26.1-23.6,43.5-19.1" enable-background="new" opacity=".55"/><path fill="none" stroke="#fff" stroke-linecap="round" stroke-linejoin="round" stroke-width=".5" d="M276.7,363.9c3.1-1.3,6.5-2.1,9.9-2.5c10-0.9,17,3.6,19.7,11.8" enable-background="new" opacity=".55"/><path fill="none" stroke="#fff" stroke-linecap="round" stroke-linejoin="round" stroke-width=".5" d="M210.3,373.2c-7.7-12.7-14.1-26.3-19-40.3c3.9-3.8,9.9-6.4,16.7-3.2c5.6,2.6,7.3,1.2,7.2-2.4
			c-0.1-4.3-2.9-11.8-4.7-18.8c-0.4-1.2-0.5-2.5-0.5-3.8c0.3-8.9,12.6-8.5,22.6-3.5c6.5,3.2,8-1.3,7.9-8.1c0-3.6-0.4-7.8-0.8-11.9
			c-0.1-1.7-0.3-3.4-0.3-5c-0.2-2.6,0.1-5.2,1-7.7c2.5-5.9,9.3-6.5,19.5-4.2c0.3,0.1,0.6,0.1,0.9,0.2c0.4,0.1,0.7,0.1,1.1,0.1
			c1.8,0.1,3.7-0.1,5.4-0.7c0.4-0.1,0.8-0.3,1.2-0.4c9.8-3.9,18.1-16.4,25.7-18.2c4.8-1.1,8.2-0.5,10.6,1.1c2.4,1.7,4,4.4,4.5,7.3
			c1.2,5.8-17.7,19.7-17.8,29.4c-0.1,8.7,7.5-0.2,11,4.9c0.5,0.8,0.9,1.6,1.1,2.5c2.8,10.1-13,15-17.6,23.2s10.4,7,15.1,6.5
			s11.6-0.2,5.5,11.1s-24.4,3.5-23.2,16.2c1,11.4,12.2,5.9,19.5,10.9c0.9,0.6,1.7,1.3,2.4,2.1c7.1,8.6-2.7,19-2.7,19H251
			c0-0.2-0.1-0.3-0.1-0.5" enable-background="new" opacity=".55"/><path fill="none" stroke="#fff" stroke-linecap="round" stroke-linejoin="round" stroke-width=".5" d="M304.9,246.2l-0.1,0.1c-2.8,2.1-6,3.7-8.6,5.9c-6.8,5.8-13.1,12.2-18.8,19.2c-4.3,5.3-8.4,10.8-12.2,16.6
			c-8.6,13-15.7,27.6-17.9,42.6c-1.1,7.3-0.6,14.2,0,21.5c0.7,9.1,1.9,18.1,3.6,27.1c0,0.2,0.1,0.3,0.1,0.5s0,0.2,0.1,0.4" enable-background="new" opacity=".55"/><path fill="none" stroke="#fff" stroke-linecap="round" stroke-linejoin="round" stroke-width=".5" d="M247,334.9c2.3-4.1,3.6-8.7,6.1-12.7c3.1-4.9,8.1-8.6,13.4-11.7c6.9-4,14.6-7.1,21.8-10.7
			c5.9-3,11.5-6.2,14.1-11.9" enable-background="new" opacity=".55"/><path fill="none" stroke="#fff" stroke-linecap="round" stroke-linejoin="round" stroke-width=".5" d="M248.8,364.5c2.4-7.2,5.2-14.8,10.9-20.6c10.5-11,31.5-17,47.7-14.9" enable-background="new" opacity=".55"/><path fill="none" stroke="#fff" stroke-linecap="round" stroke-linejoin="round" stroke-width=".5" d="M240.4,268.4c1.9-0.1,3.8,0,5.8,0.3c5.6,0.8,8.2,4.2,9.7,8.6c1.3,4.2,2.2,8.4,2.7,12.8c0.3,2,0.3,4.4,1.1,6.3
			" enable-background="new" opacity=".55"/><path fill="none" stroke="#fff" stroke-linecap="round" stroke-linejoin="round" stroke-width=".5" d="M250.5,263.4c2.5,1.7,4.8,3.8,6.8,6.1c3.5,4.5,4.8,10.7,4.8,16c0,2.4-0.4,4.9-0.1,7.2" enable-background="new" opacity=".55"/><path fill="none" stroke="#fff" stroke-linecap="round" stroke-linejoin="round" stroke-width=".5" d="M210.8,301.8c2.3,2.1,5,3.7,7.3,5.7c5.8,4.8,10.9,10.4,15.1,16.6c2.9,4.5,5.3,9.3,8.2,13.8
			c1.2,1.9,2.7,4.6,5,5.6" enable-background="new" opacity=".55"/><path fill="#fff" fill-rule="evenodd" d="M438.6,522.7l-1.4,2l0,0c-1,1.3-2.1,2.6-3.3,3.7c-1.3,1.3-2.9,2.7-4.7,4.2l-0.4,0.4c-1,0.9-2.1,1.7-3.1,2.6
			c-1.7,1.4-3.5,2.7-5.2,4c-4.8,3.5-9.9,6.6-15.2,9.2c-1.1,0.5-1.9,0.9-2.4,1.1c-0.1,0.1-0.2,0.1-0.4,0c-0.1-0.1-0.2-0.2-0.2-0.3
			c0-1,0.1-1.9,0.3-2.9c0.3-1.3,0.8-2,0.6-2.8c-0.5-3.1-1.8-13.1-2.1-14.7V529c-0.7-3.4-1.7-6.5-1.7-9.9l0,0l0.4-3.3
			c0.2-0.5,0.5-1,0.9-1.4c3.3-3.5,12.3-3.9,15.8-6c2.5-1.5,3.6-3.6,4.7-6.2c0.1,0.3,0.2,0.5,0.4,0.8c1.4,2.1,3,4.2,4.7,6.2
			c0.7,0.8,1.4,1.6,1.9,2.1c0.3,0.3,0.6,0.5,0.9,0.7c1.4,0.7,5.5,5.5,7,7.3l2.1,2.8l0,0l0.1,0.2L438.6,522.7z" clip-rule="evenodd"/><path fill="#f7d6ab" d="M438.2,522.2c-4.9,6.4-17.3,17-25.1,21.5c-3.2,1.9-6.8,2.9-10.5,3c0.3-1.3,0.8-2,0.6-2.8
			c-0.5-3.1-1.8-13.1-2.1-14.7V529c-0.7-3.4-1.7-6.5-1.7-9.9l0,0l0.4-3.3c0.2-0.5,0.5-1,0.9-1.4c3.3-3.5,12.3-3.9,15.8-6
			c2.5-1.5,3.6-3.6,4.7-6.2c0.1,0.3,0.2,0.5,0.4,0.8c1.4,2.1,3,4.2,4.7,6.2c0.7,0.8,1.4,1.6,1.9,2.1c0.3,0.3,0.6,0.5,0.9,0.7
			c1.4,0.7,5.5,5.5,7,7.3L438.2,522.2L438.2,522.2z"/><path fill="#feb856" fill-rule="evenodd" d="M316,380.5v8.3h-95.3c-2-2.7-3.9-5.5-5.8-8.3H316z" clip-rule="evenodd"/><path fill="#fff" fill-rule="evenodd" d="M463.3,50.4c-26.7,17.1-54.3,32.9-63.4,63.7c-4.4,14.9-7.2,31.4-4.2,47.1c5.8,30.5,24.6,59.2,26.8,90.4
			c1.5,21.1-13.4,49.6-38.5,53.3c-5.7,0.8-9.2-8-10.6-11.8c-4.7-12.5-3-28.8-12.5-39.9c-14-16.5-48.5-1.4-51.7-28.6
			c-2.5-21.5,24.2-38,15.4-60.4c-11.9-30.2-77.2-13.3-75.7-52.9c0.3-10.3,2.7-20.4,7.1-29.7c26.6-20.6,57.7-34.7,90.7-41
			c9.3-1.8,18.7-3,28.1-3.5C405,35.2,435.1,39.7,463.3,50.4z" clip-rule="evenodd"/><polyline fill="none" stroke="#000" stroke-linecap="round" stroke-linejoin="round" points="385.6 386.8 385.6 391.2 375.3 391.2"/><path fill-rule="evenodd" d="M388.8,389.5h-6.3c-0.6,0-1.1-0.5-1.1-1.1l0,0v-2.9h8.6v2.9C389.9,389,389.4,389.5,388.8,389.5L388.8,389.5
			L388.8,389.5z" clip-rule="evenodd"/><line x1="432.3" x2="362.6" y1="393.4" y2="446.8" fill="none" stroke="#000" stroke-linecap="round" stroke-linejoin="round"/><line x1="436.2" x2="363.1" y1="397.5" y2="454" fill="none" stroke="#000" stroke-linecap="round" stroke-linejoin="round"/><line x1="376.4" x2="448.2" y1="400.6" y2="450.6" fill="none" stroke="#000" stroke-linecap="round" stroke-linejoin="round"/><line x1="378" x2="448.2" y1="395.1" y2="444.9" fill="none" stroke="#000" stroke-linecap="round" stroke-linejoin="round"/><path fill="#905e3b" fill-rule="evenodd" d="M357.1,473.8l19.7-76.3c0.5-1.9-0.6-3.8-2.5-4.3s-3.8,0.6-4.3,2.5l-12.9,50.1l-6.9,26.7L357.1,473.8z" clip-rule="evenodd"/><path fill="#feb856" fill-rule="evenodd" d="M380.7,386.8l-19.5,87.6c-1-0.2-2.1-0.3-3.1-0.5c-2-0.3-4-0.7-6-1.1l6-27.1l13.6-61c0.5-2.5,3-4.1,5.5-3.6
			s4.1,3,3.6,5.5C380.7,386.7,380.7,386.7,380.7,386.8L380.7,386.8z" clip-rule="evenodd"/><path fill="#ff8d6b" fill-rule="evenodd" d="M419,509.4l-8,2.3c-1.8,0.5-9.1,5.2-10.4,3.5c-4-5-7-12.3-10.3-17.7c-2.9-4.7-7.1-7.9-11.3-11.4l20.3-13.7
			l3.3,3.1c4.1,6.4,9.5,11.7,13.4,18.2c2.3,3.8,4.9,7.5,7,11.4C423.8,506.8,419,509.4,419,509.4z" clip-rule="evenodd"/><path fill="#ff8d6b" fill-rule="evenodd" d="M478,496.1c0,1,0,2.1,0,3.3c-0.1,5-0.2,11-0.2,11.4c0,2.1,0,6.2,0,6.2l-28-1.1c0.4,0,2-2,1-3.6
			c-0.8-1.2-0.5-5.2-1-9.2c-0.1-1.2,0.1-2.4,0.6-3.5c1-1.8,1.9-3.6,2.8-5.5c0.5-1,1-2.1,1.4-3l0.1-0.3l0.5-5
			c0.6-0.7,1.1-1.5,1.6-2.2l0.5-0.8c0.3-0.5,0.5-0.9,0.7-1.4s0.4-0.8,0.6-1.2c1.1-2.5,2.1-5,2.8-7.6c0,0,18.3,0.6,18.3,1.5
			c-0.2,2-0.6,4-1.2,6c-0.2,0.7-0.3,1.3-0.4,2c-0.1,0.8-0.1,1.7,0,2.5c0.1,0.6,0.1,1.3,0.1,1.9c-0.1,0.3,0,3,0,5.5L478,496.1z" clip-rule="evenodd"/><path fill="#2c303a" fill-rule="evenodd" d="M496,424.2c-1.6,9.4-3.6,18.7-5.6,28c-0.9,4.6-1.9,9.2-2.8,13.9c-0.5,2.5-2.9,7.5-2.7,9.9h0.5
			c0.3,0,0.6,0,0.9,0c0.5,0.1-1.6,12-3,12.6s-23.1,1.8-30.4-5l0,0c-0.5-0.4-0.9-0.9-1.2-1.5c-0.1-1.8-0.1-3.6,0.1-5.4
			c0.1-1.5,0.5-2.9,1.3-4.2c0.4-0.6,0.9-1,1.5-1.2c0.1,0,0.2,0,0.4-0.1s0-0.2,0-0.5c0.1-2.8,0.6-16.7,0.6-17.1
			c0.4-10.4-2-21.3-1.9-31.9c0.1-14.2,2.7-28.2,2.8-42.3l0,0c0-0.2,0-0.5,0-0.7c0-1,0-1.9-0.2-2.9c-0.3-0.6-0.6,1.7-5.9,1.7h-0.5
			c-3.6-0.2-7.2-0.7-10.8-1.5l-1.4-0.3c-0.1,0-0.2,0-0.3-0.1c-1.4-0.3-2.8-0.6-4.3-0.8h-0.3c-1.5-0.2-3-0.3-4.5-0.4
			c-2-0.1-4-0.2-6-0.2c-3.2,0-6.3,0.1-9.4,0h-2.2h-2.8h-0.5h-2.2h-0.5h-0.5l-1.6,0.1l-2.9,0.2c-6,0.4-11.9,1.2-17.8,2.4
			c-1.5,0.3-5.8,1.2-10.4,2.5c-1.3,0.4-2.7,0.8-4,1.3c-4.6,1.6-8.6,3.7-9,6.1c0,0.1,0,0.2,0,0.4c0,0.6,0.2,1.1,0.5,1.6
			c5.2,9.1,12,17.4,17.4,26.4c5.1,8.5,9.5,17.3,13.1,26.5c2.1,5.2,6.5,12.6,7.2,18.2h0.3c1.4,0.2,2.6,0.8,3.6,1.8
			c1.7,2.3,2.8,5,3.1,7.8c0,0.2,0,0.5,0,0.7c-0.4,1.1-1,2.2-1.7,3.1c-0.9,1.3-2.1,2.4-3.3,3.5l-0.7,0.5c-1.2,0.9-2.8,2-4.6,3.1
			c-5.4,3.4-12.7,7.1-15.8,6.8c0,0-5.4-4.3-6.2-8.5c0-0.3-0.1-0.6-0.1-0.9L357.1,463c-5.4-5.7-8.7-13.6-13.3-20
			c-6.8-9.3-12.6-19.3-17.5-29.8c-3.7-8.1-6.8-16.5-11.3-24.1c-2.1-3.6-4.6-7.1-6.3-10.9c-7.2-16.4,1.9-33.7,17.1-40.6
			c6.2-2.8,12.5-5.9,18.9-8.5c4.4-1.9,8.9-3.4,13.6-4.7c1.4-0.4,2.9-0.7,4.4-1c6.7-1.2,21.8-3,32.1-4.8c1.6-0.3,3.1-0.5,4.4-0.8
			l0.5-0.1l0.4-0.1c2.2-0.4,4.4-0.6,6.6-0.5c9.1,0.1,21.2,2.4,26,2.4c0.6,0,1.1-0.1,1.6-0.2c4.8-1.9,10.3-2.7,15.4-3.8
			c7.3-1.6,15.3-4.4,22.8-2.9c0.8,0.1,1.6,0.4,2.4,0.8c1,0.8,1.8,1.8,2.4,2.9c2.3,3.5,5.7,5.9,9,8.4c4.1,3.2,7.2,7.5,9.1,12.4
			c0.4,1.1,0.8,2.3,1.2,3.4c2.3,8.2-0.4,16,1.2,24.4c0.2,1.2,0.4,2.5,0.6,3.7v0.1C501,387.2,499.2,406,496,424.2z" clip-rule="evenodd"/><path fill="#ffba56" fill-rule="evenodd" d="M445.9,317.1v4c0,2.2-1.8,4-4,4h-63c-2.5,0-4.6-2-4.6-4.6v-3.4H445.9z" clip-rule="evenodd"/><rect width="1" height="11" x="395.3" y="317.1" fill="#2c303a"/><rect width="1" height="10" x="420.3" y="317.1" fill="#2c303a"/><path fill="none" stroke="#2c303a" stroke-miterlimit="10" stroke-width=".5" d="M386.3,318.8c-1.6,0.1-3.1,0.7-4.2,1.8c-0.5,0.4-0.9,1-1.1,1.6c-0.1,0.6-0.2,1.2-0.1,1.7
			c0,0.5,0.1,0.9,0.2,1.3s0.4,0.8,0.9,1"/><path fill="none" stroke="#2c303a" stroke-miterlimit="10" stroke-width=".5" d="M435.6,318.3c1.6,0.1,3.1,0.7,4.2,1.8c0.5,0.4,0.9,1,1.1,1.6c0.1,0.6,0.2,1.2,0.1,1.7c0,0.4-0.1,0.9-0.2,1.3
			s-0.4,0.8-0.9,1"/><path fill="#fff" fill-rule="evenodd" d="M415.8,265.1c-1.3,6.4-2,12.6-1,17c0.9,3.7,1.8,8.2,2.7,12.8c1.9,9.1,3.9,18.4,5.6,22c-0.4,0-0.7,0-1.1,0
			c-2.6-0.1-5.1,0-7.7,0.4l-4.2-0.1l-0.5,0.3c-5.8-0.1-11.5,0.6-17.1,2l-26.6,6.3c0.6-14.8,3.9-87.4,5.9-96.2
			c0.5-2.2,1.3-4.3,2.4-6.4c2.8-5.1,6.3-9.9,10.3-14.1l1.4,0.6c0.6,0.2,1.4,2.2,2.2,2c0.5-0.2,1.1-0.2,1.6-0.1
			c1.7,0.2,2.9,1.3,3.5,1.5s4.5,1.1,4.6-0.5c0.1-1.8,0.4-2.9,3.7-4.6c1-0.7,2-1.3,3.1-1.7c0.1,0,0.2-0.1,0.3-0.1
			c0.3-0.1,0.7-0.1,1,0c0.8,0.2-0.4,0.3,0.2,0.5c1,0.3,1.6,0.6,1.6,0.6s3.7,5.9,7.5,12.7c4.3,7.7,8.7,16.4,8,18.9
			C422.5,241.7,418.1,253.7,415.8,265.1z" clip-rule="evenodd"/><path fill="#fff" fill-rule="evenodd" d="M598.5,194.9c-3.2,0.2-7.8,1-8.3,1c-9.7,0.1-19.4,0.1-29.1,0.6c-25.5,1.2-50.4,7.8-73.1,19.2
			c-21,10.6-40,24.4-58.3,39.1c-14.5,11.6-28.5,23.7-43.1,35.2c-0.1,0.1-0.1,0.1-0.2,0.1l4.8-3.9c3.2-2.6,6.3-5.2,9.4-7.8
			c9.4-8,18.4-16.6,27-25.5c38.4-40.8,59.2-61.5,63.6-88.8c7.2-44.4-34.9-61.3-23-98.4c0.5-1.6,1.1-3.3,1.9-4.8
			c9.9,3.7,19.4,8.2,28.6,13.3c2.8,1.5,5.5,3.2,8.3,4.8l0.7,0.4c3.8,2.4,7.6,4.9,11.3,7.5C556.2,113.4,584.1,151.3,598.5,194.9z" clip-rule="evenodd"/><path fill="none" stroke="#fff" stroke-linecap="round" stroke-linejoin="round" stroke-width=".5" d="M598.1,261.7c0-112.8-91.5-204.3-204.3-204.3s-204.3,91.5-204.3,204.3l0,0c0,0.5,0,1.1,0,1.6
			c0.4,52.9,21.3,103.5,58.3,141.3l0.1,0.1c0.5,0.5,1.1,1.1,1.6,1.6c7.1,7.1,14.7,13.7,22.8,19.7l0.6,0.4c0.1,0.1,0.2,0.1,0.2,0.2
			c17.7,13,37.3,23,58.2,29.7l1.3,0.4c1.7,0.5,3.3,1,5,1.5c1.1,0.3,2.2,0.6,3.4,0.9"/><polyline fill="none" stroke="#000" stroke-linecap="round" stroke-linejoin="round" points="422.1 385.8 422.1 390.2 432.3 390.2"/><path fill="#feb856" fill-rule="evenodd" d="M277.9,388.9v53.9c-2.8-1.8-5.6-3.7-8.3-5.6v-48.3H277.9z" clip-rule="evenodd"/><rect width="23" height="24" x="243.3" y="336.1" fill="none"/><path fill="none" stroke="#f35927" stroke-miterlimit="10" stroke-width=".5" d="M333.9,98.8c-2.7,12.6-8.3,26-17.5,36.1c-5,5.6-11.5,9.7-18.7,11.7c-18.7,5-33.7-6.9-49.9-13.9
			c-18-7.8-38.2-4.3-49.9,12.4c-15.4,22-11.6,54.3,6.8,73.3c5.4,5.6,12,9.9,19.2,12.7c8.3,3.1,17.6,3.3,24.8,9
			c1.7,1.3,3,2.9,3.9,4.8c2,4.6-0.1,10-3.2,13.9c-6.7,8.7-16.9,12.2-25.2,19c-5.4,4.4-10.1,10-12.5,16.6c-2,6-2.4,12.5-1.1,18.7
			c1,5.4,3.2,10.8,7,14.8c11,11.6,31.8,8.5,40.2,23.2" enable-background="new" opacity=".5"/><polygon fill="#fff" fill-rule="evenodd" points="438.7 534.9 438.6 535 438.6 535 438.1 535.3 437.8 535.5 437.7 535.5 438.1 535.3 438.6 535 440.3 533.6" clip-rule="evenodd"/><path fill="#fff" fill-rule="evenodd" d="M442.1,529.7c-0.2-0.7-0.4-1.4-0.7-2.1l0.6,1.8L442.1,529.7z" clip-rule="evenodd"/><path fill="#b72e42" fill-rule="evenodd" d="M475.9,514.6l-24.3-1.8c0-1.5,0-3.1,0.2-4.6c1.2-0.4,2.4-0.5,3.6-0.4c1.1,0.1,2.2,0.5,3.4,0.6
			c1.5,0.1,3.1,0,4.6-0.3c2.3-0.3,4.6-0.8,6.8-1.6c1.3-0.5,2.5-1.1,3.6-1.9c0.4,1.8,1,4.1,1.6,4.7S475.9,514.6,475.9,514.6z" clip-rule="evenodd"/><linearGradient id="c" x1="444.594" x2="465.234" y1="1124.703" y2="1136.263" gradientTransform="translate(0 -598)" gradientUnits="userSpaceOnUse"><stop offset="0" stop-color="#e2e3e3"/><stop offset="1" stop-color="#e2e3e3" stop-opacity="0"/></linearGradient><path fill="url(#c)" fill-rule="evenodd" d="M452.5,539.9c-0.4,2.6-1.4,5.1-2.9,7.2l0.3-2.6c0.5-1.8,0.5-11.5-0.2-13.2s-2.1-13.7-1.5-18.9
			c0-0.2,0.5-0.4,1.2-0.6c1.2,1.9,1.2,4.3,1.8,6.5c1,4-0.2,5.4,0.4,13C452,537.1,452.8,537.3,452.5,539.9z" clip-rule="evenodd"/><path fill="#feb856" fill-rule="evenodd" d="M291.2,346.5l0.7,1.3L291.2,346.5z" clip-rule="evenodd"/><path fill="#905e3b" fill-rule="evenodd" d="M454.1,468.5l-21.6-71.7c-0.6-1.8,0.3-3.8,2.1-4.5c1.8-0.6,3.8,0.3,4.5,2.1c0,0.1,0.1,0.2,0.1,0.3l21.6,71.6
			L454.1,468.5z" clip-rule="evenodd"/><path fill="#feb856" fill-rule="evenodd" d="M458.5,467.2c-2.9,0.9-5.9,1.8-8.9,2.5l-22.4-84.3c-0.6-2.5,0.8-5,3.3-5.6c2.4-0.6,4.9,0.8,5.6,3.2
			L458.5,467.2z" clip-rule="evenodd"/><path fill="#f7d6ab" fill-rule="evenodd" d="M401,514.8l-0.2-1.5c-0.1-1.3-0.2-2.5-0.1-3.8c0.2-3,1.4-5.8,3.5-8c2.1-2.3,5.7-4,8.8-2.8
			c2.5,1,3.8,3.5,5.8,5.1c0.7,0.6,1.4,1.2,2.1,1.8c0.2,0.2,2.4,2.8,2.3,1.9C422.5,511.1,401,514.8,401,514.8z" clip-rule="evenodd"/><path fill="#f7d6ab" fill-rule="evenodd" d="M475.9,514.6l-24.3-1.8c0-1.5,0-3.1,0.2-4.6c0.6-4.9,2.7-11.8,9.6-10.3c10.5,2.3,11.8,4,12.2,5.9
			c0.1,0.3,0.1,0.6,0.2,0.9c0.4,1.8,1,4.1,1.6,4.7S475.9,514.6,475.9,514.6z" clip-rule="evenodd"/><path fill="#f7d6ab" fill-rule="evenodd" d="M486.9,545.2l-30.3,1.8l-7.1,0.4V547l0.3-2.6c0.5-1.8,0.5-11.5-0.2-13.2s-2.1-13.7-1.5-18.9
			c0-0.2,0.5-0.4,1.2-0.6c0.9-0.4,1.9-0.2,2.5,0.6c0.1,0.1,0.2,0.1,0.3,0.2c2.3,1.1,13.5-1.4,18-0.5c0.3,0.1,0.6,0.1,0.9,0.1
			c3.7,0.5,5.9-0.6,7-0.2c0.1,0,0.3,0.1,0.4,0.2c1,1.1,1.2,4.2,0.5,6.5s1.5,18.7,4.5,20.6C484.1,539.9,486.3,544,486.9,545.2z" clip-rule="evenodd"/><path fill="none" stroke="#e68f26" stroke-linejoin="round" d="M465.1,513.8c-2.2,0.1-4.1-1.3-4.6-3.4l-33.3-125.6c-0.7-2.4,0.7-5,3.1-5.7s5,0.7,5.7,3.1
				c0,0.1,0,0.1,0.1,0.2L469.4,508c0.7,2.5-0.8,5-3.3,5.6C465.8,513.8,465.5,513.8,465.1,513.8"/><path fill="#feb856" fill-rule="evenodd" d="M456.2,376.1c-3.7,3.8-13.3,6.3-20.1,7.8s-31.3,2-51.2,1.6s-27.1-3.2-27.1-3.2l6.9-5.1l11.2-8.3l45.7-6
			c0,0,15.4,3.8,25.7,7.6C453.4,372.6,457.6,374.7,456.2,376.1L456.2,376.1z" clip-rule="evenodd"/><path fill="#e68f26" fill-rule="evenodd" d="M447.5,369.6c-9,7.4-39.3,13.5-67.1,9.2c-3.3-0.5-9.7-1.5-15.6-3.1l11.2-7.5l45.7-5.4
			C421.8,362.8,437.2,366.2,447.5,369.6L447.5,369.6z" clip-rule="evenodd"/><defs><path id="d" d="M377.9,371.6c-4.5,1.2-21.8,5.9-21.8,12c0,1.5,1.1,2.9,2.4,4c0-0.1,0-0.2,0-0.4c0.4-2.4,4.4-4.5,9-6.1
						c1.3-0.5,2.6-0.9,4-1.3c4.6-1.3,8.9-2.2,10.4-2.5c10.2-2,20.6-2.9,31-2.7c1.8,0,3.6,0,5.4,0c3.3,0,6.6-0.1,9.9,0.1
						c1.5,0.1,3,0.2,4.5,0.4h0.3c1.4,0.2,2.8,0.5,4.3,0.8c0.1,0,0.2,0.1,0.3,0.1c4,1,8,1.6,12.1,1.8h0.5c5.3,0,5.6-2.3,5.9-1.7
						c0.2,0.9,0.3,1.9,0.2,2.9c0,0.2,0,0.5,0,0.7c1.1-2.4,1.8-4.9,0.8-7c-2.2-5-11.2-2.7-38-4c-4.6-0.2-8.6-0.3-12.3-0.3
						C393.6,368.2,385.3,369.6,377.9,371.6z"/></defs><clipPath id="e"><use overflow="visible" xlink:href="#d"/></clipPath><g clip-path="url(#e)"><linearGradient id="f" x1="-785.535" x2="-784.535" y1="615.804" y2="615.804" gradientTransform="scale(48.04 -48.04) rotate(-88.09 -710.509 -106.054)" gradientUnits="userSpaceOnUse"><stop offset="0"/><stop offset="1"/></linearGradient><polygon fill="url(#f)" points="355.4 367.6 458.2 364.2 458.9 387.5 356.2 390.9"/></g><path fill="#fff" fill-rule="evenodd" d="M485.7,543.2c0.5,0.7,0.8,1.5,1,2.3c0.1,0.5,0.2,1.1,0.3,1.7c0.4,3,0.4,6-0.2,8.9c-0.4,2.5-2.4,4-4.9,5
			c-5.8,2.4-14.8,1.6-14.8,1.6s-15.6-1.6-16.9-5.3c-0.1-0.2-0.1-0.4-0.2-0.7c-0.6-2.7-0.8-5.4-0.6-8.1c0-0.2,0-0.4,0-0.6l0.1-2.1
			L485.7,543.2z" clip-rule="evenodd"/><path fill="#f7d6ab" fill-rule="evenodd" d="M486.9,556.4c-1.4,8.4-19.7,6.9-19.7,6.9s-15.6-1.7-16.9-5.5c-0.8-2.3-0.8-7.6-0.7-10.6
			c0.1,2.1,1.6,9.5,16.1,9.7c20.4,0.2,20.5-6.9,20.4-8.3c0-0.4,0.2-3,0.8-3.5C487.3,548.8,487.3,552.6,486.9,556.4L486.9,556.4z" clip-rule="evenodd"/><path fill="#ff8d6b" fill-rule="evenodd" d="M410.7,191.6c-0.5,3.2-3.3,5.6-4.2,7.8c-2.9,7.6-1.6,6.6-2,6.7c-1,0.5-2,1-2.9,1.6c-0.9,0.5-1.7,1.1-2.5,1.7
			c-0.7,0.6-1.1,1.4-1.2,2.3c0,0.4,0,0.8-0.2,1.1c-0.5,0.6-2.4,0.6-3.1,0.5c-0.9-0.2-1.8-0.5-2.5-1.1c-0.7-0.5-1.6-0.8-2.5-0.8
			c0,0-1.5-4.4-1.8-4.8c-0.6-0.9-1.6-1.4-2.6-1.2c-1,0-0.5-2-1.6-2.9s-5.7-4.7-7.1-8.4c-1.1-3.3-1.9-6.8-2.3-10.2c0-0.3,0-1,0-1.7
			c0-1.9,0-4.3,0-4.3l35-2.3c0.9,2.4,1.5,4.9,1.7,7.4C410.9,185.8,410.9,188.7,410.7,191.6L410.7,191.6z" clip-rule="evenodd"/><path fill="#f35927" d="M374,177.8c0,0,0,2.5,0,4.3c5.8,4.4,12.8,13.1,14,18.5c1.5,6.5,14.3-9.9,21.7-17c-0.3-4.1-0.7-8.2-0.7-8.2
				L374,177.8z"/><path fill="#ff8d6b" fill-rule="evenodd" d="M416.3,145.9c-0.4,1.9-0.8,3.9-1,5.9c-0.2,0.8-0.4,2.9-0.5,4.5c0,0.2,0,0.3,0,0.5c-0.1,1.7-2,2.3-2.3,2.4
			s0.1,5.4,0,8.2s-3.2,8-5.1,13.1s-6.8,12.4-15,12.4c-1.4,0-2.7-0.3-4-0.9c-6.7-2.8-12.9-11.4-14.4-13.4c-0.6-0.9-1.1-1.8-1.5-2.8
			c-1.1-2.5-2.4-6-3.2-8.3c-0.5-1.5-0.9-2.5-0.9-2.5c-1.2,0-2.3-0.4-3.3-1.1c-1.4-1.2-4.3-9.5-4.7-10.8c-0.1-0.4-0.4-1.2-0.7-2.2
			c-0.6-2.1-1.3-4.9-0.3-5.5c0.5-0.3,1.2-0.1,2,0.4c1,0.6,1.9,1.2,2.7,2c0.1,0.8,0.5,1.4,1.1,1.9c1,0.6,3.3-0.6,6-0.7s2.4-3.5,1-5.3
			s-0.1-3.2,1.4-5.8c0.3-0.5,0.8-1,1.3-1.3c2.8-1.9,11-9,14.6-8.2c4.3,1.1,5.7,5.1,9.5,4c2.8-0.8,8.6-2.7,11.4-2.3
			c1,0.1,1.7,0.6,1.7,1.4c0.2,3.3-2,11.8-1.4,12.1s2.5-0.3,3.2-2.1s2.7-2.5,2.9-0.6c0.2,1.6,0,3.2-0.6,4.7L416.3,145.9z" clip-rule="evenodd"/><path fill="#ff8d6b" fill-rule="evenodd" d="M416.3,145.9c-0.4,1.9-0.8,3.9-1,5.9c-0.2,0.8-0.4,2.9-0.5,4.5c0,0.2,0,0.3,0,0.5c-0.1,1.7-2,2.3-2.3,2.4
			s0.1,5.4,0,8.2s-3.2,8-5.1,13.1s-6.8,12.4-15,12.4c-1.4,0-2.7-0.3-4-0.9c-6.7-2.8-12.9-11.4-14.4-13.4c-0.6-0.9-1.1-1.8-1.5-2.8
			c-1.1-2.5-2.4-6-3.2-8.3c-0.5-1.5-0.9-2.5-0.9-2.5c-1.2,0-2.3-0.4-3.3-1.1c-1.4-1.2-4.3-9.5-4.7-10.8c-0.1-0.4-0.4-1.2-0.7-2.2
			c-0.6-2.1-1.3-4.9-0.3-5.5c0.5-0.3,1.2-0.1,2,0.4c1,0.6,1.9,1.2,2.7,2c0.1,0.8,0.5,1.4,1.1,1.9c1,0.6,3.3-0.6,6-0.7s2.4-3.5,1-5.3
			s-0.1-3.2,1.4-5.8c0.3-0.5,0.8-1,1.3-1.3c2.8-1.9,11-9,14.6-8.2c4.3,1.1,5.7,5.1,9.5,4c2.8-0.8,8.6-2.7,11.4-2.3
			c1,0.1,1.7,0.6,1.7,1.4c0.2,3.3-2,11.8-1.4,12.1s2.5-0.3,3.2-2.1s2.7-2.5,2.9-0.6c0.2,1.6,0,3.2-0.6,4.7L416.3,145.9z" clip-rule="evenodd"/><path fill="#5e1212" d="M383.5,161.8c0.2,0.8-0.3,1.5-1.1,1.7c-0.7,0-1.3-0.6-1.3-1.5c-0.2-0.8,0.3-1.5,1.1-1.7
			C382.8,160.2,383.4,160.9,383.5,161.8z"/><path fill="#feb856" fill-rule="evenodd" d="M401,111.5h-0.2c-1.4-0.2-10.1-1.2-15.4-0.9c-0.4,0-1,0.1-1.5,0.2l-0.3,0.1c-6.1,1-16.3,5.2-18.6,6.8
			c0,0,1.6-2.5,3.9-5.5c2.2-2.9,4.6-5.7,7.1-8.3c2.5-2.5,5.5-3.4,9-3.7c1.4-0.2,2.8-0.1,4.1,0.3c2.7,0.9,4.3,3.5,6.2,5.3
			c1.2,1.1,2.3,2.2,3.4,3.4C399.1,109.7,400.4,111.5,401,111.5L401,111.5z" clip-rule="evenodd"/><path fill-rule="evenodd" d="M425.2,388.8h-6.3c-0.6,0-1.1-0.5-1.1-1.1V385h8.6v2.7C426.3,388.4,425.8,388.9,425.2,388.8L425.2,388.8z" clip-rule="evenodd"/><path fill="#fff" fill-rule="evenodd" d="M439.5,524c0.8,1.2,1.4,2.4,2,3.7c0.3,0.7,0.5,1.4,0.7,2.1l0.2,1.5c-0.6,0.9-1.3,1.7-2.1,2.4l-1.5,1.4
			l-1,0.5l-1,0.2c0,0,1.5,2.4,0.9,3.7c-0.6,0.8-1.2,1.4-2,2c-2.7,2.3-7.3,5.8-9.5,7.3l-1,0.7c-0.2,0.1-0.5,0.3-0.7,0.4
			c-1.5,0.9-5,3.3-8.5,5.7l-7.9,5.5c-1.4-1.2-2.7-2.6-3.8-4l-0.6-0.8c-0.5-0.6-0.9-1.3-1.3-2l0,0c-0.3-0.5-0.5-1.1-0.5-1.6
			c0-0.9,0-1.8,0.2-2.7c0,0,11.2-5.3,19.3-11.5c4.2-3.2,9.1-7.1,12.5-10.3c1.2-1.1,2.2-2.2,3.2-3.5l1.4-2L439.5,524z" clip-rule="evenodd"/><path fill="#f35927" fill-rule="evenodd" d="M364.9,155.1c0.1-0.1,0.1-0.2,0.2-0.3c0.7-0.7,0.8-1.8,0.1-2.5c-0.1-0.2-0.3-0.3-0.5-0.4
			c-0.2-0.1-0.3-0.2-0.4-0.3c-0.4,0.6-0.9,1.2-1.5,1.7c-0.2,0.2-0.4,0.3-0.5,0.5c-0.5,0.8-0.4,2.9,0.5,3.5c0.4,0.3,1.8,0.4,2-0.1
			c0-0.1,0-0.2,0-0.3C364.7,156.2,364.8,155.7,364.9,155.1L364.9,155.1z" clip-rule="evenodd"/><path fill="none" stroke="#fff" stroke-linecap="round" stroke-linejoin="round" stroke-width=".5" d="M381.9,167.2h-2.8c-3,0.1-5.6-2-6-5l-0.7-6.5h18.8l-0.5,4.1C390.3,164.1,386.5,167.2,381.9,167.2z"/><path fill="#feb856" d="M381.9,167.2h-2.8c-3,0.1-5.6-2-6-5l-0.7-6.5h18.8l-0.5,4.1C390.3,164.1,386.5,167.2,381.9,167.2z" enable-background="new" opacity=".15"/><path fill="none" stroke="#fff" stroke-linecap="round" stroke-linejoin="round" stroke-width=".5" d="M405,165.1l-2.5,0.4c-2.8,0.4-5.5-1.3-6.2-4.1l-1.6-6.3l17.1-2.6l0.2,4.1C412.2,160.9,409.2,164.5,405,165.1z
			"/><line x1="391.1" x2="395.1" y1="157.2" y2="157.2" fill="none" stroke="#fff" stroke-linecap="round" stroke-linejoin="round" stroke-width=".5"/><path fill="#fff" fill-rule="evenodd" d="M360.7,288.7c0.2,2-0.8,3.9-2.6,4.7c-1.1,0.5-2.1,0.9-3.2,1.3c-0.4,0.1-2.1,0.9-3.8,1.4l0,0
			c-0.6,0.2-1.2,0.4-1.7,0.5c-0.2,0.1-0.5,0.2-0.9,0.4c-4.7,2.3-7.6,7.2-7.4,12.5c0,0,0.9,1.4,1.4,5.3s0.3,9.1,1.3,10.4
			s1.6,2.4,1.5,3s-1.5,3.2-2.3,3.3c-0.4,0-2.3,0.2-3.8,0.2c-1,0.1-2.1-0.4-2.7-1.2c-1.4-1.7-2.7-3.6-3.8-5.5
			c-0.1-0.2-0.2-0.5-0.3-0.7c-1.5-3.4-2.2-7-2.3-10.7c0.1-3.3,0.3-6.1-0.4-6.9s-2.6-3.4-2.5-9.3l-0.7-55.9c0.1-1.9,0.5-17.2,8.2-25
			c1.1-1.1,2.3-2,3.7-2.8c0,0,3.1,5.5,5.8,11.2c1.5,3,2.7,6.1,3.5,9.3L360.7,288.7z" clip-rule="evenodd"/><path fill="#fff" fill-rule="evenodd" d="M459.9,305.9c0,0-0.4,2.6-1.5,3.2c-0.7,0.6-1.2,1.3-1.7,2.1c-0.8,1.3-1.6,2.8-1.9,3.2
			c-0.6,0.4-1.2,0.6-1.9,0.7c-1.2,0.3-2.5,0.7-2.6,1.4c-0.1,0.3-0.3,0.5-0.5,0.8c-1.7,1.6-3.4,3-5.4,4.3c-3.2,0.7-6.6,1-9.9,0.8
			c-1.6-0.1-3.1-0.2-4.7-0.5l0,0c-2.4-0.5-4.6-1.5-6.5-3.1c-2.5-2.1-4.7-4.7-6.3-7.6c-0.5-1-1.1-1.9-1.8-2.8
			c-0.3-0.4-0.5-0.7-0.9-1.1c-2.3-2.8-3.8-6.2-4.3-9.8c-0.4-3.3-0.9-7.2-1.4-10.9v-0.1c-0.7-8.3-1.6-43.5-1.6-48.2
			c0-2.8-0.5-8,0.3-12.3c0.8-1.4,2-2.5,3.4-3.4l-0.9-2.1c0.4-0.4,0.8-0.7,1.3-1c0,0-5.5-9-6.5-12.5c-0.1-0.3-0.1-0.5-0.2-0.7l0,0
			c-0.1-0.4-0.1-0.8-0.1-1.1c0.2-1.8,0.7-3.5,1.5-5.1c0.3-0.7,0.7-1.4,1-2.1l0.2-0.4c0.2-0.4,0.4-0.8,0.6-1.2c1.8-3.7,2.3-4,2.2-7.4
			c0-0.5,0-1,0-1.6c0-3.7,0.1-9.2-0.8-10.9c0,0,0.2-2.3,2.1-0.9s7.1,7.6,7.4,9c0,0,0,0,0,0.1c0.1,0.4,0.6,0.6,1.2,0.7
			c0,0,25.9,5.4,26.6,5.4c1.4,0.1,8.5-0.2,10.8,0.2s-5.3,1.2-6.8,14.4s-4.6,37.8-4.8,42.3s-0.9,12.3,0.4,14.9s2.2,5.6,2.2,6.6
			s-0.7,3,1.1,4.8s-2.6,8.4-0.2,13c2.3,3.8,5.6,6.9,9.6,8.9C461.1,296.6,460.5,304.9,459.9,305.9z" clip-rule="evenodd"/><path fill="#fff" fill-rule="evenodd" d="M457.3,190.9c2.3,0.4-5.3,1.2-6.8,14.4s0.3,36.3,0.1,40.9s0.9,11.9,2.2,14.6s-4.5,7.3-4.5,8.3
			s-1.2,3.9,1.1,4.8c3.3,1.2,11.5,4.6,3.4,12.4c-3.7,3.5,3.8,8.6,6.1,9.4s1.6,9.2,1.1,10.2c0,0-0.4,2.6-1.5,3.2
			c-0.7,0.6-1.2,1.3-1.7,2.1c-0.8,1.3-1.6,2.8-1.9,3.2c-0.6,0.4-1.2,0.6-1.9,0.7c-1.1-1-2.2-2-3.5-2.8c-10-6.8-18-12.6-21.6-24.7
			c-4.6-15.5,5.9-28.9,7.6-44c1.7-14.4-21.2-19.2-13.2-33.4c1.4-2.5-8,1.6-15.3-12.3c-0.1-0.2,0-0.4,0.2-0.4c18.8-5,2-8.8,4.8-10.1
			c3-1.5,4.9-1.4,6.6-2.6l0,0c0.1,0.4,0.6,0.6,1.2,0.7L457.3,190.9z" clip-rule="evenodd"/><path fill="none" d="M459.9,305.9c0,0-0.4,2.6-1.5,3.2c-0.7,0.6-1.2,1.3-1.7,2.1c-0.8,1.3-1.6,2.8-1.9,3.2
			c-0.5,0.7-4.3,0.9-4.6,2.1c-0.1,0.3-0.3,0.5-0.5,0.8c-1.7,1.6-3.4,3-5.4,4.3c-3.2,0.7-6.6,1-9.9,0.8c-1.6-0.1-3.1-0.2-4.7-0.5l0,0
			c-4.1-0.9-8.3-3.3-12.8-10.7c-0.5-1-1.1-1.9-1.8-2.8c-0.3-0.4-0.5-0.7-0.9-1.1c-2.3-2.8-3.8-6.2-4.3-9.8
			c-0.9-6.8-2.1-16.5-2.2-20.4c-0.2-6.3-1-45.1-1.1-46.9s-0.7-4.4,4-7.6c0,0-6.6-14.3-6.4-17.4c0.2-1.8,0.7-3.5,1.5-5.1
			c0.3-0.7,0.7-1.4,1-2.1c0.2-0.5,0.5-1,0.8-1.6c1.8-3.7,2.3-4,2.2-7.4s0.2-10.5-0.9-12.4c0,0,0.2-2.3,2.1-0.9s7.1,7.6,7.4,9
			c0.1,0.4,0.6,0.6,1.3,0.7c0,0,25.9,5.4,26.6,5.4c1.4,0.1,8.5-0.2,10.8,0.2s-5.3,1.2-6.8,14.4s-4.6,37.8-4.8,42.3
			s-0.9,12.3,0.4,14.9s2.2,5.5,2.2,6.5s-0.7,3,1.1,4.8s0.3,6.8,2.8,11.4s4.5,9.6,6.7,10.5S460.5,304.8,459.9,305.9"/><path fill="#fff" fill-rule="evenodd" d="M404,309.2c-1,4.4-6.3,6.8-9.9,8.8c-6.7,3.9-13,5-20.4,6.9c-3.8,1-7.7,2.3-11.6,3c-3.9,0.5-7.7,1.2-11.5,2.1
			c-0.9,0.3-1.9,0.5-2.8,0.5c-0.6-0.1-1.2-0.2-1.8-0.2c-1.1,0.1-2.1,0.9-3.1,1.4c-1.6,0.8-3.4,0.9-5.1,0.3h-0.1
			c0.1-0.2,0.3-0.3,0.5-0.4c2.1-1.8,5.1-2.5,7.5-3.8l0.2-0.1c2.3-1.4,3.2-5,7-8c3.5-2.8,5.7-22.6,6.1-26.1c0-0.4,0.1-0.5,0.1-0.5
			c2.8-2.5-1.1-6.8-1.5-8.2c-0.3-0.8-0.1-1.7,0.4-2.4c-1.5-2.5-2.4-5.4-2.7-8.3c-0.3-4.8-0.5-7.4-0.5-7.4c-0.3-1.4-0.8-2.8-1.3-4.2
			c-1-2.6-2.4-5.9-3.4-8.1c-0.5-1.2-0.9-2.2-1-2.6c-0.1-0.3-0.1-0.7-0.1-1c-0.1-3.1-0.3-6.1-0.8-9.2c-0.7-3.6-1.5-6.8-1.7-8.2
			c-0.4-3-7.9-19.5-7.9-19.5s16.5-10.4,17.6-10.7c0.3-0.1,13.5-8.2,13.5-8.2c0-0.3,0-0.6,0-0.9c0.4-4.1,4.5-10.2,4.5-10.2
			s1.1,7.6,2.5,10.7c0.4,0.9,1,1.7,1.7,2.4c2.3,2.6,5.8,5.2,5.8,5.6c0.1,0.6,0.4,1.2,0.8,1.7c0.5,0.7,1.2,1.3,2,1.6
			c1.8,0.8,4.8,12.9,5,14s-0.4,18.8-0.4,21s-1,11.1-1.2,14.4c-0.1,2.8-1,9.9-1.7,14.2c-0.1,0.8-0.3,1.5-0.4,2
			c-0.4,1.8-0.1,6.3,0.2,10.5c0.3,3.7,0.7,7.2,0.7,8.5c0,2.9,11.4,9.2,12.8,9.8S405.2,303.9,404,309.2z" clip-rule="evenodd"/><path fill="#fff" fill-rule="evenodd" d="M381.1,317.7c-5.8,7.2-22.5,8.4-35.2,9.8c2.3-1.4,3.2-5,7-8c3.2-2.5,3.7-9.7,4.3-13.4c0.7-4,1.2-7.9,2-11.8
			c0.5-2.2-0.6-5.3-1.5-7.4c-0.8-2-1.3-4.1-1.8-6.2c-0.4-1.5-0.1-2.7-0.5-4.3c-0.5-2.2-0.9-4.5-1.2-6.8c-0.8-7.2-4.7-12.4-6.2-19.2
			s-2.2-14.9-4.6-21.7c-1.8-5.1-2.9-10.2-5.2-15.2c0.1-0.1,16.5-10.4,17.6-10.7c0.3-0.1,13.5-8.2,13.5-8.2c0-0.3,0-0.6,0-0.9
			c2.3,2,3.6,4,4.8,8.9c1,3.9,10.2-1.4,10.8,2.6c0.9,6.6-13.1,13.7-12.9,16.9c0.2,2.7,5.3,2.2,7.2,3.8c3.9,3.1,3.4,8.7,2.6,13.6
			c-1.2,7.5-6.6,13.8-9.6,20.7c-2.6,5.9-3.1,12.5-3,18.9c-0.1,6.4,1.5,12.8,4.6,18.4C377.9,304.4,386.8,310.7,381.1,317.7z" clip-rule="evenodd"/><path fill="none" d="M404,309.2c-1,4.4-6.3,6.8-9.9,8.8c-6.7,3.9-13,5-20.4,6.9c-3.8,1-7.7,2.3-11.6,3c-3.9,0.5-7.7,1.2-11.5,2.1
			c-0.9,0.3-1.9,0.5-2.8,0.5c-0.6-0.1-1.2-0.2-1.8-0.2c-1.1,0.1-2.1,0.9-3.1,1.4c-1.6,0.8-3.4,0.9-5.1,0.3h-0.1
			c0.1-0.2,0.3-0.3,0.5-0.4c2.1-1.8,5.1-2.5,7.5-3.8s3.3-5,7.1-8.1c3.5-2.8,5.7-22.6,6.1-26.1c0-0.4,0.1-0.5,0.1-0.5
			c2.8-2.5-1.1-6.8-1.5-8.2c-0.3-0.8-0.1-1.7,0.4-2.4c-1.5-2.5-2.4-5.4-2.7-8.3c-0.3-4.8-0.5-7.4-0.5-7.4c-0.3-1.4-0.8-2.8-1.3-4.2
			c-1-2.6-2.4-5.9-3.4-8.1c-0.5-1.2-0.9-2.2-1-2.6c-0.1-0.3-0.1-0.7-0.1-1c-0.1-3.1-0.3-6.1-0.8-9.2c-0.7-3.6-1.5-6.8-1.7-8.2
			c-0.4-3-7.9-19.5-7.9-19.5s16.5-10.4,17.6-10.7c0.3-0.1,13.5-8.2,13.5-8.2c-0.2-4,4.5-11.1,4.5-11.1s1.1,7.6,2.5,10.7
			c0.4,0.9,1,1.7,1.7,2.4c2.3,2.6,5.8,5.2,5.8,5.6c0.1,0.6,0.4,1.2,0.8,1.7c0.5,0.7,1.2,1.3,2,1.6c1.8,0.8,4.8,12.9,5,14
			s-0.4,18.8-0.4,21s-1,11.1-1.2,14.4c-0.1,2.8-1,9.9-1.7,14.2c-0.1,0.8-0.3,1.5-0.4,2c-0.4,1.8-0.1,6.3,0.2,10.5
			c0.3,3.7,0.7,7.2,0.7,8.5c0,2.9,11.4,9.2,12.8,9.8S405.2,303.8,404,309.2"/><path fill="none" d="M429.4,229.7c1.9,2,3.4,4.4,4.5,6.9c0.9,1.6,1.3,3.4,1.4,5.2c0,1.1-0.1,2.1-0.3,3.2
				c-0.3,1.8-1.4,8.1-2.1,8.2c-3.4,0.8-6.6,3.2-9.1-0.6c-0.6-1.1-1-2.3-1.2-3.5c0-3-1.9-8.4-1.9-8.4s-0.5-1.7-1-3.7
				c-0.3-1.1-0.4-2.2-0.6-3c-0.6-2.9-0.5-4.1-0.1-4.9c0.9-1.9,2.3-1.4,3.8-2.4c1-0.4,1.7-1.4,1.6-2.5
				C424.5,224.2,428.7,228.9,429.4,229.7z"/><path fill="#fff" fill-rule="evenodd" d="M418.8,206.6c0,0-0.7,0.6-4.1-0.5s-3.2-6.8-3.9-8.3s-2-0.6-2.1,0.3c-0.1,0.5-1,0.1-1.7-0.2
			c0.2-0.5,0.5-1,0.8-1.6c1.8-3.7,2.3-4,2.2-7.4s0.2-10.5-0.9-12.4c0,0,0.2-2.3,2.1-0.9s7.1,7.5,7.4,9L418.8,206.6z" clip-rule="evenodd"/><path fill="#eddcd0" fill-rule="evenodd" d="M418.6,184.5l0.6,21.6c0,0-0.3,0.3-1.4,0.1c0.1,0,0.3-0.1,0.4-0.1l-0.3-22.9
			C418.2,183.7,418.4,184.1,418.6,184.5z" clip-rule="evenodd"/><path fill="#eddcd0" fill-rule="evenodd" d="M415.1,205.3c-3.5-1.2-3.2-6.8-3.9-8.3s-2-0.6-2.1,0.3c-0.1,0.5-0.8,0.2-1.5-0.1l-0.2,0.4
			c0.7,0.4,1.6,0.8,1.7,0.2c0.1-0.9,1.4-1.7,2.1-0.3s0.5,7.1,3.9,8.3s4.1,0.6,4.1,0.6v-0.5C419.1,205.9,418.4,206.4,415.1,205.3z" clip-rule="evenodd"/><path fill="#e89129" fill-rule="evenodd" d="M477.9,542.5c0-0.7-0.5-1.2-1.2-1.2s-1.2,0.5-1.2,1.2s0.5,1.2,1.2,1.2S477.9,543.1,477.9,542.5L477.9,542.5z
			" clip-rule="evenodd"/><path fill="none" stroke="#e89129" stroke-miterlimit="10" d="M456,542.7c0,0,10.1-10,21,0"/><path fill="#e89129" fill-rule="evenodd" d="M457.4,542.4c0-0.7-0.5-1.2-1.2-1.2s-1.2,0.5-1.2,1.2s0.5,1.2,1.2,1.2S457.4,543.1,457.4,542.4L457.4,542.4z
			" clip-rule="evenodd"/><path fill="#e89129" fill-rule="evenodd" d="M421,528c-0.4-0.4-1.1-0.5-1.5,0s-0.5,1.1,0,1.5c0.4,0.4,1,0.5,1.4,0.1C421.3,529.2,421.4,528.5,421,528z" clip-rule="evenodd"/><path fill="none" stroke="#e89129" stroke-miterlimit="10" d="M405.5,539.6c0,0,1.3-13.3,14.9-10.9"/><path fill="#e89129" fill-rule="evenodd" d="M406.3,538.7c-0.4-0.4-1.1-0.5-1.5,0c-0.4,0.4-0.5,1.1,0,1.5c0.4,0.4,1,0.4,1.4,0.1
			C406.7,539.9,406.7,539.1,406.3,538.7z" clip-rule="evenodd"/><path fill="#e89129" fill-rule="evenodd" d="M422.3,533.4c-0.3-0.5-1-0.7-1.5-0.4c-0.4,0.4-0.5,1.1-0.1,1.6c0.3,0.5,1,0.7,1.5,0.4
			C422.7,534.6,422.7,533.9,422.3,533.4L422.3,533.4z" clip-rule="evenodd"/><path fill="none" stroke="#e89129" stroke-miterlimit="10" d="M407.8,544.2c0,0,0.8-13,14-10.2"/><path fill="#e89129" fill-rule="evenodd" d="M408.6,543.4c-0.3-0.5-1-0.7-1.5-0.4c-0.4,0.4-0.5,1.1-0.1,1.6c0.3,0.5,1,0.7,1.5,0.4
			C409,544.5,409.1,543.8,408.6,543.4L408.6,543.4z" clip-rule="evenodd"/><path fill="#e89129" fill-rule="evenodd" d="M420.1,521.9c-0.3-0.5-1-0.7-1.5-0.4s-0.7,1-0.4,1.5c0,0.1,0.1,0.1,0.2,0.2c0.3,0.5,1,0.7,1.5,0.4
			s0.7-1,0.4-1.5C420.2,522.1,420.1,522,420.1,521.9z" clip-rule="evenodd"/><path fill="none" stroke="#e89129" stroke-miterlimit="10" d="M404.1,533.8c0,0,1.5-13.5,15.4-11.2"/><path fill="#e89129" fill-rule="evenodd" d="M405,532.9c-0.3-0.5-1-0.7-1.5-0.4s-0.7,1-0.4,1.5c0,0.1,0.1,0.1,0.2,0.2c0.3,0.5,1,0.7,1.5,0.4
			s0.7-1,0.4-1.5C405.2,533,405.1,532.9,405,532.9z" clip-rule="evenodd"/><path fill="#e89129" fill-rule="evenodd" d="M418,516.7c-0.4-0.4-1.1-0.5-1.5,0s-0.5,1.1,0,1.5c0.4,0.4,1,0.5,1.4,0.1C418.4,517.9,418.4,517.2,418,516.7
			z" clip-rule="evenodd"/><path fill="none" stroke="#e89129" stroke-miterlimit="10" d="M402.5,528.3c0,0,1.3-13.3,15-11"/><path fill="#e89129" fill-rule="evenodd" d="M403.3,527.4c-0.4-0.4-1.1-0.5-1.5,0s-0.5,1.1,0,1.5c0.4,0.4,1,0.5,1.4,0.1
			C403.7,528.6,403.7,527.9,403.3,527.4L403.3,527.4z" clip-rule="evenodd"/><path fill="#e89129" fill-rule="evenodd" d="M416.7,511.3c-0.3-0.5-1-0.7-1.5-0.4c-0.5,0.3-0.7,1-0.4,1.5c0,0.1,0.1,0.1,0.2,0.2c0.3,0.5,1,0.7,1.5,0.4
			s0.7-1,0.4-1.5C416.9,511.4,416.8,511.4,416.7,511.3z" clip-rule="evenodd"/><path fill="none" stroke="#e89129" stroke-miterlimit="10" d="M400.8,523.2c0,0,1.5-13.5,15.4-11.3"/><path fill="#e89129" fill-rule="evenodd" d="M401.7,522.3c-0.4-0.5-1.1-0.5-1.6-0.1s-0.5,1.1-0.1,1.6c0.4,0.4,1,0.5,1.5,0.2
			C402,523.5,402.1,522.8,401.7,522.3z" clip-rule="evenodd"/><path fill="#e89129" fill-rule="evenodd" d="M477.3,535.9c0-0.7-0.5-1.2-1.2-1.2s-1.2,0.5-1.2,1.2s0.5,1.2,1.2,1.2l0,0
			C476.8,537.1,477.3,536.5,477.3,535.9L477.3,535.9z" clip-rule="evenodd"/><path fill="none" stroke="#e89129" stroke-miterlimit="10" d="M455.3,536.1c0,0,10.1-10,21,0"/><path fill="#e89129" fill-rule="evenodd" d="M456.8,535.8c0-0.7-0.5-1.2-1.2-1.2s-1.2,0.5-1.2,1.2s0.5,1.2,1.2,1.2l0,0
			C456.2,537.1,456.8,536.5,456.8,535.8z" clip-rule="evenodd"/><path fill="#e89129" fill-rule="evenodd" d="M476.9,529.7c0-0.7-0.5-1.2-1.2-1.2s-1.2,0.5-1.2,1.2s0.5,1.2,1.2,1.2l0,0
			C476.3,530.9,476.9,530.4,476.9,529.7z" clip-rule="evenodd"/><path fill="none" stroke="#e89129" stroke-miterlimit="10" d="M455,529.9c0,0,10.1-10,21,0"/><path fill="#e89129" fill-rule="evenodd" d="M456.4,529.7c0-0.7-0.5-1.2-1.2-1.2s-1.2,0.5-1.2,1.2s0.5,1.2,1.2,1.2l0,0
			C455.8,530.9,456.4,530.3,456.4,529.7z" clip-rule="evenodd"/><path fill="#e89129" fill-rule="evenodd" d="M476.5,523.4c0-0.7-0.5-1.2-1.2-1.2s-1.2,0.5-1.2,1.2s0.5,1.2,1.2,1.2S476.5,524.1,476.5,523.4L476.5,523.4z
			" clip-rule="evenodd"/><path fill="none" stroke="#e89129" stroke-miterlimit="10" d="M454.6,523.6c0,0,10.1-10,21,0"/><path fill="#e89129" fill-rule="evenodd" d="M456,523.4c0-0.7-0.5-1.2-1.2-1.2s-1.2,0.5-1.2,1.2s0.5,1.2,1.2,1.2S456,524.1,456,523.4L456,523.4z" clip-rule="evenodd"/><path fill="#e89129" fill-rule="evenodd" d="M476,517.3c0-0.7-0.5-1.2-1.2-1.2s-1.2,0.5-1.2,1.2s0.5,1.2,1.2,1.2l0,0C475.5,518.5,476,518,476,517.3z" clip-rule="evenodd"/><path fill="#e89129" fill-rule="evenodd" d="M455.5,517.2c0-0.7-0.5-1.2-1.2-1.2s-1.2,0.5-1.2,1.2s0.5,1.2,1.2,1.2l0,0
			C455,518.5,455.5,517.9,455.5,517.2z" clip-rule="evenodd"/><path fill="#f35927" d="M393.7,173.6c8.6,8.6-0.1,13-5.3,18.5c1.3,0.6,2.6,0.9,4,0.9c8.1,0,13.1-7.3,15-12.4s5-10.3,5.1-13.1
				s-0.4-8.1,0-8.2s2.2-0.7,2.3-2.4c0-0.2,0-0.3,0-0.5C403.4,161.5,385.2,165.1,393.7,173.6z"/><path fill="#e68f26" fill-rule="evenodd" d="M401,111.5h-0.2c-1.4-0.2-10.1-1.2-15.4-0.9c-0.4,0-1,0.1-1.5,0.2l-0.3,0.1c-6.1,1-16.3,5.2-18.6,6.8
			c0,0,1.6-2.5,3.9-5.5l26.3-6.6C397.6,108.1,400.2,110.7,401,111.5L401,111.5z" clip-rule="evenodd"/><path fill="#f7d6ab" fill-rule="evenodd" d="M436.8,535.7c0,0,1.5,2.4,0.9,3.7s-11.5,9.6-12.5,10s-8.8,6.8-13.9,10.6c-1,0.7-2.3,0.5-3.1-0.4l-3-4.7
			c0,0-2.6-3.6-3-5.2c1.7,0.7,2.6,0.6,4.8-0.4c7.8-3.4,9.5-4.7,15.3-8.3c1.3-0.8,3.4-2.4,4.9-3.5c8.1-6.1,11.1-10.5,11.1-10.5
			s1.5-1.5,0.2-4.5c1.5,2.3,3.9,6.4,3.8,8.6C442.3,531.2,439.4,535.5,436.8,535.7L436.8,535.7z" clip-rule="evenodd"/><defs><rect id="g" width="2.6" height="3.8" x="451.5" y="330.7"/></defs><clipPath id="h"><use overflow="visible" xlink:href="#g"/></clipPath><path fill="#f35927" fill-rule="evenodd" d="M389.5,173.5c0.2,0.4,0.6,0.7,1.1,0.6l5.4-1.3c0.3-0.1,0.4-0.3,0.4-0.6c0-0.2-0.1-0.3-0.3-0.3
			c-1.6-0.7-4.6-1.7-6.7-0.6c-0.3,0.2-0.4,0.6-0.3,0.9C389.1,172.6,389.3,173.1,389.5,173.5L389.5,173.5z" clip-rule="evenodd"/><path fill="#f35927" d="M389.7,182.5c0,0,7.1,0.8,9-4.7L389.7,182.5z"/><path fill="#f35927" fill-rule="evenodd" d="M386.4,169.1c-0.1,0.5-0.5,0.8-0.9,0.7c-0.5-0.1-0.8-0.5-0.7-0.9c0.1-0.4,0.4-0.7,0.8-0.7
			C386.1,168.2,386.4,168.6,386.4,169.1z" clip-rule="evenodd"/><path fill="#f35927" fill-rule="evenodd" d="M411,163.5c-0.1,0.4-0.5,0.7-0.9,0.6c-0.4-0.1-0.7-0.5-0.6-0.9c0.1-0.3,0.4-0.6,0.7-0.6
			C410.7,162.7,411,163.1,411,163.5z" clip-rule="evenodd"/><path fill="#f35927" fill-rule="evenodd" d="M403.6,172.1c-0.1,0.4-0.5,0.7-0.9,0.6c-0.4-0.1-0.7-0.5-0.6-0.9c0.1-0.3,0.4-0.6,0.7-0.6
			C403.3,171.2,403.6,171.6,403.6,172.1z" clip-rule="evenodd"/><path fill="#f35927" fill-rule="evenodd" d="M380.4,178.6c0,0.4-0.4,0.8-0.8,0.8s-0.8-0.4-0.8-0.8l0,0c0-0.4,0.4-0.8,0.8-0.8S380.4,178.1,380.4,178.6
			L380.4,178.6z" clip-rule="evenodd"/><path fill="none" stroke="#fff" stroke-linecap="round" stroke-linejoin="round" stroke-width=".5" d="M405,165.1l-2.5,0.4c-2.8,0.4-5.5-1.3-6.2-4.1l-1.6-6.3l17.1-2.6l0.2,4.1C412.2,160.9,409.2,164.5,405,165.1z
			"/><line x1="413.4" x2="413.4" y1="152.8" y2="142.8" fill="none" stroke="#fff" stroke-linecap="round" stroke-linejoin="round" stroke-width=".5"/><path fill="#f35927" d="M375.1,136.7c-0.5,0.3-1,0.8-1.3,1.3c-1.5,2.6-2.8,3.9-1.4,5.8s1.7,5.2-1,5.3s-5,1.3-6,0.7
				c-0.6-0.4-1.1-1.1-1.1-1.9c-0.8-0.8-1.7-1.4-2.7-2c-0.7,1.7-3.2,0-1.7,5.1c0.3,0.9,0.6,1.8,0.7,2.2c0.4,1.3,2,5.7,2.7,7.3
				c2.1,4.8,5.2,4.6,5.2,4.6s0.3,1,0.9,2.5c1-0.8,1.2-3.4,1.8-4.1c2.5-2.5,3-5.1,3.9-8.4c0.8-3,3.6-4.3,6.5-5.6
				c1.5-0.7,3.2-0.9,4.9-0.9c7.8,0.3,12.8-5.6,17.9-10.6l3.5-3.3c0.9-0.9,3.1-2.5,2.9-4c0-0.2-0.1-0.3-0.1-0.5
				c-2.9-0.4-8.6,1.5-11.4,2.3c-3.8,1.1-5.2-3-9.5-4c-0.2,0-0.4-0.1-0.6-0.1C385.2,128.5,377.7,135,375.1,136.7z"/><path fill="#5e1213" d="M358.8,133.7c0.5-0.1,1-0.3,1.4-0.6c1-1,1.2-3.1,1.7-4.5c0.4-1.1,0.9-2.2,1.5-3.2c1.4-2.6,3.3-5,5.5-7
			c3.4-2.9,7.5-5,11.8-6.1c7.8-2,12.4-0.6,23.5,2.2c0,0,0.1,2.4,1.4,1.5c3.4-2,7.1,1.8,9.4,6.1s16.9,15.2,1.1,18
			c-1.1,0.2-1.7,1.2-2.3,2.2c-2.9,4.8-1.1,11.3-1.4,16.5c-0.6-3.3-0.7-6.8-1.4-10.1c-1-4.7-2.3-12.4-7.2-14.7
			c-1.3-0.6-4.1,3.2-5,4.1c-1.7,1.5-3.4,3-5.2,4.3c-1.6,1.2-3.5,2.2-5.4,2.9c2.6-3.1,6.8-5.6,8.2-9.9c0.6-1.8-1.7-1.6-2.2-0.3
			c-1,2.4-4,4.7-5.8,6.4c-1.9,1.8-3.9,3.6-6,5.2c-1.4,1.1-3.4,2.8-5.3,2.9c-1.4,0,0.9-2.1,1.2-2.3c3.2-2.7,6.3-5.6,9.1-8.7
			c1.3-1.4,2.8-3,3.4-4.9c0.3-0.9,1-3.2-0.8-2.6c-2.3,0.8-4.4,4.4-5.8,6.1l-6.7,8.3c-0.8,1.1-1.8,2-3,2.7c-4.5,2.1-6.7,7.9-5.8,12.6
			c0.3,1.6,1,3.2,0.6,4.7c0,0.1-0.1,0.2-0.2,0.2s-0.1-0.1-0.2-0.1c-1.6-1.7-1.7-5.6-2.1-7.8c-0.3-1.5-0.5-3-0.9-4.5
			c-0.3-1.3-0.7-2.5-1.2-3.8c-0.5-1.2-2.5-5.2-7.4-3.6c-0.3,0.1-0.9-1.2-0.7-1.4c0.8-0.6,1-1.7,0.4-2.5c-0.1-0.2-0.3-0.4-0.5-0.5
			c-2.3-2-5.1-3.7-5.1-4.7c0-0.6,1.8-0.4,2.1-0.4c0.7,0,1.5,0.1,2.2,0.1c0.5,0,1.5-0.1,1.8-0.6c0.1-0.2,0.2-0.5,0.1-0.7
			c0-0.9-1.4-0.5-1.9-0.5c-0.7,0-0.9-0.2-0.4-0.7s2-0.3,2.8-0.4C358.4,133.9,358.6,133.9,358.8,133.7L358.8,133.7z"/><path fill="#feb856" fill-rule="evenodd" d="M359.8,145.1c-0.1-6,1.2-10.6,2.8-13c3.5-5.2,6.5-9.1,25.4-11.1c22.7-2.5,25.1,3.7,27.7,13.1
			c0.4,1.9,0.6,3.9,0.5,5.9c0,0,1,0.4,0.8,2.4c0,1.3-0.3,2.6-0.8,3.9c-0.5,1.4-0.7,4.5-0.9,6.1c-0.1,1.8-0.4,3.5-0.8,5.2
			c-0.5,0.7-1.2,1.3-2,1.6c-0.1,0-0.2,0.2-0.2,0.3l0.1,2.7c0,0,11.2-9.3,11.4-19.8s0.2-14.6-2.4-18.8s-10.5-12.1-20.2-12.1
			c0,0-9.8-1.5-15.3-1s-17.3,4.4-20.8,7s-12.3,9-13.5,14.3c-1.2,5.3-0.2,14.2,0.9,17s6.1,10.8,9.8,13.8c2,1.8,4.3,3.2,6.8,4.2
			l-0.6-1.7c0,0-2.4-0.3-3.4-1.3s-3.4-7.1-3.6-7.9S358,147.7,359.8,145.1z" clip-rule="evenodd"/><path fill="#fff" fill-rule="evenodd" d="M371.5,155.6c0,0,2.8-1.1,4,0.1s-1.2,1.2-1.2,3.6s0,3.6-1.2,3.6c0,0,0.4-4.2-2-4.2L371.5,155.6z" clip-rule="evenodd"/><line x1="371.6" x2="364.9" y1="155.7" y2="149" fill="none" stroke="#fff" stroke-linecap="round" stroke-linejoin="round" stroke-width=".5"/><path fill="#5e1213" fill-rule="evenodd" d="M402.6,129c0.1,0.2,0.1,0.5,0.1,0.8l0.3,1.8c0.3,1.9,0.7,3.8,1.1,5.7c0.3,1.7,0.9,3.4,1.7,5
			c0.9,1.8,2.1,3.5,3.3,5.1c0.5,0.6,1,1.2,1.6,1.8c0.2,0.2,0.4,0.3,0.7,0.3c0.2-0.4,0.3-0.9,0.3-1.3c0-0.3-0.1-0.4-0.3-0.5
			s-0.3-0.2-0.4-0.4c-0.4-0.4-0.8-0.8-1.1-1.3c-1.9-2.8-2.2-6.2-2.1-9.5c0-0.5,0.1-1.1,0.1-1.6c0.2-0.8,0.3-1.5,0.4-2.3L402.6,129z" clip-rule="evenodd"/><path fill="#fff" fill-rule="evenodd" d="M410.5,153.6c0,0,1.3,0.6,1.1,3.2s-0.9,3.2-0.4,3.3s1.6-1.3,1.6-3.2s1.3-1.7,1.3-1.7V151l-3.8,0.2
			L410.5,153.6z" clip-rule="evenodd"/><defs><rect id="i" width=".5" height=".5" x="386" y="242.9"/></defs><clipPath id="j"><use overflow="visible" xlink:href="#i"/></clipPath><path fill="#ff8d6b" fill-rule="evenodd" d="M492.3,325.9c0,1.6-1.1,2.1-2.5,2c-1.9-0.2-2.4-2.3-3.3-3.5c-1.5-2-1.8-3.3-3.6-4.1c-0.4-0.2-0.9-0.2-1.3,0.1
			c-0.6,0.5-0.3,1.3-0.3,1.9c0,1-0.1,2.1-0.2,3.1c-0.3,2-1.8,4.3-4.2,3.6c-1.1-0.4-2-1.3-2.4-2.4s-0.5-2.3-0.4-3.5
			c0.1-1.4,0.4-2.8,0.5-4.1c0-0.6,0-1.1-0.1-1.7c-0.1-0.3-0.8-1.3-0.8-1.4c-1,4.6-2.8,9.1-5.3,13.1c-0.4,0.7-0.9,1.5-1.5,2.1
			c-0.5,0.5-1.1,1.5-1.8,1.7c-1.4,0.2-2.8-0.8-3-2.2c0-0.1,0-0.1,0-0.2c-0.3-2,0.5-3.8,1.2-5.6s1.4-3.7,2-5.5c0.5-1.3,0.9-2.7,1-4.1
			c0-0.9-1.6-0.8-1.6-0.8c-0.3,0-1.4,2.7-1.5,3c-0.8,1.6-1.4,3.3-2.1,5c-1,2.4-2.1,4.7-3.2,7c-0.8,1.6-1.7,4.8-4,4.8
			s-2.4-2.9-2.2-4.5c0.3-2.6,1.4-4.8,2.2-7.3c0.1-0.4,0.7-4.1-0.3-3.8c-2.3,0.9-1.8,3.7-1.5,4.8c0.1,0.4,0.1,0.7,0.1,1.1
			c-0.2,1.3-0.7,4.1-1.6,4.8c-0.1,0.1-0.2,0.1-0.2,0.2c-0.5,0.2-1.1,0.2-1.5-0.1c-1.2-1-2.2-2.3-2.9-3.7c-2-3.5,1.2-7.5,1.8-9.9
			l7.9-8.5c1.1-1,1.7-2.4,1.5-3.9c0.2-3-0.2-6-1.4-8.7c-0.8-1.3-1.4-2.6-1.8-4c-0.3-1.5-0.3-3-0.5-4.5c-0.3-2.3-0.5-4.7-0.5-7
			c-0.1-1.3,0.1-2.5,0.6-3.7c0.2-0.5,0.6-0.9,1-1.3c1.5-1.4,3.3-3.1,5.3-3.6c2.4-0.7,4.9-0.9,7.4-0.5c2.6,0.3,5,1.4,6.9,3
			c3.8,3.4,5.9,8.3,5.6,13.4c-0.4,7.5-2,16.3-2,23.8c0.5,0.7,1.2,1.3,2,1.6c4.2,2.6,7.8,5.9,10.8,9.8
			C491.7,322.9,492.3,324.4,492.3,325.9L492.3,325.9z" clip-rule="evenodd"/><path fill="#f35927" fill-rule="evenodd" d="M457.2,302.1c0.3,1.6,0.4,3.2,0.3,4.9c0.1,1.5-0.5,2.9-1.5,3.9l-7.9,8.5c-0.3,1.5-1.7,3.6-2.2,5.8
				c-1.6-3.3,1.4-7.1,2-9.4l7.9-8.5c1.1-1,1.7-2.4,1.5-3.9L457.2,302.1z" clip-rule="evenodd"/><path fill="#f35927" fill-rule="evenodd" d="M451.8,329.6c0.3,0.8,1,1.2,1.8,1.2c2.3,0,3.2-3.1,4-4.8c1.1-2.3,2.2-4.6,3.2-7c0.7-1.6,1.4-3.3,2.1-5
				c0.1-0.3,1.2-3,1.5-3c0,0,1.5-0.2,1.6,0.8c0,1-0.2,2-0.6,2.9h-0.7c-0.3,0-1.4,2.7-1.5,3c-0.8,1.6-1.4,3.3-2.1,5
				c-1,2.4-2.1,4.7-3.2,7c-0.8,1.6-1.7,4.8-4,4.8s-2.4-2.9-2.2-4.5L451.8,329.6z" clip-rule="evenodd"/><path fill="#f35927" fill-rule="evenodd" d="M462.1,328.8c0.5,0.9,1.6,1.4,2.6,1.2c0.7-0.2,1.4-1.1,1.8-1.7c0.5-0.7,1-1.4,1.5-2.1
				c2.5-4,4.3-8.5,5.3-13.1c0,0.1,0.7,1.1,0.8,1.4c0.1,0.5,0.1,1.1,0.1,1.7l-0.2,1.4l-0.4-0.8c-1,4.7-2.8,9.1-5.3,13.1
				c-0.4,0.7-0.9,1.5-1.5,2.1c-0.5,0.5-1.1,1.5-1.8,1.7c-1.4,0.2-2.8-0.7-3-2.2c0-0.1,0-0.1,0-0.2
				C461.9,330.5,461.9,329.7,462.1,328.8z" clip-rule="evenodd"/><path fill="#f35927" fill-rule="evenodd" d="M474.3,323.2l0.1,0.4c0.4,1.1,1.3,2,2.4,2.4c2.4,0.8,3.9-1.5,4.2-3.6c0.1-1,0.2-2.1,0.2-3.1
				c0-0.7-0.3-1.4,0.3-1.9c0.4-0.3,0.9-0.3,1.3-0.1c1.9,0.8,2.2,2.1,3.6,4.1c0.9,1.2,1.4,3.2,3.3,3.5c0.8,0.2,1.7-0.1,2.2-0.8
				c0.4,0.8,0.6,1.6,0.6,2.5c0,1.6-1.1,2.2-2.5,2c-1.9-0.2-2.4-2.3-3.3-3.5c-1.5-2-1.8-3.3-3.6-4.1c-0.4-0.2-0.9-0.2-1.3,0.1
				c-0.5,0.5-0.3,1.3-0.3,1.9c0,1.1-0.1,2.1-0.2,3.1c-0.3,2-1.8,4.3-4.2,3.6c-1.1-0.4-2-1.3-2.4-2.4s-0.5-2.3-0.4-3.5L474.3,323.2z" clip-rule="evenodd"/><path fill="#fff" fill-rule="evenodd" d="M485.5,281.3L485.5,281.3l-0.1,0.3c-0.5,2-5.4,6.4-5.4,6.4s0-0.1,0-0.3c0-1.6,0-8.7-4.4-13.1
			c-0.3-0.3-0.6-0.6-0.9-0.8c-0.1-0.1-0.3-0.3-0.5-0.4c-3.1-2.8-7.2-3.3-10.3-3.2l0,0c-0.7,0-1.5,0-2.2,0l-0.4,0.3
			c-0.4,0.1-0.9,0.2-1.3,0.4c-1.1,0.5-2.1,1.1-3.1,1.8c0,0-3.8,3.6-3.9,5.4c-0.1,1.1-0.1,2.2,0,3.3l0.3,4.1c0.1,1.5,0.4,3.2,0.4,3.2
			c0.3,2,0.9,3.9,1.8,5.8c-0.1-0.1-0.2-0.1-0.3-0.2c-1.3-1-4.3-5.7-4.7-9.6c-0.1-3,0.1-6,0.7-8.9c0.2-1,0.3-1.6,0.3-1.6
			c-0.7-0.5-1.1-1.3-1.2-2.2c0-0.1-0.3-1.3-0.7-3c-0.9-3.8-2.3-9.8-2.3-10.2c-4.3-49.5,4.3-69.9,10.7-68.1c0.7,0.2,1.4,0.5,2.1,0.9
			c7.5,4.2,11.4,18.5,11.4,19.8l9.7,55.9c0.1,0.6,0.3,1.1,0.6,1.6c0.5,1.1,1.4,2.5,2,3.5l0,0l0.2,0.3c0.3,0.6,0.5,1.2,0.7,1.9
			c0,0.1,0.1,0.3,0.1,0.4C485.4,277,485.6,279.2,485.5,281.3z" clip-rule="evenodd"/><path fill="#eddcd0" fill-rule="evenodd" d="M485.5,281.3L485.5,281.3c0,0.1,0,0.2-0.1,0.3c-0.4,1.6-4.1,5-5.3,6l-0.4,0.3c0.1-2.7-0.2-5.4-0.9-8
			c-0.8-2.4-2.2-4.6-4-6.3c-0.1-0.1-0.3-0.3-0.5-0.4c-3.1-2.8-7.2-3.3-10.3-3.2l0,0c-0.6,0-1.2,0.1-1.7,0.1c-0.3,0-0.7,0.1-1,0.2
			c-0.4,0.1-0.9,0.2-1.3,0.4c-1.1,0.5-2.1,1.1-3.1,1.8c0,0-3.8,3.6-3.9,5.4c-0.1,1.1-0.1,2.2,0,3.3l0.3,4.1c0.1,1.5,0.4,3.2,0.4,3.2
			c0.3,2,0.9,3.9,1.8,5.8l0,0c0.1,0.3,0.3,0.5,0.5,0.7c-1,0.3-2.2,0.1-3.1-0.5c-1.4-1-4.5-6.4-4.9-10.3c0,0-1-9.7-0.1-12.8
			c0.4-1,1-1.9,1.8-2.7c4.7-5.4,17.7-14,31.5-0.8c0.2,0.2,0.4,0.5,0.6,0.8c0.7,1.1,1.4,2.3,2,3.5l0,0c0.3,0.7,0.6,1.5,0.9,2.2
			c0,0.1,0.1,0.3,0.1,0.4C485.6,277,485.8,279.1,485.5,281.3z" clip-rule="evenodd"/><path fill="none" stroke="#e89129" stroke-miterlimit="10" d="M415.5,511.4c-1.9,2.7-4,5.2-6.2,7.5c-2.1,2.2-4.5,4.6-5.2,7.7c-1.2,4.6,1.9,9.4,0.6,13.9
			c-0.6,2.3-2.3,4.2-3.3,6.3c-1.5,3.2-1.7,6.9-0.7,10.3"/><path fill="#eddcd0" fill-rule="evenodd" d="M409.1,317.4c3.7,0.3,1-8.7-0.2-12.2c-0.4-1-0.8-2-1.4-2.9c-2.7-4.3-6.8-7.5-9.4-12c-2.5-4.2-3.6-9-5-13.6
			c-1.6-4.9-2.4-10-2.5-15.1c0.1-11.3,1.3-20.8,1.3-31.2c0-3.6,0.5-7.2,0-10.8s-1.9-6.8-3.1-10.1c-0.5-1.6-0.9-3.3-2.6-3.9
			c-0.8-0.6-1.5-1.4-2-2.3c0,0-1.4,6-1.9,7.4c0,0,2.7,1.9,2.8,6.3c0.1,6.6-0.4,13.2-0.8,19.8c-0.5,8.8-0.9,17.5-0.5,26.3
			c0.2,7.2-0.1,14.8,1.9,21.8c1.8,6.6,6.8,10.5,12.7,13.7c2.8,1.5,5.2,3.1,5.7,6.7c0.3,3-0.8,5.9-2.9,8c-2.4,2.6-7.2,4.3-10.2,6.5
			C390.9,319.7,402.1,316.8,409.1,317.4z" clip-rule="evenodd"/><path fill="#5e1212" d="M404.7,158.6c0.1,0.7-0.4,1.3-1.1,1.4c-0.7,0.1-1.3-0.4-1.4-1.1c-0.1-0.6,0.2-1.1,0.7-1.3
			C403.7,157.4,404.5,157.8,404.7,158.6z"/><path fill="#feb856" d="M405,165.1l-2.5,0.4c-2.8,0.4-5.5-1.3-6.2-4.1l-1.6-6.3l17.1-2.6l0.2,4.1C412.2,160.9,409.2,164.5,405,165.1
			z" enable-background="new" opacity=".15"/><path fill="#eddcd0" fill-rule="evenodd" d="M349.3,295c-1.3,0.9-2.4,2-3.2,3.4c-2.2,3.3-4,7.1-4,11.1c-0.1,3.6,1.3,7,2.8,10.3c0.7,1.5,1.5,3,2.5,4.3
			c1,1.4,2.4,2.4,4,2.9c0.5,0.1,0.9,0.3,1.2,0.6c0.3,0.5,0.2,1.2-0.3,1.7c-0.5,0.4-1,0.7-1.6,0.8c-1.9,0.5-4.3,0.1-6,0.9
			c-1.7,0.9-3.6,1.4-5.5,1.5c-0.3,0-0.6,0-0.8-0.1c-0.3-0.2-0.5-0.5-0.6-0.9c-1.5-3.7-2.7-7.4-3.8-11.3c-0.9-3.1-1.5-6.3-1.6-9.5
			s0.8-6.4,2.6-9.1c1.8-2.4,4.3-4.3,7.2-5.4c2.9-1,5.8-1.7,8.9-1.8C350.4,294.5,349.8,294.7,349.3,295z" clip-rule="evenodd"/><path fill="#272931" d="M468.3,442.3c1.5,14,5.8,24.4,0.3,28.7c-3.2,2.5-7.4,1.2-13.7-0.2c0.1-2.8,0.6-16.7,0.6-17.1
			c0.4-10.4-2-21.3-1.9-31.9c0.1-14.2,2.7-28.2,2.8-42.3l0,0c0-0.2,0-0.5,0-0.7c0-1,0-1.9-0.2-2.9c-0.3-0.6-0.6,1.7-5.9,1.7h-0.5
			c-3.6-0.2-7.2-0.7-10.8-1.5l-1.4-0.3c-0.1,0-0.2,0-0.3-0.1c-1.4-0.3-2.8-0.6-4.3-0.8h-0.3c-1.5-0.2-3-0.3-4.5-0.4
			c-2-0.1-4-0.2-6-0.2c-3.2,0-6.3,0.1-9.4,0h-2.2h-2.8h-0.5h-2.2h-0.5h-0.5l-1.6,0.1l-2.9,0.2c-6,0.4-11.9,1.2-17.8,2.4
			c-1.5,0.3-5.8,1.2-10.4,2.5c-1.3,0.4-2.7,0.8-4,1.3c-4.6,1.6-8.6,3.7-9,6.1c0,0.1,0,0.2,0,0.4c0,0.6,0.2,1.1,0.5,1.6
			c5.2,9.1,12,17.4,17.4,26.4c5.1,8.5,9.5,17.3,13.1,26.5c2.1,5.2,6.5,12.6,7.2,18.2h0.3c1.4,0.2,2.6,0.8,3.6,1.8
			c1.7,2.3,2.8,5,3.1,7.8c0,0.2,0,0.5,0,0.7c-0.4,1.1-1,2.2-1.7,3.1c-9.1-0.7-20.4-3.4-27.2-11.5c-7.9-9.3-0.9-15.2-7.9-29.7
			c-9.4-19.4-26.3-18.1-29.4-33.4c-2.3-11.4,5.2-22,9.9-28.7c3.4-4.9,13.1-18.6,28.4-20.8c14.4-2.1,18.6,8.3,33.4,5.3
			c11.7-2.4,13.2-9.8,22.1-8.9c9.1,0.9,10,8.8,22.1,14.2c13.7,6.1,19.9-0.7,25.4,4.3C489.9,374.3,464,400.6,468.3,442.3z"/><path fill="none" stroke="#e89129" stroke-linecap="round" stroke-linejoin="round" d="M453.8,517.4c0.7-2.6,2.1-4.9,4-6.7c4.7-4,13.3-4.7,17.9-0.2c3.9,3.8,3,9.5,3.7,14.4
			c0.4,3.5,2.4,6.6,5.3,8.4c1.1,0.6,2.3,1.1,3.6,1.3c1.6,0.3,3.3,0.3,4.9-0.1"/><path fill="none" stroke="#e89129" stroke-miterlimit="10" d="M454.1,517.5c0,0,10.1-10,21,0"/><path fill="none" stroke="#e89129" stroke-linecap="round" stroke-linejoin="round" d="M475.2,517.3c-0.5-4-3.1-7.4-6.8-8.9c-6.6-3.3-15-1.9-19.4,4.3c-2.7,3.9-3.1,9.7-1.9,14.1
			c0.6,2.4,1.9,4.6,2.6,6.9c1.3,3.8,0.9,7.9-1,11.4c-1,1.6-2.2,3-3.6,4.2"/><path fill="none" stroke="#e89129" stroke-miterlimit="10" d="M400.6,522.8c2.6,1,4.2,1.6,7,1.3c4.8-0.5,9.1-2.9,14-2.9c9.1,0,17.5,6.6,18.9,15.7c0.4,2.8,0.1,5.7-0.7,8.5
			"/><path fill="#fff" fill-rule="evenodd" d="M386.3,237.8c0,0.8,0.7,1.5,1.5,1.5s1.5-0.7,1.5-1.5s-0.7-1.5-1.5-1.5S386.3,237,386.3,237.8z" clip-rule="evenodd"/><path fill="#fff" fill-rule="evenodd" d="M394.6,294.3c0.5,0.7,1.4,0.8,2.1,0.4c0.5-0.6,0.5-1.5-0.1-2.1l0,0c-0.5-0.7-1.4-0.8-2.1-0.4
			C393.9,292.9,393.9,293.8,394.6,294.3L394.6,294.3z" clip-rule="evenodd"/><path fill="#fff" fill-rule="evenodd" d="M405.4,308.9c-0.2,0.7,0.2,1.5,0.9,1.7h0.1c0.8,0.1,1.6-0.4,1.9-1.2c0.2-0.7-0.2-1.5-0.9-1.7h-0.1
			C406.4,307.6,405.6,308.1,405.4,308.9z" clip-rule="evenodd"/><path fill="#fff" fill-rule="evenodd" d="M386.3,255.3c0,0.8,0.7,1.5,1.5,1.5s1.5-0.7,1.5-1.5s-0.7-1.5-1.5-1.5S386.3,254.5,386.3,255.3z" clip-rule="evenodd"/><path fill="#fff" fill-rule="evenodd" d="M386.5,218.1c0,0.8,0.7,1.5,1.5,1.5s1.5-0.7,1.5-1.5s-0.7-1.5-1.5-1.5S386.5,217.2,386.5,218.1z" clip-rule="evenodd"/><path fill="#ffba56" d="M405.6,206.1c-1,1.2-1.6,3.2-3.5,5.2c-1.5,1.7-3.5,2.9-5.8,3.2c-2.3,0.2-5.5-0.7-6.5-3.1c0,0,0,0,0-0.1
			c1.7,0.2,2.9,1.3,3.5,1.5s4.5,1.1,4.6-0.5c0.1-1.8,0.4-2.9,3.7-4.6c1-0.5,2.2-1.6,3.4-1.8C405.1,206.1,405.4,206.1,405.6,206.1z"/><path fill="#eddcd0" fill-rule="evenodd" d="M422.5,317.9c-2.8,0.6-5.8,0.5-8.6-0.3c0,0,0.2-7.1-1.7-11.7s-2.6-11.4-3.3-19.5v-0.1
			c-0.7-8.3-1.6-43.5-1.6-48.2c0-2.8-0.5-8,0.3-12.3c0.3-2,1.1-3.9,2.5-5.5c0.4-0.4,0.8-0.7,1.3-1c0,0-5.5-9-6.5-12.5
			c-0.1-0.2-0.1-0.5-0.2-0.7l0,0V206l0,0c-0.1-2.4,0.6-4.7,2-6.7c0,0,8.8,15.7,8.8,18.7c0,0.5,0,1.1-0.1,1.8
			c-0.1,2.9-0.6,6.7-0.4,8.9c0.1,2,0.5,22.5,0.9,36.4c0.2,5.2,0.4,9.4,0.6,11.4c0.4,3.6,0.7,11.1,1.2,18.3c0.5,7.5,1.1,14.8,2,17.4
			C420.2,314.3,421.2,316.2,422.5,317.9z" clip-rule="evenodd"/><path fill="#fff" fill-rule="evenodd" d="M397.1,265.9h-0.2c-0.9,0-1.7-0.8-1.7-1.7l0,0v-32.4c0-0.9,0.8-1.7,1.7-1.7l0,0h19.2c0.9,0,1.7,0.8,1.7,1.7
			v0.1v0.2h-19c-0.9,0-1.7,0.8-1.7,1.7l0,0V265.9z" clip-rule="evenodd"/><path fill="none" stroke="#f35927" stroke-miterlimit="10" stroke-width=".13" d="M414.9,265.9h-17.8c-0.9,0-1.7-0.8-1.7-1.7l0,0v-32.4c0-0.9,0.8-1.7,1.7-1.7l0,0h19.2c1,0,1.7,0.8,1.7,1.7
			c0,0,0,0,0,0.1l-1.5,32.4C416.5,265.2,415.8,266,414.9,265.9"/><path fill="#2e323d" fill-rule="evenodd" d="M415.9,266.9h-17.8c-0.9,0-1.7-0.8-1.7-1.7l0,0v-32.4c0-0.9,0.8-1.7,1.7-1.7l0,0h19.2c1,0,1.7,0.8,1.7,1.7
			c0,0,0,0,0,0.1l-1.5,32.4C417.5,266.2,416.8,267,415.9,266.9L415.9,266.9z" clip-rule="evenodd"/><path fill="none" stroke="#f35927" stroke-miterlimit="10" stroke-width=".13" d="M412.6,237.1h4c0.4,0,0.8-0.3,0.9-0.7l0.4-1.1c0.1-0.5-0.2-1.1-0.7-1.2c-0.1,0-0.1,0-0.2,0h-4
			c-0.4,0-0.8,0.3-0.9,0.7l-0.4,1.1c-0.1,0.5,0.2,1.1,0.7,1.2C412.5,237.1,412.6,237.1,412.6,237.1z"/><circle cx="413.8" cy="235.6" r=".5" fill="none" stroke="#f35927" stroke-miterlimit="10" stroke-width=".13"/><circle cx="415.8" cy="235.6" r=".5" fill="none" stroke="#f35927" stroke-miterlimit="10" stroke-width=".13"/><path fill="#f35927" d="M415.5,266.6h-17.4c-1.5-0.3-1.7-1.6-1.7-2.8c0.1-6,0.2-12,0.2-18.1c0-3.4,0-6.8,0-10.2c0-0.9,0-1.7,0-2.6
			c-0.1-0.5,0.2-0.9,0.9-1c0.4-0.7,1.3-1,2-0.7c1,0,2.1,0.1,3.2,0.1c2.5,0.1,5,0.1,7.5,0.1l6.2,0.1h1.2c1.2,0.6,1.7,2,1.3,3.3
			c-0.5,6.4-0.8,12.8-1.1,19.2c-0.1,2.9-0.3,5.8-0.4,8.7c-0.1,1.3,0.4,3.8-1.5,4.3c-0.1,0-0.5,0.2-0.3,0.2c2.5-0.4,2.1-2.7,2.2-4.8
			l0.7-16.2l0.4-8.1c0.1-1.5,0.4-3.2,0.4-4.8s-1.1-2.1-2.6-2.1c-4,0-8.1,0-12.1,0h-2c-1.3,0-2.7,0-4-0.1c-0.3,0-0.6,0.1-0.9,0.2
			c-1.2,0.6-1.2,1.9-1.2,3.1c0,5.4,0,10.9,0,16.3v11.7c0,0.9,0,1.8-0.2,2.7c0,0.8,0.4,1.5,1,1.9c0.7,0.3,1.5,0.3,2.2,0.2H416
			C415.9,267,415.6,266.6,415.5,266.6z" enable-background="new" opacity=".18"/><path fill="#f35927" d="M415.5,266.5h-17.4c-1.6-0.3-1.7-1.7-1.7-2.9c0.1-6,0.2-12,0.2-18c0-3.4,0-6.8,0-10.2c0-0.9,0-1.7,0-2.6
			c-0.1-0.5,0.2-0.9,0.9-1c0.4-0.6,1.1-0.9,1.8-0.6l3.3,0.1c2.5,0,5,0.1,7.5,0.1h6.2c1.3-0.2,2.1,0.4,2.6,2c0,0.7-0.1,1.3-0.1,2
			c-0.5,6.2-0.8,12.4-1,18.6c-0.2,2.9-0.3,5.8-0.4,8.7c-0.1,1.4,0.4,3.8-1.6,4.4c0,0-0.4,0.2-0.2,0.1c2.8-0.5,2.1-3.4,2.2-5.8
			l0.8-16.7c0.2-3.8,0.5-7.5,0.7-11.3c0.2-1-0.5-2-1.5-2.2c-0.1,0-0.2,0-0.2,0c-2.1-0.2-4.2-0.2-6.4,0h-6.5h-2c-1.3,0-2.7,0-4-0.2
			c-0.8,0-1.5,0.4-1.8,1.1c-0.2,0.7-0.3,1.5-0.2,2.2c0,2,0,4.1,0,6.1c0,5.8,0,11.6,0,17.4c0,1.5,0,3,0,4.5l-0.2,2.6
			c0,0.3,0,0.6,0.1,0.9c0.2,0.4,0.5,0.7,0.9,1c0.8,0.5,2,0.2,2.9,0.2h15.7C415.9,266.9,415.6,266.5,415.5,266.5z" enable-background="new" opacity=".18"/><path fill="#f35927" d="M415.6,266.6h-17.4c-2.1-0.5-1.8-1.9-1.7-3.1c0.3-5.9,0.3-11.9,0.3-17.9c0-3.4,0-6.8,0-10.2
			c0-0.9,0-1.8,0-2.6c-0.1-0.6,0.2-0.9,1-1.1c0.4-0.7,1.3-0.9,2-0.6c1,0.1,2.1,0.1,3.1,0.1c2.5,0.1,5,0.1,7.5,0.1l6.2,0.1h1.2
			c0.9,0.5,1.4,1.5,1.2,2.5c-0.1,0.7-0.1,1.5-0.2,2.2c-0.1,1.5-0.2,3-0.3,4.5c-0.2,3.4-0.4,6.8-0.5,10.2c-0.2,3.2-0.3,6.4-0.5,9.6
			c-0.1,1.5,0.5,6-1.9,6.4c0,0-0.2,0.1-0.1,0.1c2.5-0.4,2-2.6,2.1-4.6c0.5-9.6,0.7-19.3,1.6-28.8c0.1-0.9,0.1-1.6-0.7-2.1
			c-0.5-0.3-1.1-0.4-1.7-0.3h-4.6c-4.1,0-8.3,0.1-12.4-0.2c-1.8-0.1-3-0.1-3.2,2c-0.1,1.5,0,3.2,0,4.7c0,2.7,0,5.4,0,8.1
			c0,5.4,0,10.8-0.1,16.2c0,1.7-0.9,4.4,1.5,4.8c0.9,0.1,1.9,0.1,2.8,0h15C415.7,266.8,415.6,266.6,415.6,266.6z" enable-background="new" opacity=".18"/><path fill="#f35927" d="M415.6,266.6h-17.4c-1.6-0.3-1.8-1.8-1.7-3.1c0.3-5.9,0.3-11.9,0.3-17.8c0-3,0-6.1,0-9.1c0-0.9,0-1.8,0-2.6
			c0-0.5,0-0.9,0-1.4c0.7-1.9,2.9-1.3,4.3-1.2c2.7,0.1,5.4,0.1,8.1,0.2l5.9,0.1h2.3c1.2,0.5,1.9,1.8,1.5,3c-0.5,6-0.8,12-1.1,18
			c-0.1,2.7-0.3,5.4-0.4,8.1c-0.1,1.5,0.5,5.9-1.8,6.4c0,0-0.3,0.2-0.2,0.1c1.1-0.2,1.7-0.5,2-1.7c0.1-1,0.2-2,0.1-3l0.3-7.3
			c0.3-5.7,0.5-11.4,0.8-17c0,0.2,0.4-5.8,0.5-4.9c-0.1-1.3,0-0.6-0.1-1c-0.2-0.3-0.5-0.6-0.8-0.9c-0.7-0.3-1.4-0.4-2.1-0.3H411
			h-6.5c-1.9,0-4-0.3-5.9-0.2c-1.3,0.1-2,0.5-2.2,2c-0.1,1.3-0.1,2.6,0,3.8c0,2.6,0,5.1,0,7.7c0,5.5,0,11.1-0.1,16.6
			c0,1.3-0.2,2.6-0.1,3.9c0,0.3,0,0.6,0.2,0.9c0.2,0.5,0.7,0.8,1.1,0.9c0.8,0.2,1.6,0.2,2.5,0.1h15.7
			C415.8,266.8,415.6,266.6,415.6,266.6z" enable-background="new" opacity=".18"/><path fill="#f35927" d="M415.4,266.4h-13.2c-1.4,0.1-2.8,0.1-4.3,0c-2.2-0.4-1.6-3.1-1.6-4.6c0.2-5.4,0.2-10.8,0.2-16.2
			c0-3.4,0-6.8,0-10.2c0-1.5-0.5-4,1.8-4.4c0.4,0.1,0.7,0.1,1.1,0.1c1.1,0.1,2.1,0.1,3.1,0.1c2.8,0.1,5.7,0.1,8.5,0.1h5.1h1.2
			c1.1,0.6,1.7,2,1.3,3.2c-0.6,5.9-0.8,11.9-1.1,17.8l-0.4,10.2c-0.1,1.5,0.4,4-1.8,4.4c-0.1,0-0.2,0.1,0,0.1c2.4-0.4,2-2.5,2.1-4.6
			c0.5-9.6,0.9-19.3,1.6-28.9c0.1-1.5-0.3-2.2-1.9-2.3c-3.4-0.3-7,0-10.4-0.1c-2,0-3.9,0-5.9-0.1c-0.8,0-1.8-0.2-2.5-0.2
			c-2.3,0-1.9,2.3-1.9,3.9c0,5.2,0,10.3,0,15.5c0,2.8,0,5.6-0.1,8.4c0.1,1.8,0,3.5-0.2,5.2c-0.1,1.2-0.2,2.3,1.2,2.7
			c0.8,0.2,1.7,0.2,2.5,0.1h15.6C415.7,266.7,415.5,266.4,415.4,266.4z" enable-background="new" opacity=".18"/><path fill="#f35927" d="M415.5,266.6h-13.2c-1.5,0-5.5,0.8-6-1.6c0-0.5,0-1,0.1-1.4c0.3-6,0.2-11.9,0.3-17.9c0-3.4,0-6.8,0-10.2
			c0-1.6-0.6-4,2-4.4c1.4,0,2.7,0,4.1,0.2c2.1,0.1,4.3,0.1,6.4,0.1l7.3,0.1c1.3,0,2.3,0,2.6,1.8c-0.1,0.5-0.1,0.9-0.1,1.4
			c-0.1,1.2-0.2,2.5-0.3,3.7c-0.3,3.7-0.5,7.4-0.7,11.2s-0.4,7.4-0.6,11.1c-0.1,1.5,0.5,5.9-1.8,6.3c0,0-0.3,0.2-0.2,0.2
			c1,0,1.9-0.7,2-1.7s0.2-2,0.1-3l0.3-7.3c0.3-5.7,0.5-11.4,0.9-17c0.1-1.5,0.5-3.4,0.5-4.8c0-0.3,0-0.7-0.1-1
			c-0.2-0.4-0.4-0.7-0.7-0.9c-0.7-0.3-1.4-0.4-2.1-0.3h-5.1c-4,0-8.1,0.2-12.1-0.2c-1.5-0.1-2.3,0.3-2.5,1.8c-0.1,1.3-0.1,2.6,0,3.9
			c0,2.6,0,5.1,0,7.7c0,5.5,0,11.1-0.1,16.6c0,1.3-0.3,2.7-0.2,3.9c0,0.3,0,0.6,0.2,1c0.3,0.6,0.9,1,1.5,1c0.7,0.1,1.4,0.1,2.1,0
			h15.7C415.7,266.8,415.5,266.6,415.5,266.6z" enable-background="new" opacity=".18"/><path fill="#f35927" d="M415.4,266.5H398c-2.6-0.6-1.5-5.1-1.5-6.7c0.2-6.6,0.1-13.2,0.2-19.8c0-2,0-4.1,0-6.1
			c-0.2-1.2,0.5-2.4,1.7-2.8c0.4,0.1,0.9,0.1,1.3,0.1c4.5,0.2,9.1,0.2,13.7,0.3c1.8,0,5.3-0.8,5.7,2.1c0,0.9-0.1,1.8-0.3,2.7
			c-0.5,5.4-0.7,10.8-1,16.3l-0.5,10.2c-0.1,1.4,0.4,3.9-1.6,4.3c0,0-0.4,0.2-0.2,0.1c2.5-0.3,2.1-2.5,2.2-4.7
			c0.3-5.4,0.5-10.8,0.8-16.2c0.1-3,0.3-6.1,0.5-9.1c0.1-1.3,0.4-2.6,0.4-3.9s-0.7-1.9-2-2c-3.4-0.3-7,0-10.4,0c-2,0-3.9,0-5.9-0.1
			c-0.8,0-2.6-0.4-3.4,0c-0.3,0.2-0.6,0.4-0.8,0.7c-0.2,0.3-0.2,0.7-0.3,1c-0.1,1.3-0.1,2.6,0,3.9c0,5,0,10.1,0,15.2
			c0,3.4,0,6.8-0.1,10.1c0,0.9-0.2,2-0.2,2.8c-0.1,1,0.7,1.9,1.8,2c0.9,0.1,1.9,0.1,2.8,0h15C415.7,266.8,415.5,266.5,415.4,266.5z" enable-background="new" opacity=".18"/><path fill="#ff8d6b" fill-rule="evenodd" d="M426,256.8c0,3.7-4.6,4.5-9.7,6.7s-7.9,3.5-7.9,3.5c-4.9,0.7-5.9,2.7-5.9,2.7c2.3-0.1,6.3-2.1,7.8-2.5
			c1.1-0.2,2.3-0.3,3.5-0.3c0.3,0,0.5,0.1,0.8,0.2c0.6,0.3,0.9,1,0.7,1.7c-0.2,1.2-1,2.2-2.1,2.7l-3.7,2.3c-2.2,1.4-6.1,3.8-7.7,6.8
			s-6.9,5.3-8.1,6.7l-14.1,13.3c-2.3,2.3-23.9,25.1-25.5,26.3c-1.7,1.4-4,2-6.2,1.5c-0.2-0.1-0.4-0.1-0.6-0.2c-1.6-0.8-2.7-2.3-3-4
			c-0.5-1.8-1.6-5.1-2.1-6.7s-4.8-19.8,7.6-23.1s33.4-24.5,34.8-26.8c0.7-1.3,1.1-2.8,1.1-4.2c0.1-1,0-1.9,0.1-2.6
			c0-0.1,0-0.1,0-0.2c0.1-1.7,0.6-3.4,1.3-4.9c1.1-2.6,9.3-11.4,11.2-12.1s6.9-2.8,8.3-3.3s5.1-0.9,5.7,1.3c0.1,0.2,0.1,0.4,0.1,0.6
			c0,3-9,6.8-10.3,7.4s-3.3,2.9-4.1,3.7s-0.4,2.4,0,2.1s7.7-4.9,8.5-5.3s10.1-4.7,13.7-5.9s4.3,2.2,3.6,3.8s-10.1,6.3-11.2,6.8
			s-9.5,5.1-9.4,6.1s3.8-0.3,5.7-1.3s8.1-2.7,9-3.1S426,253.1,426,256.8L426,256.8z" clip-rule="evenodd"/><defs><path id="k" d="M426,256.8c0,3.7-4.6,4.5-9.7,6.7s-7.9,3.5-7.9,3.5c-4.9,0.7-5.9,2.7-5.9,2.7c2.3-0.1,6.3-2.1,7.8-2.5
						c1.1-0.2,2.3-0.3,3.5-0.3c0.3,0,0.5,0.1,0.8,0.2c0.6,0.3,0.9,1,0.7,1.7c-0.2,1.2-1,2.2-2.1,2.7l-3.7,2.3
						c-2.2,1.4-6.1,3.8-7.7,6.8s-6.9,5.3-8.1,6.7s-3.7,2.4-4.3,3.4s-4.4,7.2-6.7,9.5s-27.1,25.5-28.7,26.7c-1.7,1.4-4,2-6.2,1.5
						c-0.2-0.1-0.4-0.1-0.6-0.2c-1.6-0.8-2.7-2.3-3-4c-0.5-1.8-1.6-5.1-2.1-6.7s-4.8-19.8,7.6-23.1s33.4-24.5,34.8-26.8
						c0.7-1.3,1.1-2.8,1.1-4.2c0.1-1,0-1.9,0.1-2.6c0-0.1,0-0.1,0-0.2c0.1-1.7,0.6-3.4,1.3-4.9c1.1-2.6,9.3-11.4,11.2-12.1
						s6.9-2.8,8.3-3.3s5.1-0.9,5.7,1.3c0.1,0.2,0.1,0.4,0.1,0.6c0,3-9,6.8-10.3,7.4s-3.3,2.9-4.1,3.7s-0.4,2.4,0,2.1
						s7.7-4.9,8.5-5.3s10.1-4.7,13.7-5.9s4.3,2.2,3.6,3.8s-10.1,6.3-11.2,6.8s-9.5,5.1-9.4,6.1s3.8-0.3,5.7-1.3s8.1-2.7,9-3.1
						S426,253.1,426,256.8"/></defs><clipPath id="l"><use overflow="visible" xlink:href="#k"/></clipPath><g clip-path="url(#l)"><linearGradient id="m" x1="414.84" x2="411" y1="845.664" y2="858.394" gradientTransform="translate(0 -598)" gradientUnits="userSpaceOnUse"><stop offset="0" stop-color="#f35927"/><stop offset="1" stop-color="#f35927" stop-opacity="0"/></linearGradient><path fill="url(#m)" fill-rule="evenodd" d="M423.3,238.3c-5.5,5.7-13,9.2-19.7,13.1c-1.6,0.9-3,1.9-4.4,3c-0.1,0.1-1.1,1-0.9,1.2
							c1,1.2,3.8,0.3,4.9-0.1c4.4-1.8,7.4-5.6,11.7-7.6c2.3-1,5.8-2.4,8.4-1.5c1.1,0.4,1.7,1.7,2.9,1.9c1.2,0.2,2.3-0.3,2.9-1.3
							c1.7-2.5-1.3-5.7-3.7-6C421.7,240.5,425.6,236,423.3,238.3" clip-rule="evenodd"/><linearGradient id="n" x1="408.151" x2="384.452" y1="837.456" y2="861.406" gradientTransform="translate(0 -598)" gradientUnits="userSpaceOnUse"><stop offset="0" stop-color="#f35927"/><stop offset="1" stop-color="#f35927" stop-opacity="0"/></linearGradient><path fill="url(#n)" d="M406.6,240.4c-1.4,0.5-6.3,2.6-8.3,3.3s-10.1,9.5-11.2,12.1c-0.8,1.5-1.2,3.2-1.3,4.9c0,0.1,0,0.1,0,0.2
							c0.4-0.2,0.7-0.5,0.9-0.9c2.9-3.4,5.2-7.3,8.2-10.7s6.7-6.3,11.1-7.1c2.1-0.4,4.2-0.2,6.3-0.5c-0.4-1.3-1.8-1.7-3.2-1.7
							C408.2,240,407.4,240.2,406.6,240.4z"/><g><linearGradient id="o" x1="403.3" x2="430.163" y1="856.247" y2="856.247" gradientTransform="translate(0 -598)" gradientUnits="userSpaceOnUse"><stop offset="0" stop-color="#f35927"/><stop offset="1" stop-color="#f35927" stop-opacity="0"/></linearGradient><path fill="url(#o)" fill-rule="evenodd" d="M426.2,253c-1.4,0.8-3,1.5-4.6,1.9c-1.9,0.4-3.8,0.2-5.7,0.8c-2.5,0.7-4.8,2.4-7.3,3.4
							c-1.5,0.5-2.9,1.2-4.2,2.1c-0.1,0.1-1.1,0.6-1.1,0.8c0.4,1.9,3.6,1.8,4.9,1.3c1.6-0.8,3.1-1.7,4.6-2.6c2.9-1.6,6.7-3.4,10-3.7
							c1.9-0.2,2.8,1.1,4.4,1.8c0.8,0.4,1.8,0.2,2.5-0.4c1.2-1.2-0.2-3.1-1.2-3.9c-2-1.7-4.8-2.1-7.2-1" clip-rule="evenodd"/></g><g><linearGradient id="p" x1="407.148" x2="412.348" y1="864.486" y2="870.426" gradientTransform="translate(0 -598)" gradientUnits="userSpaceOnUse"><stop offset="0" stop-color="#f35927"/><stop offset="1" stop-color="#f35927" stop-opacity="0"/></linearGradient><path fill="url(#p)" fill-rule="evenodd" d="M417.5,267.1c-1.1-0.5-2.2-0.8-3.4-1c-2.1-0.1-3.9,0.8-5.8,1.5c-1,0.4-2.1,0.6-3.2,1.1
							c-1.1,0.3-2.1,0.8-3.1,1.5c-0.2,0.1-0.8,0.6-0.6,0.9c0.3,0.6,1.5,0.6,2,0.5c1.9-0.3,3.8-1.3,5.6-1.8c1.4-0.4,3-1,4.4-0.7
							c1.1,0.2,1.7,1.6,3,1.1c0.8-0.4,1.1-1.3,0.7-2.1c0-0.1-0.1-0.1-0.1-0.2c-0.7-1.1-1.9-1.9-3.3-2.1" clip-rule="evenodd"/></g></g><path fill="#fff" fill-rule="evenodd" d="M384.8,204.2c0.2-0.9-0.6-1.5-0.8-1.7c-2-1.5-6.1-4.9-7.5-8s-2.5-10.7-2.5-10.7c-1.1,1.7-2.2,3.5-3,5.4
			c-0.7,1.4-1.1,2.8-1.4,4.3c-0.2,1.8,0.1,3.6,0.6,5.3c0.3,1.1,0.6,2.2,1.1,3.3c0.4,0.9,0.8,1.7,1.4,2.4c0.9,1.2,1.8,2.5,2.7,3.7
			c1.3,1.7,2.5,3.3,3.8,5C381.1,215.7,382.7,213,384.8,204.2z" clip-rule="evenodd"/><path fill="#eddcd0" fill-rule="evenodd" d="M379.2,211.5c-1.3-1.7-2.5-3.3-3.8-5c-0.9-1.2-1.8-2.5-2.7-3.7c-0.6-0.7-1-1.6-1.4-2.4
			c-0.4-1-0.8-2.1-1.1-3.2c-0.4-1.2-0.6-2.4-0.7-3.7c0,1.6,0.2,3.2,0.7,4.7c0.3,1.1,0.6,2.2,1.1,3.2c0.4,0.9,0.8,1.7,1.4,2.4
			c0.9,1.2,1.8,2.5,2.7,3.7c1.3,1.7,2.5,3.3,3.8,5c1.9,2.5,3.5-0.2,5.6-8.9c0.1-0.3,0-0.5-0.1-0.8
			C382.7,211.3,379.2,211.5,379.2,211.5z" clip-rule="evenodd"/><rect width="24" height="29" x="249.3" y="351.1" fill="#ff8d6b"/><path fill="#ff926b" d="M251.3,374.1c-5.6,0-10.2-4.1-10.2-9.2s4.6-9.2,10.2-9.2v2.9c-4,0-7.2,2.8-7.2,6.3s3.2,6.3,7.2,6.3V374.1z"/><path fill="none" stroke="#f65b2b" stroke-miterlimit="10" stroke-width=".5" d="M251.1,373.1c-4.9,0-8.8-3.6-8.8-8s4-8,8.8-8" enable-background="new" opacity=".55"/><path fill="#f35927" d="M273.3,351.1v29h-20.5c1.4-1.6,4.8-1,10.5-5.6c4.8-4,4.9-16.4,4.5-23.4H273.3z" enable-background="new" opacity=".6"/><polyline fill="none" stroke="#fff" stroke-linecap="round" stroke-linejoin="round" stroke-width=".5" points="251.8 353.6 251.8 376.6 273.8 376.6" enable-background="new" opacity=".55"/><rect width="8.4" height="8.4" x="261.7" y="361.6" fill="none" stroke="#fff" stroke-linecap="round" stroke-linejoin="round" stroke-width=".5" enable-background="new" opacity=".55" transform="rotate(-42.26 265.92 365.836)"/><polygon fill="#f7d6ab" points="284.4 166.1 240.6 213.8 237 216.4 225.3 192.4 235.8 166.1 259.5 154.7 284.4 160.7"/><path fill="#ffe9d2" d="M303.2,191.2c0,22.5-18.2,40.7-40.7,40.8c-10.5,0-20.6-4.1-28.2-11.3l4.9-5.4l0.1-0.1l0.4-0.5l20.2-22
			l2.2-2.4l4.4-4.8l17.8-19.4l0.4-0.4l0,0l4.6-5l0.4,0.4C298.4,168.8,303.2,179.7,303.2,191.2z"/><path fill="#fff" d="M289.9,161.1l-0.4-0.4c-16.9-14.8-42.6-13.2-57.5,3.7c-14.2,16.2-13.4,40.6,1.9,55.7l0.5,0.5
			c16.5,15.3,42.2,14.4,57.6-2S306.3,176.4,289.9,161.1z M262.5,224.6c-7.1,0-14-2.2-19.7-6.4c-1.2-0.9-2.4-1.9-3.5-2.9l-0.4-0.4
			c-0.6-0.6-1.1-1.1-1.6-1.8l0,0c-12.1-13.9-10.5-35,3.4-47c8.9-7.7,21.2-10.2,32.4-6.4l0.3,0.1c2.9,1,5.6,2.4,8.1,4.1l0,0
			c1,0.7,2,1.5,2.9,2.3c0.1,0.1,0.2,0.2,0.4,0.3c13.7,12.3,14.8,33.4,2.5,47.1C281,220.5,271.9,224.6,262.5,224.6L262.5,224.6z"/><path fill="#d29e80" fill-rule="evenodd" d="M232.7,194.1c0-18.1,15.1-32.7,33.8-32.7c6.6,0,13,1.9,18.6,5.4c-6.1-4.8-13.6-7.4-21.3-7.4
			c-18.7,0-33.8,14.6-33.8,32.7c0.1,11.1,5.8,21.4,15.2,27.3C237.3,213.4,232.8,204,232.7,194.1z" clip-rule="evenodd"/><circle cx="262.9" cy="188.7" r="4.9" fill="#fff"/><line x1="263.2" x2="263.2" y1="164.8" y2="185.4" fill="none" stroke="#fff" stroke-linecap="round" stroke-linejoin="round" stroke-width="2"/><line x1="261.2" x2="248.1" y1="191.2" y2="205.2" fill="none" stroke="#fff" stroke-linecap="round" stroke-linejoin="round" stroke-width="3"/><line x1="233.7" x2="275.7" y1="185.9" y2="192.4" fill="none" stroke="#fff" stroke-miterlimit="10"/><circle cx="276.9" cy="192.9" r="1.8" fill="#fff"/><path fill="#d29e80" d="M297.1,169.5c4.2,6.3,6,13.8,6,21.9c0,22.1-18.4,40.2-41,40.2c-10.5,0-20.6-4-28.3-11.1l-0.5-0.5
			c-0.9-0.8-1.7-1.7-2.5-2.6c1.6,2.4,3.4,4.6,5.5,6.6l0.5,0.5c7.7,7.2,17.8,11.2,28.3,11.2c22.6,0,41-18,41-40.2
			C306.1,185.5,303.1,176.4,297.1,169.5z"/><path fill="#f7d6ab" fill-rule="evenodd" d="M575.8,240.3l-39.9,42.2l-0.2,0.2l-0.6-0.2l-0.6-0.2L524,279c-2.9-5.3-4.3-11.2-4.3-17.2
			c0-19.9,13-42.5,32.9-42.5c4.5,0,13.9,1.1,17.9,2.6l15,8.8L575.8,240.3z" clip-rule="evenodd"/><path fill="#ffe9d2" d="M595.6,258.3c0,19.9-16.1,36.1-36.1,36.1c-9.3,0-18.3-3.6-25-10l4.4-4.8l0.1-0.1l0.4-0.4l17.9-19.5l2-2.1
			l3.9-4.3l15.7-17.2l0.3-0.4l0,0l4.1-4.4c0.1,0.1,0.3,0.2,0.4,0.3C591.3,238.4,595.6,248.1,595.6,258.3z"/><path fill="#d29e80" d="M591.1,231.5c4.3,6.4,6.1,14.1,6.1,22.3c0,22.5-18.7,40.9-41.8,40.9c-10.7,0-21-4-28.8-11.4l-0.5-0.5
			c-0.9-0.9-1.7-1.8-2.5-2.7c1.6,2.4,3.5,4.7,5.6,6.7l0.5,0.5c7.8,7.3,18.1,11.4,28.8,11.4c23,0,41.8-18.4,41.8-40.9
			C600.3,247.9,597.2,238.7,591.1,231.5z"/><path fill="#fff" d="M560.2,266.1h-6c-1.5,0.1-2.6,1.3-2.6,2.8v3.3c-0.3,3.1,2,5.8,5.1,6.1c3.1,0.3,5.8-2,6.1-5.1
			c0-0.3,0-0.6,0-0.9V269C562.9,267.5,561.7,266.2,560.2,266.1L560.2,266.1z"/><path fill="#fff" fill-rule="evenodd" d="M559.7,234.5c6,1.4,10.3,6.8,10.3,13v1.7c0,14.3,10.7,23.6,10.7,23.6h-48.2c0,0,10.8-9.4,10.8-23.6v-1.7
			c0-6.2,4.3-11.6,10.3-13v-0.6c0-1.7,1.3-3,3-3s3,1.3,3,3L559.7,234.5z" clip-rule="evenodd"/><path fill="#feb856" d="M551.1,255c-1.8,0-3.4-1.1-4-2.9c-0.2-0.4,0-0.8,0.3-0.9c0.4-0.2,0.8,0,0.9,0.3v0.1c0.4,1.1,1.5,1.9,2.7,1.9
			s2.3-0.8,2.6-1.9c0.1-0.4,0.5-0.6,0.9-0.4s0.6,0.5,0.4,0.9C554.5,253.8,552.9,255,551.1,255z"/><path fill="#feb856" d="M562.2,255c-1.8,0-3.4-1.2-4-2.9c-0.2-0.4,0-0.8,0.3-0.9c0.4-0.2,0.8,0,0.9,0.3v0.1c0.4,1.1,1.5,1.9,2.7,1.9
			s2.3-0.8,2.7-1.9c0.1-0.4,0.5-0.6,0.8-0.5c0.4,0.1,0.6,0.5,0.5,0.8c0,0.1,0,0.1,0,0.1C565.6,253.8,564,255,562.2,255z"/><path fill="#feb856" d="M556.6,264c0.9,0,1.7-0.8,1.7-1.7c0-0.9-0.8-1.7-1.7-1.7s-1.7,0.8-1.7,1.7C554.9,263.2,555.7,264,556.6,264
			L556.6,264z"/><path fill="#fff" d="M584.5,223.9l-0.5-0.4c-17.1-15.2-43.3-13.7-58.5,3.5c-14.7,16.5-13.8,41.6,1.9,57.1l0.5,0.5
			c16.6,15.8,42.8,15.3,58.6-1.3c15.8-16.6,15.3-42.8-1.3-58.6C585,224.4,584.8,224.2,584.5,223.9z M556.6,288.6
			c-7.2,0-14.2-2.3-20-6.5c-1.2-0.9-2.4-1.9-3.5-3l-0.4-0.4c-0.2-0.2-0.3-0.3-0.5-0.5c-0.4-0.4-0.8-0.8-1.2-1.3l0,0
			c-12.2-14.3-10.6-35.7,3.7-47.9c9-7.7,21.4-10.2,32.7-6.5l0.3,0.1c2.9,1,5.7,2.4,8.3,4.2l0,0c1,0.7,2,1.5,3,2.3l0.3,0.3l0.2,0.1
			c13.9,12.6,14.9,34.1,2.3,47.9C575.3,284.6,566.2,288.6,556.6,288.6L556.6,288.6z"/><path fill="#d29e80" fill-rule="evenodd" d="M526.3,257.6c0-18.4,15.4-33.3,34.4-33.3c6.7,0,13.3,1.9,18.9,5.5c-6.2-4.9-13.8-7.5-21.7-7.5
			c-19,0-34.4,14.9-34.4,33.3c0.1,11.3,5.9,21.8,15.5,27.8C531,277.2,526.3,267.7,526.3,257.6z" clip-rule="evenodd"/><line x1="405.5" x2="405.5" y1="317.4" y2="325.1" fill="none" stroke="#e68f26" stroke-miterlimit="10" stroke-width=".5"/><line x1="401.8" x2="407.8" y1="320.1" y2="320.1" fill="none" stroke="#e68f26" stroke-miterlimit="10" stroke-width=".5"/><path fill="none" stroke="#e68f26" stroke-miterlimit="10" stroke-width=".5" d="M362.1,383.2c0,0,11.6,3.5,47.3,2.3c0,0,37.6,0.4,46.9-9.4"/><path fill="#eddcd0" fill-rule="evenodd" d="M342.3,225c0,0,3.7,20.3,7.2,33.8c3.5,13.5,3.3,34.6,3.3,34.6S366.6,275.3,342.3,225z" clip-rule="evenodd"/><path fill="none" stroke="#eddcd0" stroke-miterlimit="10" stroke-width=".5" d="M347.6,230.5c9.5-0.5,25-1,34.5-1.6"/><path fill="none" stroke="#eddcd0" stroke-miterlimit="10" stroke-width=".5" d="M418.6,226.5c9.5-0.5,21-1,30.5-1.6"/><rect width="23.5" height="11.3" x="422.5" y="229.5" fill="#ffba56" transform="rotate(-3.118 434.243 235.123) scale(.99998)"/><line x1="345.4" x2="365.9" y1="213.8" y2="201.4" fill="none" stroke="#eddcd0" stroke-miterlimit="10" stroke-width=".5"/><line x1="421.2" x2="450.2" y1="189" y2="193.5" fill="none" stroke="#eddcd0" stroke-miterlimit="10" stroke-width=".5"/><path fill="none" stroke="#272931" stroke-miterlimit="10" d="M349.3,331.4c-8.2,7-16.6,14.2-21.8,23.6c-5.7,10.6-7,23-3.5,34.5c1.7,5.4,4.3,10.4,7,15.3l16.5,30.9
			c2.2,4.3,4.6,8.4,7.2,12.4c4.5,6.6,10.1,12.4,15.7,18.2c1.6,1.7,3.3,3.3,5.2,4.7c2.4,1.6,5.1,2.7,7.5,4.2s5.1,4.9,5.7,7.7"/><path fill="none" stroke="#272931" stroke-miterlimit="10" d="M468.7,329c6.8,11.9,16.7,22.4,20.2,35.6c3.9,14.4-0.4,29.5-2.9,44.2c-3,17.3-3.4,34.9-3.6,52.4
			c0,5.1-0.2,10.6-3.2,14.7"/><polyline fill="none" stroke="#f35927" stroke-miterlimit="10" points="432.3 227.6 430.8 227.6 430.8 229.1"/><line x1="432.8" x2="432.8" y1="227.1" y2="233.1" fill="none" stroke="#f35927" stroke-miterlimit="10"/><path fill="#ff8d6b" d="M629.3,439.4c-4-11.7-14.2-17.5-21.5-20.3c-2.7-1-5.4-1.8-8.2-2.3c0-1.6-1.5-11-6.6-11.8s-3.2,8.5-3.2,8.5
			c-4.5-2.7-20.7-11.5-8.8-33.4l0.4-0.7l0,0c5.1-8.8,13.2-11.7,21.5-10.7c5.3,0.8,10.3,2.8,14.6,5.9c5.8,4,10.4,9.7,13.1,16.2
			C638.5,411.1,629.3,439.4,629.3,439.4z"/><path fill="#fff" d="M583.8,380.5c2.8-0.4,5.7-0.5,8.5-0.3s5.7,0.6,8.4,1.4c5.5,1.4,10.6,4.2,14.8,8.1c4.1,3.9,7.3,8.8,9.3,14.1
			c2,5.3,3.3,10.9,3.8,16.6l0,0l0,0c-0.5-5.7-1.8-11.2-3.8-16.6c-2-5.3-5.2-10.2-9.3-14.1c-4.2-3.9-9.3-6.7-14.8-8.1
			c-2.7-0.7-5.6-1.2-8.4-1.4C589.5,380,586.6,380.1,583.8,380.5C583.8,380.5,583.8,380.5,583.8,380.5
			C583.8,380.6,583.8,380.6,583.8,380.5L583.8,380.5z"/><linearGradient id="q" x1="576.654" x2="617.345" y1="991.806" y2="991.806" gradientTransform="translate(0 -598)" gradientUnits="userSpaceOnUse"><stop offset="0" stop-color="#f35927"/><stop offset="1" stop-color="#f35927" stop-opacity=".4"/></linearGradient><path fill="url(#q)" d="M601,398.3c6.2,12.6,6.3,16,6.8,20.8c-2.7-1-5.4-1.8-8.2-2.3c0-1.6-1.5-11-6.6-11.8s-3.2,8.5-3.2,8.5
			c-4.5-2.7-20.7-11.5-8.8-33.4l0.4-0.7l0,0c5.1-8.8,13.2-11.7,21.5-10.7c5.3,0.8,10.3,2.8,14.6,5.9
			C607.6,381.6,597.3,390.8,601,398.3z"/><path fill="#ff8d6b" d="M614.1,371.1c-6.4-5.3-14.3-4.9-19.5-3.9c-1.9,0.4-3.7,0.9-5.5,1.6c-0.6-0.9-4.7-5.7-8-4.4s1.2,6,1.2,6
			c-3.5,0.1-15.9,0.8-16.9-15.9c-0.5-7.1,3.2-11.9,8.4-14.3c7-3.2,16.8-2.3,23.6,2.7C609.3,351.7,614.1,371.1,614.1,371.1z"/><path fill="#fff" d="M567.2,353.7c2.9-2.4,6.3-4.3,10-5.4s7.6-1.4,11.3-0.6c3.8,0.8,7.3,2.4,10.4,4.7c3.1,2.3,5.8,5,8.1,8.1
			 M606.9,360.5c-2.3-3-5-5.8-8.1-8.1c-3-2.3-6.6-3.9-10.3-4.7c-3.8-0.7-7.7-0.5-11.3,0.7c-3.7,1.1-7.1,3-10,5.4h-0.1L606.9,360.5z"/><linearGradient id="r" x1="146.406" x2="167.314" y1="1274.279" y2="1274.279" gradientTransform="rotate(-32.016 -1229.485 84.708)" gradientUnits="userSpaceOnUse"><stop offset="0" stop-color="#f35927"/><stop offset="1" stop-color="#f35927" stop-opacity=".4"/></linearGradient><path fill="url(#r)" d="M594.6,367.2c-1.9,0.4-3.7,0.9-5.5,1.6c-0.6-0.9-4.7-5.7-8-4.4s1.2,6,1.2,6c-3.5,0.1-15.9,0.8-16.9-15.9
			c-0.5-7.1,3.2-11.9,8.4-14.3c-1.3,4.5-1.1,10.9,6.7,15.7C588.5,360.9,592.6,364.6,594.6,367.2z"/><path fill="#fff" d="M534.7,424.5c1.2-3.6,2.8-7.1,4.9-10.3c2.1-3.2,4.3-6.2,6.7-9.1c1.1-1.6,2.6-2.9,4.2-3.9
			c0.9-0.5,1.8-0.8,2.8-0.8s2,0.2,2.9,0.7c1.7,1,3.1,2.4,3.9,4.2c0.9,1.8,1.1,3.8,0.6,5.7l-0.5-0.2c0.5-1.8,0.3-3.7-0.6-5.3
			c-0.8-1.7-2-3.1-3.6-4c-0.8-0.4-1.7-0.6-2.6-0.6c-0.9,0-1.8,0.3-2.6,0.7c-1.6,1-3,2.2-4.1,3.7c-2.4,2.9-4.7,5.9-6.8,9.1
			s-3.8,6.6-5.1,10.1L534.7,424.5z"/><path fill="#ff8d6b" d="M576.5,412.2c1.3,0.9,2.5,2.1,3.4,3.5c3.6,5.1,6.3,10.5,6.2,16.7c-0.1,4.7-1.7,9.8-5.7,15.5
			c-0.7,1.1-1.6,2.2-2.5,3.3c-4.5,4.6-10.9,6.6-17.2,5.4c0,0,10-6.1,2.2-14.3c-4-4.1-9.3-10.1-10.9-15.9
			c-1.5-5.6,0.5-11.1,10.7-14.7C562.7,411.8,570.1,407.6,576.5,412.2z"/><path fill="#fff" d="M560.5,416.4c0,1.6,0.2,3.2,0.5,4.7s0.8,3,1.7,4.4c1.6,2.7,4.1,4.7,6,7.4c1.8,2.7,2.7,5.9,2.7,9.1
			c-0.1,3.2-1,6.4-2.7,9.1l-0.1-0.1c1.6-2.7,2.5-5.8,2.5-9s-1-6.3-2.8-8.9s-4.4-4.6-6-7.4c-0.8-1.4-1.4-2.9-1.6-4.5
			C560.3,419.6,560.3,417.9,560.5,416.4L560.5,416.4z"/><linearGradient id="s" x1="-649.855" x2="-609.755" y1="1702.804" y2="1702.804" gradientTransform="matrix(.31 -.71 .69 .3 -400.66 -528.33)" gradientUnits="userSpaceOnUse"><stop offset="0" stop-color="#f35927"/><stop offset="1" stop-color="#f35927" stop-opacity=".4"/></linearGradient><path fill="url(#s)" fill-rule="evenodd" d="M576.5,412.2c1.3,0.9,2.5,2.1,3.4,3.5c3.6,5.1,6.3,10.5,6.2,16.7c-0.1,4.7-1.7,9.8-5.7,15.5
			C581.2,441.7,582.2,426.2,576.5,412.2z" clip-rule="evenodd"/><polygon fill="#f8ba3f" fill-rule="evenodd" points="449.8 75.8 451.3 78.9 454.7 79.4 452.2 81.8 452.8 85.2 449.8 83.6 446.7 85.2 447.3 81.8 444.8 79.4 448.2 78.9" clip-rule="evenodd"/><polygon fill="#f8ba3f" fill-rule="evenodd" points="429.7 161 431.2 164.1 434.6 164.6 432.1 167 432.7 170.4 429.7 168.8 426.6 170.4 427.2 167 424.7 164.6 428.2 164.1" clip-rule="evenodd"/><polygon fill="#f8ba3f" fill-rule="evenodd" points="572.7 310.4 574.6 314.4 579 315.1 575.8 318.2 576.6 322.5 572.7 320.5 568.7 322.5 569.5 318.2 566.3 315.1 570.7 314.4" clip-rule="evenodd"/><polygon fill="#89c4c0" fill-rule="evenodd" points="492.3 227.3 493.8 230.4 497.3 230.8 494.8 233.3 495.4 236.7 492.3 235.1 489.3 236.7 489.8 233.3 487.4 230.8 490.8 230.4" clip-rule="evenodd"/><circle cx="477.1" cy="167.8" r="4.2" fill="#fff"/><circle cx="453.6" cy="124.8" r="4.2" fill="#f5c588"/><circle cx="502.4" cy="287.9" r="2.9" fill="#fff"/></svg>