<svg xmlns="http://www.w3.org/2000/svg" viewBox="0 0 2000 2000"><circle cx="1003.47" cy="995.25" r="800" fill="#e6e9f6"/><path fill="#6d7aa7" d="m1745.86,1293.87L203.47,995.44c.1,441.74,358.23,799.82,800,799.82,336.26,0,624.06-207.47,742.39-501.38Z"/><circle cx="760.21" cy="254.45" r="196.11" fill="#6d7aa7"/><path fill="#fff" d="m877.76,230.32c0-35.46-28.75-64.21-64.21-64.21-27.66,0-51.23,17.49-60.27,42.02-9.03-24.52-32.61-42.02-60.27-42.02-35.46,0-64.21,28.75-64.21,64.21,0,16.52,6.24,31.57,16.49,42.95,14.05,18.28,53.76,59.28,119.55,100.16,0,0,83.9-70.72,104.38-111.14,5.42-9.41,8.53-20.32,8.53-31.96Z"/><path fill="#9fa9cf" d="m1539.92,78.62c-1.47-8.81-9.81-14.77-18.63-13.29l-304.71,50.92,6.62,31.71,303.43-50.71c8.81-1.47,14.77-9.81,13.29-18.63Z"/><ellipse cx="1229.81" cy="312.52" fill="#9fa9cf" rx="40.87" ry="172.73" transform="rotate(-85.14 1229.782 312.527)"/><circle cx="1224.95" cy="313.6" r="66.21" fill="#fff"/><path fill="#c3cae5" d="m1399.99,333.36c6.06-17.86,9.35-36.99,9.35-56.9,0-97.66-79.17-176.84-176.84-176.84s-176.84,79.17-176.84,176.84c0,9.1.69,18.04,2.02,26.77,11.59-2.74,209.24-47.77,342.3,30.13Z"/><rect width="32.36" height="700.9" x="1730.69" y="578.19" fill="#c3cae5" rx="12.89" ry="12.89" transform="rotate(10.18 1746.605 928.498)"/><rect width="32.36" height="762.01" x="1622.24" y="-24.44" fill="#c3cae5" rx="12.89" ry="12.89" transform="rotate(-35.41 1638.325 356.572)"/><circle cx="1813.34" cy="585.33" r="26.67" fill="#9fa9cf"/><path fill="#9fa9cf" d="m1756.11,1267.55c-25.02-13.14-53.5-20.59-83.72-20.59-89.09,0-163.08,64.62-177.67,149.55h201.19c23.71-40.83,43.92-83.96,60.2-128.96Z"/><g><path fill="#fff" d="m582.12,924.17s77.44,80.43,163.03,48.9l-3.87,164.33-165.17-54.06,6.01-159.17Z"/><path fill="#fff" d="m436.72,637.93c-34.47-3.94-66.2-24.1-79.84-33.88l.12-.06-22.22-43.43c-1.26-2.46-4.27-3.43-6.73-2.17l-35.36,18.09c-2.46,1.26-3.43,4.27-2.17,6.73l21.39,41.82c7.82,33.83-16.03,94.24-16.03,94.24l25.49,43.04,137.15-70.98-21.81-53.37Z"/><path fill="#c3cae5" d="m437.48,639.24c1.74,8.38,3.39,21.22.92,33.64-4.15,20.89-23.25,20.55-34.86,18.71-6.35.33-24.39-10.54-31.76,25.07-7.37,35.61-37.87,19.19-51.49,8.69-12.67-9.77-24.42-6.11-24.42-6.11l252.47,437.29,140.84-81.32-251.71-435.98Z"/><line x1="365.69" x2="428.75" y1="737.91" y2="847.43" fill="none" stroke="#3b4573" stroke-linecap="round" stroke-linejoin="round" stroke-width="12"/><line x1="433.68" x2="477.68" y1="683.25" y2="759.24" fill="none" stroke="#3b4573" stroke-linecap="round" stroke-linejoin="round" stroke-width="12"/><path fill="#3b4573" d="m302.76,564.47h39.72c2.76,0,5,2.24,5,5v48.79h-49.72v-48.79c0-2.76,2.24-5,5-5Z" transform="rotate(-27.09 322.66 591.424)"/><rect width="183.91" height="49.65" x="467.11" y="990.04" fill="#9fa9cf" stroke="#3b4573" stroke-miterlimit="10" stroke-width="12" rx="10" ry="10" transform="rotate(-30 559.069 1014.862)"/><rect width="183.91" height="49.65" x="491.11" y="1033.99" fill="#9fa9cf" stroke="#3b4573" stroke-miterlimit="10" stroke-width="12" rx="10" ry="10" transform="rotate(-30 583.072 1058.814)"/><rect width="183.91" height="49.65" x="515.95" y="1077.45" fill="#9fa9cf" stroke="#3b4573" stroke-miterlimit="10" stroke-width="12" rx="10" ry="10" transform="rotate(-30 607.908 1102.268)"/><line x1="481.09" x2="568.18" y1="819.26" y2="975.37" fill="none" stroke="#3b4573" stroke-linecap="round" stroke-linejoin="round" stroke-width="12"/><path fill="#9fa9cf" d="m1472.34,1166.88l-23.55-514.51-513.63-98.21-224.79,67.04s76.15,333.13-16.57,431.34c-92.72,98.21-347.74,119.9-347.74,119.9,0,0,28.91,15.31,54.91,23.23l-62.66,18.3-3.61,144.92,643.14,218.41,426.8-228.67c89.77-57.17,67.7-181.76,67.7-181.76Z"/><path fill="#c3cae5" d="m959.45,1371.66c-316.24-83.2-621.13-157.68-621.13-157.68l-3.61,144.92,643.14,218.41-18.4-205.66Z"/><path fill="#3b4573" d="m338.24,1217.23l623.17,186.76-1.96-32.33s-560.82-176.7-558.47-175.98l-62.66,18.3-.08,3.25Z"/><path fill="#6d7aa7" d="m381.43,868.69s-73.25,54.8-17.39,133.35c0,0-18.67,36.52,19.29,64.04,0,0-9.49,35.11,17.08,49.35,0,0,37.94,24.65,117.52,12.25,79.58-12.4,66.39-77.18,27.99-85.98,0,0,34.79-54.79-26.39-58.79,0,0,24.19-28.36,10-50.39-9.1-14.12-24.29-9.32-43.59-2-43.28,16.41-62.96,7.56-62.96,7.56l-41.55-69.39Z"/><path fill="none" stroke="#3b4573" stroke-linecap="round" stroke-linejoin="round" stroke-width="12" d="m364.03,1002.03s109.28,34.76,155.49-19.12"/><path fill="none" stroke="#3b4573" stroke-linecap="round" stroke-linejoin="round" stroke-width="12" d="m383.32,1066.08s117.03,23.47,162.6-24.38"/><path fill="#6d7aa7" d="m513.63,770.13s85.39-16.32,108.51,66.58c23.11,82.9-22.32,101.23-22.32,101.23,0,0-39.06,10.36-47.82-43.84-6.38-39.44-6.43-60.31-5.98-68.75l-32.38-55.22Z"/><path fill="none" stroke="#3b4573" stroke-linecap="round" stroke-linejoin="round" stroke-width="12" d="m380.78,923.12s15.06,10.04,40.76,14.65"/><g><line x1="658.27" x2="738.1" y1="1081.04" y2="1107.16" fill="none" stroke="#3b4573" stroke-linecap="round" stroke-linejoin="round" stroke-width="12"/><line x1="580.92" x2="712.47" y1="1121.68" y2="1161.14" fill="none" stroke="#3b4573" stroke-linecap="round" stroke-linejoin="round" stroke-width="12"/><line x1="1411.75" x2="1399.28" y1="1026.37" y2="855.5" fill="none" stroke="#3b4573" stroke-linecap="round" stroke-linejoin="round" stroke-width="12"/><line x1="1357.76" x2="1329.95" y1="1010.19" y2="721.04" fill="none" stroke="#3b4573" stroke-linecap="round" stroke-linejoin="round" stroke-width="12"/><line x1="845.3" x2="1139.13" y1="584.82" y2="648.07" fill="none" stroke="#3b4573" stroke-linecap="round" stroke-linejoin="round" stroke-width="12"/><line x1="977.85" x2="959.45" y1="1577.32" y2="1371.66" fill="none" stroke="#3b4573" stroke-linecap="round" stroke-linejoin="round" stroke-width="12"/><polyline fill="none" stroke="#3b4573" stroke-linecap="round" stroke-linejoin="round" stroke-width="12" points="1115.36 1389.24 966.18 1457.4 591.52 1358.91"/><line x1="955.34" x2="338.32" y1="1391.89" y2="1213.99" fill="none" stroke="#3b4573" stroke-linecap="round" stroke-linejoin="round" stroke-width="12"/><line x1="1365.48" x2="1169.46" y1="682.98" y2="636.67" fill="none" stroke="#3b4573" stroke-linecap="round" stroke-linejoin="round" stroke-width="12"/></g><g><path fill="#3b4573" d="m708.92,848.82s100.7,11.04,154.75-34.9l4.49,41.24s70.1-12.6,103.61-50.97l-11.22,47.31s50.68,4.03,113.92-33.26l-35.13-56.21-331.33,22.7.92,64.09Z"/><polygon fill="#3b4573" points="815.11 873.46 894.17 940.34 912.06 883.52 985.17 927.1 980.21 957.71 770.07 967.64 815.11 873.46"/><path fill="#c3cae5" d="m1546.07,1325.06s-327.27-123.61-302.36-593.96l-534.83-109.9s-6.08,99.61.05,227.62c18.34,1.39,68.18-1.6,109.84-65.92l49.39,72.26,63.11-72.26,29.27,68.6,70.43-55.8,77.75,96.04-87.81-27.44-51.22,73.18-57.63-53.97-44.82,62.2-52.14-72.26-97.23,93.11c16.1,150.53,52.92,310.01,133.92,387.09,0,0,118.65,124.71,438.8,45.61,264-65.23,255.47-74.21,255.47-74.21Z"/><polygon fill="#3b4573" points="1448.94 655.64 1444.6 657.47 1243.7 731.1 1243.13 761.77 1450.29 685.15 1448.94 655.64"/><path fill="#3b4573" d="m1366.91,1380.19c-195.91,57.09-255.08-67.03-255.08-67.03-221.28,27.56-331.29-78.12-357.06-144.72,21.71,76.4,52.77,143.11,97.02,185.22,0,0,118.65,124.71,438.8,45.61,26.91-6.65,50.83-12.67,72.1-18.13l4.22-.95Z"/><polyline fill="none" stroke="#3b4573" stroke-linecap="round" stroke-linejoin="round" stroke-width="12" points="1147.91 891.75 1123.58 907.12 1108.72 891.75"/></g><g><ellipse cx="1057.08" cy="1035.23" fill="#fff" stroke="#fff" stroke-miterlimit="10" stroke-width="12" rx="56.52" ry="75.41" transform="rotate(-10.67 1056.983 1035.124)"/><path fill="#3b4573" stroke="#3b4573" stroke-linecap="round" stroke-linejoin="round" stroke-width="12" d="m1072.38,1109.06c7.85-1.74,14.85-5.61,20.8-11.06,4.63-13.37,5.77-29.29,2.39-45.6-.15-.73-.33-1.45-.49-2.18l-31.28-5.78,16.45-26.71c-13.14-17.51-32.03-26.92-50.5-22.82-12.44,2.76-22.62,11.19-29.49,22.98-.95,9.42-.48,19.44,1.63,29.6,8.45,40.78,40.01,68.35,70.49,61.58Z"/><path fill="none" stroke="#3b4573" stroke-linecap="round" stroke-linejoin="round" stroke-width="12" d="m1002.03,929.75s62.71,55.76,144.36,29.48"/><ellipse cx="912.98" cy="1043.8" fill="#fff" stroke="#fff" stroke-miterlimit="10" stroke-width="12" rx="45.76" ry="63.48" transform="rotate(-9.31 913.279 1044.099)"/><path fill="#3b4573" stroke="#3b4573" stroke-linecap="round" stroke-linejoin="round" stroke-width="12" d="m925.35,1106.03c6.35-1.47,12.01-4.73,16.82-9.32,3.74-11.27,4.66-24.69,1.93-38.43-.12-.62-.26-1.23-.4-1.84l-25.29-4.88,13.31-22.51c-10.63-14.76-25.9-22.69-40.83-19.23-10.06,2.33-18.29,9.43-23.84,19.37-.77,7.94-.39,16.38,1.32,24.94,6.83,34.37,32.35,57.6,57,51.9Z"/><path fill="none" stroke="#3b4573" stroke-linecap="round" stroke-linejoin="round" stroke-width="12" d="m946.4,945.98s-34.99,40.52-101.6,40.52"/><path fill="#c3cae5" stroke="#3b4573" stroke-linecap="round" stroke-linejoin="round" stroke-width="12" d="m984.24,1092.28s-52.75-34.01-68.71-12.49c-15.96,21.52-9.14,67.73,57.36,53.84"/><g><path fill="none" stroke="#3b4573" stroke-linecap="round" stroke-linejoin="round" stroke-width="12" d="m927.23,1183.67s49.27-66.21,140.89,10.78"/><path fill="none" stroke="#3b4573" stroke-linecap="round" stroke-linejoin="round" stroke-width="12" d="m959.23,1186.57s28.37-20.4,69.67,8.46"/><path fill="none" stroke="#3b4573" stroke-linecap="round" stroke-linejoin="round" stroke-width="12" d="m919.64,1173.44c-.02,1.11-2.03,17.61,20.9,18.41"/><path fill="none" stroke="#3b4573" stroke-linecap="round" stroke-linejoin="round" stroke-width="12" d="m1073.96,1184s1.54,19.99-14.76,21.53"/></g></g><g><path fill="#fff" d="m1555.48,1071.65l-203.31-15.81c-6.67-.52-13.09,2.58-16.93,8.06-9.84,14.04-14.43,30.12-16.14,45.5,13.84,25.22,28.8,47.78,44.19,67.91,37.52,1.67,69.19-7.32,69.19-7.32-20.83,20.83-138.2,76.39-138.2,76.39l25,81.95c89.59,2.08,238.9-117.37,262.51-179.87,23.61-62.5-26.31-76.8-26.31-76.8Z"/><path fill="#6d7aa7" d="m1272.82,1243.05s25.06-15.75,37.24-7.88,35.93,80.86-8.59,125.32c-39.45,39.4-113.15,15.04-113.15,15.04l84.5-132.48Z"/><path fill="#6d7aa7" d="m1294.42,1116h0c-16.56-6.67-35.4,1.42-41.92,18.04-3.06,7.8-6.64,17.15-10.68,28.09-14.51,39.26-46.09,61.46-46.09,61.46,0,0-.39,1.24-1.09,3.48-5.84-7.07-14.21-12.1-23.99-13.55h0c-21.02-3.14-40.61,11.36-43.74,32.39l-14.45,96.89c-3.14,21.02,11.36,40.61,32.39,43.74h0c8.69,1.3,17.13-.43,24.26-4.37,20.22,4.61,65.89,1.04,65.89,1.04,65.72-44.38,47.8-132.3,47.8-132.3l30.26-95.37c5.08-16.02-3.03-33.25-18.62-39.53Z"/><path fill="#6d7aa7" d="m1126.71,1244.34c3.14-21.02-11.36-40.61-32.39-43.74h0c-20.48-3.05-39.59,10.63-43.46,30.77l-43.51-2.61c-19.23-1.15-36.33,12.16-39.92,31.09h0c-3.96,20.91,9.87,41.01,30.81,44.82,13.99,2.55,29.2,5.04,40.72,6.21l-2.83,18.99c-3.14,21.02,11.36,40.61,32.39,43.74h0c21.02,3.14,40.61-11.36,43.74-32.39l14.45-96.89Z"/><path fill="none" stroke="#3b4573" stroke-linecap="round" stroke-linejoin="round" stroke-width="12" d="m1193.17,1225.39c7.67,8.28,11.65,19.83,9.86,31.86l-14.45,96.89c-1.05,7.05-3.95,13.37-8.14,18.53"/><line x1="1038.44" x2="1049.17" y1="1306.56" y2="1235.81" fill="none" stroke="#3b4573" stroke-linecap="round" stroke-linejoin="round" stroke-width="12"/></g><path fill="none" stroke="#3b4573" stroke-linecap="round" stroke-linejoin="round" stroke-width="12" d="m1290.16,1239.86s31.99,76.45-54.8,139.36"/><line x1="1129.33" x2="1111.22" y1="1235.03" y2="1354.18" fill="none" stroke="#3b4573" stroke-linecap="round" stroke-linejoin="round" stroke-width="12"/><g><path fill="#fff" d="m361.56,1338.75l88.88-40.89c10.51-4.83,22.96-1.13,29.13,8.65,10.13,16.08,19.81,42.82,2.22,73.69-3.19,5.59-8.21,9.93-14.22,12.25l-102.75,39.78-3.26-93.48Z"/><path fill="#c3cae5" d="m55.39,1263.98c-7.13-9.19-14.83-114.16,64.91-142.43,76.51-27.12,153.36-1.5,187.51,107.69,1.18,14.05,4.45,11.12,3.57,97.45l45.26-27.16c7.08-4.25,16.26-2.57,21.28,3.98,17.04,22.23,43.47,75.62,44.41,104.06.19,5.77-3.32,11.01-8.66,13.19-21.69,8.82-84.5,35.43-109.6,57.44-30.58,26.8-232.93-142.68-248.67-214.22Z"/><path fill="#3b4573" d="m277.08,1339.82c22.47,60.28,32.37,135.93,8.54,152.46-23.84,16.53-61.86-6.78-110.45-48.95-82.6-71.69-169.92-204.81-97.36-250.69,66.02-45.79,161.08,44.7,199.27,147.18Z"/><path fill="#9fa9cf" d="m91.28,1381.66s8.96-33.57,23.36-45.22c11.04-8.94,51.57-22.93,84.59-17.34,15.57,2.64,29.24,11.82,37.73,25.13,20.53,32.17,62.65,99.09,64.15,127.18.77,14.55-21.47,32.03-48.37,33.19-27.42,1.19-54.11,5.09-73.27,8.04-10.56,1.63-20.55-5.65-25.63-15.05l-62.55-115.94Z"/><path fill="#3b4573" d="m248.86,1506.26l-71.41,6.17c-9.09.79-20.21-5.28-24.9-13.55l-60.16-105.9c-4.71-8.28-1.48-16.13,7.27-17.54l68.74-11.05c9.47-1.52,21.23,4.31,26.17,13.03l63.24,111.53c4.93,8.7.89,16.45-8.95,17.3Z"/></g><g><ellipse cx="828.41" cy="724.54" fill="#3b4573" rx="36.9" ry="43.64"/><ellipse cx="978.12" cy="754.34" fill="#3b4573" rx="36.9" ry="43.64"/><ellipse cx="1120.74" cy="782.02" fill="#3b4573" rx="36.9" ry="43.64"/><path fill="#fff" d="m1115.19,589.07l43.82,8.56c-6.4-83.11-53.31-149.13-121.57-167.96-46.62-12.86-96.38-2.17-140.14,30.1-42.2,31.12-73.9,78.93-89.26,134.62-11.5,41.69-12.91,84.69-4.07,124.36,2.21,9.94,11.03,16.7,20.81,16.7,1.54,0,3.1-.17,4.66-.51,11.5-2.56,18.75-13.96,16.19-25.46-7.32-32.88-6.09-68.75,3.56-103.74,12.83-46.51,38.92-86.15,73.46-111.63,32.99-24.33,69.73-32.61,103.47-23.3,47.46,13.09,81.02,58.9,89.1,118.26Z"/><path fill="#fff" d="m1305.13,624.86c-9.03-78.76-54.96-140.63-120.69-158.76-46.62-12.86-96.38-2.17-140.14,30.1-42.2,31.12-73.9,78.93-89.26,134.62-11.5,41.69-12.91,84.69-4.07,124.36,2.21,9.94,11.03,16.7,20.81,16.7,1.54,0,3.1-.17,4.66-.51,11.5-2.56,18.75-13.96,16.19-25.46-7.32-32.88-6.09-68.75,3.56-103.74,12.83-46.51,38.92-86.15,73.46-111.63,32.99-24.33,69.73-32.61,103.47-23.3,45.2,12.47,77.79,54.59,87.79,109.84l44.25,7.79Z"/><path fill="#fff" d="m1316.06,532.85c45.37,12.51,78.03,54.91,87.9,110.47l44.34,8.95c-8.54-79.61-54.67-142.29-120.89-160.55-46.62-12.86-96.38-2.17-140.14,30.1-42.2,31.12-73.9,78.93-89.26,134.62-11.5,41.69-12.91,84.69-4.07,124.36,2.21,9.94,11.03,16.7,20.81,16.7,1.54,0,3.1-.17,4.66-.51,11.5-2.56,18.75-13.96,16.19-25.46-7.32-32.88-6.09-68.75,3.56-103.74,12.83-46.51,38.92-86.15,73.46-111.63,32.99-24.33,69.73-32.61,103.47-23.3Z"/></g><g><path fill="#fff" d="m706.99,1448.66l97.32-44.77c11.5-5.29,25.14-1.24,31.89,9.47,11.1,17.61,21.69,46.89,2.43,80.68-3.49,6.13-8.99,10.87-15.57,13.42l-112.51,43.55-3.57-102.35Z"/><path fill="#c3cae5" d="m491.21,1241.43s50.1-83.49,137.76-68.88c87.67,14.61,162.81,98.1,98.1,227.52l-13.3,23.49,14.64-7.1c7.57-3.67,16.63.34,18.98,8.42,7.89,27.1,21.17,83.63,5.64,114.7,0,0-156.15,68.04-200.64,69.79-44.49,1.74-97.06-296.21-61.18-367.93Z"/><path fill="#3b4573" d="m623.39,1487.34c-23.57,66.69-56.98,124.23-90.78,121.73-33.8-2.51-51.42-48.64-64.89-118.09-22.9-118.06.81-287.02,94.44-280.08,93.63,6.95,101.31,163.05,61.24,276.43Z"/><path fill="none" stroke="#3b4573" stroke-linecap="round" stroke-linejoin="round" stroke-width="12" d="m667.04,1466.65s27.24-18.42,46.73-43.09"/><path fill="#9fa9cf" d="m437.8,1380.64s30.75-22.39,51.03-22.39c15.55,0,59.69,16.01,83.93,43.51,11.43,12.97,16.74,30.2,14.8,47.38-4.68,41.52-14.94,127.49-33.02,152.43-9.64,13.29-43.25,11-68.46-6.34-23.71-16.31-45.8-30.84-63.46-42.36-9.8-6.39-13.6-18.97-11.44-30.47l26.63-141.76Z"/><path fill="#3b4573" d="m486.07,1595.22l-65.02-43.94c-8.28-5.59-13.56-18.41-11.86-28.68l21.75-131.57c1.7-10.29,9.85-14.75,18.26-9.92l66.12,37.95c9.11,5.23,15.1,18.29,13.3,29.12l-23.01,138.48c-1.8,10.81-10.58,14.61-19.54,8.56Z"/></g></g><g><path fill="#c3cae5" d="m1355.1,1575.84s-28.03-57.53-128.34-25.08c-100.31,32.45-128.34-20.65-128.34-20.65,0,0,3.02,151.19,121.16,148.28,118.14-2.91,135.53-102.55,135.53-102.55Z"/><path fill="none" stroke="#3b4573" stroke-linecap="round" stroke-linejoin="round" stroke-width="12" d="m1202.38,1601.42s22.17,13.69,101.81-16.94c79.64-30.63,104.15-28.18,104.15-28.18"/><path fill="#9fa9cf" d="m1632.03,456.49s-17.04,39.75-9.46,93.38c7.57,53.63-77.61,89.59-77.61,89.59,0,0,27.76-37.86-1.26-104.74-29.02-66.88,59.94-114.83,88.33-78.24Z"/><path fill="none" stroke="#3b4573" stroke-linecap="round" stroke-linejoin="round" stroke-width="12" d="m1581.1,549.69s-11.19-40.92,19.87-67.06c31.06-26.14,58.78-46.36,58.78-46.36"/><path fill="#c3cae5" d="m1426.34,794.7s-44.89,118.95,61.72,144.76c106.61,25.81,133.54-38.16,133.54-38.16,0,0-75.19-23.57-97.63-58.35-22.44-34.79-56.11-72.94-97.63-48.25Z"/><path fill="none" stroke="#3b4573" stroke-linecap="round" stroke-linejoin="round" stroke-width="12" d="m1513.87,888.97s-46.01-19.08-66.21-61.72c-20.2-42.64-61.72-84.17-61.72-84.17"/><g><path fill="#9fa9cf" d="m565.71,515.22s45.55-27.93,78.4,31.92c32.85,59.86,51.52,47.88,51.52,47.88,0,0-31.32,47.44-99.2,12.76-67.88-34.68-30.73-92.57-30.73-92.57Z"/><path fill="none" stroke="#3b4573" stroke-linecap="round" stroke-linejoin="round" stroke-width="12" d="m620.75,578.43s-11.95,3-35.13-32.29c-23.19-35.3-56.21-54.83-56.21-54.83"/></g><path fill="none" stroke="#3b4573" stroke-linecap="round" stroke-linejoin="round" stroke-width="12" d="m336.67,340.2s68.55,32.97,50.33,96.32-78.99,26.47-68.55-6.07c10.43-32.54,58.14-34.71,103.26,26.03,45.12,60.74,59.01,130.16,59.01,130.16"/></g></svg>